<svg width="642" height="144" viewBox="0 0 642 144" fill="none" xmlns="http://www.w3.org/2000/svg">
<path d="M84.6649 61.8761C84.6649 74.7239 74.3027 85.122 61.4993 85.122C48.6959 85.122 38.3337 74.7239 38.3337 61.8761C38.3337 49.0283 48.6959 38.6301 61.4993 38.6301C74.3027 38.6301 84.6649 49.0283 84.6649 61.8761Z" fill="white"/>
<path d="M105.727 25.9396C89.9632 -1.26756 61.5256 0.00940368 61.5256 0.00940368C61.5256 0.00940368 33.0361 -1.26756 17.298 25.9396C1.48206 53.1988 -4.54308 88.0417 3.66357 107.926C11.0392 125.803 26.3877 136.827 43.7359 141.596C55.3447 144.801 67.6806 144.801 79.2634 141.596C96.6116 136.827 111.96 125.803 119.336 107.926C127.542 88.0417 121.517 53.1988 105.727 25.9396ZM61.4996 94.9477C43.2944 94.9477 28.5692 80.1453 28.5692 61.877C28.5692 43.6086 43.3204 28.8062 61.4996 28.8062C79.6789 28.8062 94.4561 43.6086 94.4561 61.877C94.4561 80.1453 79.7049 94.9477 61.4996 94.9477Z" fill="white"/>
<path d="M84.6649 61.8761C84.6649 74.7239 74.3027 85.122 61.4993 85.122C48.6959 85.122 38.3337 74.7239 38.3337 61.8761C38.3337 49.0283 48.6959 38.6301 61.4993 38.6301C74.3027 38.6301 84.6649 49.0283 84.6649 61.8761Z" fill="white"/>
<path d="M220.887 24.9284C227.302 24.9284 232.975 26.1407 237.846 28.5949C242.746 31.0492 246.548 34.5087 249.221 38.9736C251.894 43.4681 253.23 48.6723 253.23 54.6156C253.23 60.559 251.894 65.7631 249.221 70.2576C246.548 74.7521 242.746 78.2116 237.846 80.6363C232.945 83.0905 227.302 84.3029 220.887 84.3029H199.355V118.1H184V24.9284H220.887ZM199.355 70.9673H219.521C225.045 70.9673 229.441 69.4888 232.678 66.5023C235.915 63.5454 237.549 59.5536 237.549 54.5861C237.549 49.6185 235.945 45.538 232.737 42.6106C229.53 39.6833 225.164 38.2049 219.64 38.2049H199.325V70.9377L199.355 70.9673Z" fill="white"/>
<path d="M274.347 27.3826C276.039 29.0385 276.901 31.0787 276.901 33.5625C276.901 36.0463 276.039 38.1161 274.347 39.7424C272.654 41.3687 270.545 42.1967 268.08 42.1967C265.615 42.1967 263.476 41.3687 261.784 39.7424C260.091 38.0866 259.229 36.0463 259.229 33.5625C259.229 31.0787 260.091 29.0089 261.784 27.3826C263.476 25.7563 265.555 24.9284 268.08 24.9284C270.604 24.9284 272.654 25.7563 274.347 27.3826ZM260.863 49.9437H275.297V118.071H260.863V49.9437Z" fill="white"/>
<path d="M339.568 112.158C334.044 116.652 326.946 118.87 318.303 118.87C311.532 118.87 305.562 117.421 300.394 114.553C295.227 111.685 291.247 107.575 288.425 102.252C285.634 96.9297 284.208 90.809 284.208 83.8898C284.208 76.9707 285.634 70.9091 288.485 65.6458C291.336 60.4121 295.375 56.3611 300.573 53.4634C305.77 50.5952 311.829 49.1463 318.689 49.1463C327.243 49.1463 334.252 51.3935 339.687 55.8585C345.122 60.3234 348.508 66.4441 349.844 74.1616H334.995C334.014 70.2585 332.054 67.1538 329.114 64.8474C326.174 62.541 322.55 61.3878 318.274 61.3878C312.482 61.3878 307.819 63.4872 304.315 67.6565C300.78 71.8257 299.028 77.2368 299.028 83.8898C299.028 90.5428 300.78 96.1018 304.315 100.33C307.819 104.559 312.482 106.658 318.274 106.658C322.729 106.658 326.441 105.475 329.381 103.139C332.322 100.803 334.222 97.6098 335.113 93.618H349.815C348.478 101.513 345.033 107.693 339.539 112.187L339.568 112.158Z" fill="white"/>
<path d="M370.306 95.5688C370.573 99.1171 372.237 102.015 375.325 104.292C378.414 106.539 382.394 107.692 387.294 107.692C391.66 107.692 395.194 106.864 397.927 105.238C400.63 103.612 401.996 101.394 401.996 98.644C401.996 96.3376 401.372 94.6226 400.125 93.4694C398.877 92.3162 397.214 91.4883 395.105 91.0152C392.997 90.5125 389.789 90.0099 385.423 89.4776C379.454 88.768 374.523 87.8218 370.662 86.6094C366.802 85.3971 363.653 83.5047 361.307 80.9026C358.931 78.3006 357.773 74.7523 357.773 70.3169C357.773 66.1477 358.961 62.4516 361.307 59.199C363.653 55.976 366.92 53.4626 371.078 51.6885C375.207 49.9144 379.929 49.0273 385.186 49.0273C393.828 49.0273 400.837 50.9493 406.243 54.7637C411.618 58.5781 414.559 63.93 415.004 70.8787H400.956C400.6 67.774 399.026 65.2311 396.293 63.2204C393.531 61.2393 390.056 60.2339 385.869 60.2339C381.681 60.2339 378.295 61.0323 375.711 62.629C373.128 64.2257 371.85 66.4138 371.85 69.1637C371.85 71.204 372.504 72.7416 373.781 73.7469C375.058 74.7818 376.692 75.4619 378.652 75.8759C380.612 76.2603 383.76 76.7334 388.156 77.2656C394.036 77.8866 398.966 78.8328 403.006 80.1338C407.015 81.4349 410.223 83.4456 412.628 86.2546C415.034 89.0637 416.252 92.8485 416.252 97.6387C416.252 101.897 415.004 105.652 412.509 108.875C410.015 112.127 406.569 114.611 402.233 116.326C397.897 118.041 392.967 118.928 387.532 118.928C378.355 118.928 370.93 116.858 365.287 112.748C359.614 108.609 356.704 102.931 356.525 95.6575H370.425L370.306 95.5688Z" fill="white"/>
<path d="M426.915 65.7049C429.737 60.4121 433.627 56.3316 438.676 53.4634C443.695 50.5952 449.487 49.1463 455.991 49.1463C462.495 49.1463 468.406 50.4769 473.425 53.1381C478.444 55.7993 482.424 59.5841 485.305 64.463C488.186 69.3419 489.7 75.0487 489.789 81.613C489.789 83.3872 489.671 85.1909 489.403 87.0537H437.815V87.8521C438.171 93.7954 440.042 98.4969 443.428 101.956C446.814 105.416 451.328 107.131 456.912 107.131C461.367 107.131 465.109 106.096 468.138 103.997C471.168 101.897 473.158 98.97 474.167 95.1556H488.601C487.354 102.075 483.998 107.752 478.504 112.187C473.039 116.623 466.178 118.84 457.981 118.84C450.853 118.84 444.646 117.391 439.33 114.523C434.013 111.655 429.915 107.575 427.034 102.341C424.153 97.1071 422.698 91.0159 422.698 84.0968C422.698 77.1777 424.094 70.9386 426.915 65.6753V65.7049ZM475.088 76.5567C474.464 71.5891 472.475 67.7156 469.148 64.9066C465.822 62.0975 461.604 60.7078 456.526 60.7078C451.804 60.7078 447.735 62.1566 444.289 65.0248C440.844 67.9226 438.884 71.737 438.35 76.5272H475.118L475.088 76.5567Z" fill="white"/>
<path d="M498.728 24.9284H513.162V118.071H498.728V24.9284Z" fill="white"/>
<path d="M524.657 24.9284H539.091V118.071H524.657V24.9284Z" fill="white"/>
<path d="M564.098 27.3826C565.791 29.0385 566.652 31.0787 566.652 33.5625C566.652 36.0463 565.791 38.1161 564.098 39.7424C562.405 41.3687 560.297 42.1967 557.832 42.1967C555.367 42.1967 553.228 41.3687 551.535 39.7424C549.842 38.0866 548.981 36.0463 548.981 33.5625C548.981 31.0787 549.842 29.0089 551.535 27.3826C553.228 25.7563 555.307 24.9284 557.832 24.9284C560.356 24.9284 562.405 25.7563 564.098 27.3826ZM550.615 49.9437H565.049V118.071H550.615V49.9437Z" fill="white"/>
<path d="M642 105.563V118.071H634.397C629.942 118.071 626.734 117.125 624.774 115.262C622.814 113.399 621.834 110.708 621.834 107.131C616.666 114.937 609.152 118.84 599.262 118.84C591.6 118.84 585.452 117.066 580.819 113.517C576.185 109.969 573.869 105.09 573.869 98.8809C573.869 91.873 576.364 86.4915 581.353 82.7066C586.343 78.9218 593.589 77.059 603.123 77.059H620.349V72.9489C620.349 69.1345 619.012 66.148 616.339 63.9599C613.666 61.8014 609.954 60.7073 605.232 60.7073C601.044 60.7073 597.599 61.624 594.866 63.4277C592.134 65.261 590.53 67.656 589.996 70.6721H575.829C576.542 63.8416 579.571 58.5488 584.917 54.764C590.263 51.0087 597.272 49.1163 605.915 49.1163C615.092 49.1163 622.161 51.2453 627.18 55.5032C632.169 59.7611 634.664 65.8819 634.664 73.8655V100.744C634.664 103.937 636.179 105.534 639.208 105.534H642V105.563ZM620.349 87.7334H602.44C597.985 87.7334 594.54 88.5909 592.164 90.3354C589.758 92.0504 588.54 94.6229 588.54 97.9938C588.54 100.921 589.669 103.287 591.956 105.031C594.243 106.805 597.332 107.692 601.252 107.692C607.222 107.692 611.884 106.096 615.211 102.902C618.537 99.7088 620.26 95.4509 620.349 90.1284V87.7334Z" fill="white"/>
</svg>
