<svg width="216" height="216" viewBox="0 0 216 216" fill="none" xmlns="http://www.w3.org/2000/svg">
<mask id="path-1-inside-1_1_56" fill="white">
<path fill-rule="evenodd" clip-rule="evenodd" d="M0 86.2272C0 15.2191 15.2191 0 86.2272 0H129.773C200.781 0 216 15.2191 216 86.2272V129.773C216 200.781 200.781 216 129.773 216H86.2272C15.2191 216 0 200.781 0 129.773V86.2272ZM154.2 59.8658C137.822 31.5315 108.275 32.8614 108.275 32.8614C108.275 32.8614 78.6742 31.5315 62.3223 59.8658C45.8895 88.2545 39.6293 124.541 48.1561 145.249C55.8193 163.867 71.7664 175.347 89.7913 180.314C101.853 183.652 114.67 183.652 126.704 180.314C144.729 175.347 160.676 163.867 168.34 145.249C176.866 124.541 170.606 88.2545 154.2 59.8658ZM108.248 131.733C89.3326 131.733 74.033 116.317 74.033 97.2922C74.033 78.2669 89.3596 62.8513 108.248 62.8513C127.136 62.8513 142.49 78.2669 142.49 97.2922C142.49 116.317 127.163 131.733 108.248 131.733ZM108.248 121.5C121.551 121.5 132.317 110.671 132.317 97.2913C132.317 83.9112 121.551 73.0822 108.248 73.0822C94.9452 73.0822 84.1789 83.9112 84.1789 97.2913C84.1789 110.671 94.9452 121.5 108.248 121.5Z"/>
</mask>
<path fill-rule="evenodd" clip-rule="evenodd" d="M0 86.2272C0 15.2191 15.2191 0 86.2272 0H129.773C200.781 0 216 15.2191 216 86.2272V129.773C216 200.781 200.781 216 129.773 216H86.2272C15.2191 216 0 200.781 0 129.773V86.2272ZM154.2 59.8658C137.822 31.5315 108.275 32.8614 108.275 32.8614C108.275 32.8614 78.6742 31.5315 62.3223 59.8658C45.8895 88.2545 39.6293 124.541 48.1561 145.249C55.8193 163.867 71.7664 175.347 89.7913 180.314C101.853 183.652 114.67 183.652 126.704 180.314C144.729 175.347 160.676 163.867 168.34 145.249C176.866 124.541 170.606 88.2545 154.2 59.8658ZM108.248 131.733C89.3326 131.733 74.033 116.317 74.033 97.2922C74.033 78.2669 89.3596 62.8513 108.248 62.8513C127.136 62.8513 142.49 78.2669 142.49 97.2922C142.49 116.317 127.163 131.733 108.248 131.733ZM108.248 121.5C121.551 121.5 132.317 110.671 132.317 97.2913C132.317 83.9112 121.551 73.0822 108.248 73.0822C94.9452 73.0822 84.1789 83.9112 84.1789 97.2913C84.1789 110.671 94.9452 121.5 108.248 121.5Z" fill="white"/>
<path d="M108.275 32.8614L108.095 36.8573L108.275 36.8654L108.455 36.8573L108.275 32.8614ZM154.2 59.8658L157.664 57.8644L157.663 57.864L154.2 59.8658ZM62.3223 59.8658L65.7841 61.8697L65.7868 61.8652L62.3223 59.8658ZM48.1561 145.249L51.855 143.726L51.8548 143.726L48.1561 145.249ZM89.7913 180.314L90.8582 176.459L90.8539 176.458L89.7913 180.314ZM126.704 180.314L125.642 176.458L125.635 176.46L126.704 180.314ZM168.34 145.249L164.641 143.726L164.641 143.726L168.34 145.249ZM86.2272 -4C68.3839 -4 53.7723 -3.04913 41.9299 -0.417246C30.042 2.22474 20.7007 6.61355 13.6571 13.6571C6.61355 20.7007 2.22474 30.042 -0.417246 41.9299C-3.04913 53.7723 -4 68.3839 -4 86.2272H4C4 68.5665 4.95152 54.6476 7.39222 43.6655C9.82282 32.7287 13.6768 24.9512 19.314 19.314C24.9512 13.6768 32.7287 9.82282 43.6655 7.39222C54.6476 4.95152 68.5665 4 86.2272 4V-4ZM129.773 -4H86.2272V4H129.773V-4ZM220 86.2272C220 68.3839 219.049 53.7723 216.417 41.9299C213.775 30.042 209.386 20.7007 202.343 13.6571C195.299 6.61355 185.958 2.22474 174.07 -0.417246C162.228 -3.04913 147.616 -4 129.773 -4V4C147.434 4 161.352 4.95152 172.335 7.39222C183.271 9.82282 191.049 13.6768 196.686 19.314C202.323 24.9512 206.177 32.7287 208.608 43.6655C211.048 54.6476 212 68.5665 212 86.2272H220ZM220 129.773V86.2272H212V129.773H220ZM129.773 220C147.616 220 162.228 219.049 174.07 216.417C185.958 213.775 195.299 209.386 202.343 202.343C209.386 195.299 213.775 185.958 216.417 174.07C219.049 162.228 220 147.616 220 129.773H212C212 147.434 211.048 161.352 208.608 172.335C206.177 183.271 202.323 191.049 196.686 196.686C191.049 202.323 183.271 206.177 172.335 208.608C161.352 211.048 147.434 212 129.773 212V220ZM86.2272 220H129.773V212H86.2272V220ZM-4 129.773C-4 147.616 -3.04913 162.228 -0.417246 174.07C2.22474 185.958 6.61355 195.299 13.6571 202.343C20.7007 209.386 30.042 213.775 41.9299 216.417C53.7723 219.049 68.3839 220 86.2272 220V212C68.5665 212 54.6476 211.048 43.6655 208.608C32.7287 206.177 24.9512 202.323 19.314 196.686C13.6768 191.049 9.82282 183.271 7.39222 172.335C4.95152 161.352 4 147.434 4 129.773H-4ZM-4 86.2272V129.773H4V86.2272H-4ZM108.275 32.8614C108.455 36.8573 108.453 36.8574 108.451 36.8575C108.451 36.8575 108.449 36.8576 108.448 36.8576C108.447 36.8577 108.445 36.8577 108.445 36.8577C108.443 36.8578 108.443 36.8578 108.445 36.8577C108.449 36.8576 108.46 36.8572 108.477 36.8567C108.512 36.8557 108.574 36.8541 108.662 36.853C108.837 36.8508 109.116 36.8502 109.486 36.8585C110.228 36.8753 111.336 36.9279 112.729 37.0744C115.522 37.3679 119.426 38.0347 123.807 39.5251C132.533 42.4934 143.133 48.7123 150.737 61.8677L157.663 57.864C148.889 42.6851 136.526 35.4017 126.384 31.9513C121.331 30.2324 116.825 29.4608 113.566 29.1182C111.933 28.9466 110.605 28.8818 109.667 28.8606C109.197 28.85 108.825 28.8503 108.559 28.8537C108.427 28.8554 108.321 28.8578 108.243 28.8601C108.204 28.8613 108.172 28.8623 108.147 28.8633C108.135 28.8637 108.125 28.8641 108.116 28.8645C108.111 28.8647 108.107 28.8649 108.104 28.865C108.102 28.8651 108.1 28.8652 108.099 28.8652C108.097 28.8653 108.095 28.8654 108.275 32.8614ZM65.7868 61.8652C73.377 48.7129 83.9814 42.4943 92.7175 39.5255C97.1038 38.035 101.015 37.368 103.812 37.0744C105.208 36.9279 106.318 36.8753 107.061 36.8585C107.433 36.8502 107.711 36.8508 107.887 36.853C107.975 36.8541 108.037 36.8557 108.073 36.8567C108.09 36.8572 108.101 36.8576 108.105 36.8577C108.107 36.8578 108.107 36.8578 108.105 36.8578C108.105 36.8577 108.103 36.8577 108.102 36.8576C108.101 36.8576 108.099 36.8575 108.099 36.8575C108.097 36.8574 108.095 36.8573 108.275 32.8614C108.454 28.8654 108.452 28.8653 108.45 28.8652C108.449 28.8652 108.447 28.8651 108.445 28.865C108.442 28.8648 108.438 28.8647 108.434 28.8645C108.425 28.8641 108.414 28.8637 108.402 28.8633C108.377 28.8623 108.345 28.8613 108.306 28.8601C108.228 28.8578 108.122 28.8554 107.99 28.8537C107.724 28.8503 107.351 28.85 106.881 28.8606C105.941 28.8818 104.611 28.9466 102.977 29.1181C99.7128 29.4607 95.2014 30.2321 90.1435 31.9509C79.9914 35.4008 67.6194 42.6844 58.8578 57.8665L65.7868 61.8652ZM51.8548 143.726C47.9887 134.337 47.3342 120.931 49.8241 106.1C52.2995 91.3554 57.812 75.6421 65.7841 61.8697L58.8604 57.8619C50.3998 72.4782 44.5658 89.1025 41.9346 104.775C39.3179 120.361 39.7967 135.453 44.4573 146.772L51.8548 143.726ZM90.8539 176.458C73.7532 171.746 58.9509 160.966 51.855 143.726L44.4571 146.771C52.6878 166.768 69.7797 178.949 88.7287 184.17L90.8539 176.458ZM125.635 176.46C114.301 179.604 102.222 179.604 90.8582 176.459L88.7243 184.169C101.483 187.7 115.039 187.701 127.774 184.168L125.635 176.46ZM164.641 143.726C157.545 160.966 142.743 171.746 125.642 176.458L127.767 184.17C146.716 178.949 163.808 166.768 172.039 146.771L164.641 143.726ZM150.737 61.8673C158.697 75.6402 164.203 91.354 166.675 106.099C169.162 120.931 168.507 134.337 164.641 143.726L172.038 146.772C176.699 135.453 177.178 120.362 174.565 104.776C171.937 89.1038 166.11 72.4801 157.664 57.8644L150.737 61.8673ZM70.033 97.2922C70.033 118.501 87.0975 135.733 108.248 135.733V127.733C91.5676 127.733 78.033 114.134 78.033 97.2922H70.033ZM108.248 58.8513C87.1265 58.8513 70.033 76.0817 70.033 97.2922H78.033C78.033 80.4521 91.5926 66.8513 108.248 66.8513V58.8513ZM146.49 97.2922C146.49 76.0776 129.365 58.8513 108.248 58.8513V66.8513C124.907 66.8513 138.49 80.4562 138.49 97.2922H146.49ZM108.248 135.733C129.394 135.733 146.49 118.505 146.49 97.2922H138.49C138.49 114.13 124.932 127.733 108.248 127.733V135.733ZM128.317 97.2913C128.317 108.484 119.32 117.5 108.248 117.5V125.5C123.782 125.5 136.317 112.859 136.317 97.2913H128.317ZM108.248 77.0822C119.32 77.0822 128.317 86.0984 128.317 97.2913H136.317C136.317 81.7239 123.782 69.0822 108.248 69.0822V77.0822ZM88.1789 97.2913C88.1789 86.0984 97.1762 77.0822 108.248 77.0822V69.0822C92.7143 69.0822 80.1789 81.7239 80.1789 97.2913H88.1789ZM108.248 117.5C97.1762 117.5 88.1789 108.484 88.1789 97.2913H80.1789C80.1789 112.859 92.7143 125.5 108.248 125.5V117.5Z" fill="white" mask="url(#path-1-inside-1_1_56)"/>
</svg>
