<?xml version="1.0" encoding="utf-8"?>
<!-- Generator: Adobe Illustrator 24.0.2, SVG Export Plug-In . SVG Version: 6.00 Build 0)  -->
<svg version="1.1" id="Layer_1" xmlns="http://www.w3.org/2000/svg" xmlns:xlink="http://www.w3.org/1999/xlink" x="0px" y="0px"
	 viewBox="0 0 28.1 30.1" style="enable-background:new 0 0 28.1 30.1;" xml:space="preserve">
<style type="text/css">
	.st0{fill:#FF3621;}
</style>
<g>
	<path class="st0" d="M26.4,12.5l-12.5,7.1L0.6,12L0,12.3v5.5l14,7.9l12.5-7.1v2.9L14,28.6L0.7,21l-0.6,0.3v0.9l14,7.9l14-7.9V17
		l-0.6-0.3l-13.4,7.6L1.6,17.2v-2.9l12.5,7.1l14-7.9V7.9l-0.7-0.4L14.1,15l-12-6.7l11.8-6.7l9.8,5.5l0.9-0.5V6L13.9,0l-14,7.9v0.8
		l14,7.9l12.5-7.1V12.5z"/>
</g>
</svg>
