<?xml version="1.0" encoding="utf-8"?>
<!-- Generator: Adobe Illustrator 24.0.2, SVG Export Plug-In . SVG Version: 6.00 Build 0)  -->
<svg version="1.1" id="Capa_1" xmlns="http://www.w3.org/2000/svg" xmlns:xlink="http://www.w3.org/1999/xlink" x="0px" y="0px"
	 viewBox="0 0 35.7 28.7" style="enable-background:new 0 0 35.7 28.7;" xml:space="preserve">
<style type="text/css">
	.st0{fill:#EA4335;}
	.st1{fill:#4285F4;}
	.st2{fill:#34A853;}
	.st3{fill:#FBBC05;}
</style>
<path class="st0" d="M22.7,7.9l1.1,0L27,4.9l0.2-1.3C24.7,1.3,21.4,0,17.9,0C11.4,0,6,4.4,4.4,10.3c0.3-0.2,1.1-0.1,1.1-0.1l6.2-1
	c0,0,0.3-0.5,0.5-0.5C14.9,5.7,19.5,5.4,22.7,7.9L22.7,7.9z"/>
<path class="st1" d="M31.4,10.3c-0.7-2.6-2.2-5-4.2-6.8l-4.4,4.4c1.8,1.5,2.9,3.7,2.9,6v0.8c2.1,0,3.9,1.7,3.9,3.9
	c0,2.1-1.7,3.9-3.9,3.9h-7.8l-0.8,0.8v4.7l0.8,0.8h7.8c5.6,0,10.1-4.5,10.1-10.1C35.7,15.2,34,12.2,31.4,10.3L31.4,10.3z"/>
<path class="st2" d="M10.1,28.7h7.8v-6.2h-7.8c-0.6,0-1.1-0.1-1.6-0.3l-1.1,0.3l-3.1,3.1l-0.3,1C5.7,28,7.9,28.7,10.1,28.7
	L10.1,28.7z"/>
<path class="st3" d="M10.1,8.5C4.5,8.6,0,13.1,0,18.6c0,3.2,1.5,6.1,4,8l4.5-4.5c-1.4-0.6-2.3-2-2.3-3.5c0-2.1,1.7-3.9,3.9-3.9
	c1.5,0,2.9,0.9,3.5,2.3l4.5-4.5C16.3,10.1,13.4,8.5,10.1,8.5L10.1,8.5z"/>
</svg>
