<?xml version="1.0" encoding="utf-8"?>
<!-- Generator: Adobe Illustrator 24.0.2, SVG Export Plug-In . SVG Version: 6.00 Build 0)  -->
<svg version="1.1" id="Capa_1" xmlns="http://www.w3.org/2000/svg" xmlns:xlink="http://www.w3.org/1999/xlink" x="0px" y="0px"
	 viewBox="0 0 206 191.2" style="enable-background:new 0 0 206 191.2;" xml:space="preserve">
<style type="text/css">
	.st0{fill:#FFFFFF;}
	.st1{fill:#FF9D00;}
	.st2{fill-rule:evenodd;clip-rule:evenodd;fill:#FFD21E;}
	.st3{fill-rule:evenodd;clip-rule:evenodd;fill:#32343D;}
	.st4{fill:#FF323D;}
	.st5{fill-rule:evenodd;clip-rule:evenodd;fill:#FFAD03;}
</style>
<path class="st0" d="M205.3,140.6c-0.5-2-1.4-3.9-2.6-5.7c0.3-0.9,0.4-1.8,0.6-2.8c0.8-6-1.2-11.4-5.1-15.7
	c-2.1-2.3-4.4-3.8-6.8-4.8c1.6-6.7,2.4-13.6,2.4-20.6c0-3.2-0.2-6.3-0.5-9.3c-0.2-1.5-0.3-3-0.6-4.6c-0.7-4.5-1.7-8.9-3.1-13.2
	c-0.9-2.8-1.9-5.6-3.1-8.4c-1.7-4.1-3.7-8-6-11.8c-1.5-2.5-3.1-4.9-4.9-7.3c-0.9-1.2-1.8-2.3-2.7-3.4c-2.8-3.4-5.8-6.5-9-9.5
	c-1.1-1-2.2-1.9-3.3-2.9c-1.1-0.9-2.3-1.8-3.4-2.7c-2.3-1.7-4.8-3.4-7.3-4.9C136.1,4.8,119.9,0,102.6,0C52.3,0,11.6,40.8,11.6,91.1
	c0,7,0.8,14,2.4,20.8c-2.2,0.9-4.2,2.4-6.2,4.5c-3.9,4.2-6,9.7-5.1,15.7c0.1,0.9,0.3,1.9,0.6,2.8c-1.2,1.7-2,3.7-2.6,5.7
	c-1.2,4.6-0.8,8.7,0.7,12.3c-1.7,4.7-1.2,9.7,0.9,14.1c1.6,3.2,3.8,5.6,6.6,7.9c3.3,2.6,7.4,4.8,12.4,7c5.9,2.5,13.2,4.9,16.5,5.8
	c8.5,2.2,16.7,3.6,24.9,3.7c11.8,0.1,21.9-2.7,29.2-9.7c3.6,0.4,7.2,0.7,10.8,0.7c3.8,0,7.6-0.2,11.4-0.7c7.2,7.1,17.4,9.9,29.2,9.8
	c8.3-0.1,16.4-1.5,24.9-3.7c3.3-0.9,10.6-3.2,16.5-5.8c5-2.1,9.1-4.4,12.4-7c2.7-2.2,5-4.7,6.6-7.9c2.2-4.4,2.6-9.4,0.9-14.1
	C206.1,149.2,206.5,145.1,205.3,140.6z M196.8,152.5c1.7,3.2,1.8,6.8,0.3,10.1c-2.2,5.1-7.8,9-18.6,13.3c-6.7,2.7-12.8,4.4-12.9,4.4
	c-8.9,2.3-16.9,3.5-23.8,3.5c-11.5,0-20.1-3.2-25.5-9.4c-9.2,1.6-18.6,1.6-27.7,0.2c-5.4,6.2-13.9,9.3-25.3,9.3
	c-6.9,0-15-1.2-23.8-3.5c-0.1,0-6.2-1.7-12.9-4.4c-10.8-4.3-16.3-8.3-18.6-13.3c-1.5-3.3-1.4-6.9,0.3-10.1c0.2-0.3,0.3-0.6,0.5-0.9
	c-1-1.5-1.7-3.2-2-5c-0.3-1.8-0.2-3.6,0.2-5.4c0.7-2.5,2-4.6,3.9-6.1c-0.9-1.5-1.5-3.1-1.7-4.8c-0.5-3.7,0.7-7.4,3.5-10.4
	c2.2-2.4,5.2-3.6,8.6-3.6h0.1c-2.5-8.2-3.8-16.7-3.8-25.2c0-46.7,37.8-84.5,84.5-84.5c46.7,0,84.5,37.8,84.5,84.5
	c0,8.6-1.3,17.1-3.9,25.3c0.4,0,0.8-0.1,1.2-0.1c3.4,0,6.4,1.3,8.6,3.6c2.8,3,4,6.7,3.5,10.4c-0.2,1.7-0.8,3.3-1.7,4.8
	c1.9,1.5,3.2,3.6,3.9,6.1c0.5,1.7,0.5,3.6,0.2,5.4c-0.3,1.8-1,3.5-2,5C196.5,151.9,196.7,152.2,196.8,152.5z"/>
<path class="st1" d="M196.3,151.7c1-1.5,1.7-3.2,2-5c0.3-1.8,0.2-3.6-0.2-5.4c-0.7-2.5-2-4.6-3.9-6.1c0.9-1.5,1.5-3.1,1.7-4.8
	c0.5-3.7-0.7-7.4-3.5-10.4c-2.2-2.4-5.2-3.6-8.6-3.6c-0.4,0-0.8,0-1.2,0.1c2.6-8.2,3.9-16.7,3.9-25.3c0-46.7-37.8-84.5-84.5-84.5
	c-46.7,0-84.5,37.8-84.5,84.5c0,8.6,1.3,17.1,3.8,25.2h-0.1c-3.4,0-6.4,1.3-8.6,3.6c-2.8,3-4,6.7-3.5,10.4c0.2,1.7,0.8,3.3,1.7,4.8
	c-1.9,1.5-3.2,3.6-3.9,6.1c-0.5,1.7-0.5,3.6-0.2,5.4c0.3,1.8,1,3.5,2,5c-0.2,0.3-0.3,0.6-0.5,0.9c-1.7,3.2-1.8,6.8-0.3,10.1
	c2.2,5.1,7.8,9,18.6,13.3c6.7,2.7,12.9,4.4,12.9,4.4c8.9,2.3,16.9,3.5,23.8,3.5c11.4,0,19.9-3.1,25.4-9.3c9.2,1.5,18.6,1.4,27.7-0.2
	c5.4,6.3,14,9.4,25.5,9.4c6.9,0,15-1.2,23.8-3.5c0.1,0,6.2-1.7,12.9-4.4c10.8-4.3,16.3-8.3,18.6-13.3c1.5-3.3,1.4-6.9-0.3-10.1
	C196.7,152.2,196.5,151.9,196.3,151.7z M84.7,164.9c-0.5,0.8-1,1.6-1.5,2.4c-1.4,2.1-3.3,3.6-5.4,4.8c-4.1,2.2-9.3,3-14.6,3
	c-8.3,0-16.9-1.9-21.7-3.2c-0.2-0.1-29.3-8.3-25.7-15.3c0.6-1.2,1.6-1.6,2.9-1.6c5.2,0,14.6,7.7,18.7,7.7c0.9,0,1.5-0.4,1.8-1.3
	c1.7-6.2-26.3-8.8-23.9-17.8c0.4-1.6,1.5-2.2,3.1-2.2c6.9,0,22.3,12.1,25.5,12.1c0.2,0,0.4-0.1,0.5-0.2c0,0,0,0,0-0.1
	c1.5-2.5,0.6-4.3-9.7-10.6l-1-0.6c-11.4-6.9-19.4-11-14.8-16c0.5-0.6,1.3-0.8,2.2-0.8c1.1,0,2.4,0.4,3.8,1c6,2.5,14.4,9.5,17.8,12.5
	c0.5,0.5,1.1,1,1.6,1.4c0,0,4.4,4.6,7.1,4.6c0.6,0,1.1-0.2,1.5-0.8c1.9-3.2-17.6-17.9-18.7-24c-0.7-4.1,0.5-6.2,2.9-6.2
	c1.1,0,2.5,0.5,4,1.4c4.7,3,13.6,18.4,16.9,24.4c1.1,2,3,2.9,4.7,2.9c3.4,0,6-3.3,0.3-7.6c-8.5-6.4-5.5-16.8-1.5-17.5
	c0.2,0,0.3,0,0.5,0c3.7,0,5.3,6.4,5.3,6.4s4.8,12,13,20.3C88,151.1,89,157.2,84.7,164.9z M111.3,166.3l-0.4,0.1l-0.7,0.1
	c-0.4,0-0.8,0.1-1.2,0.1l-0.4,0l-0.3,0l-0.5,0l-0.5,0l-0.5,0l-0.1,0c-0.1,0-0.3,0-0.4,0l-0.2,0c-0.2,0-0.3,0-0.5,0l-0.6,0l-0.5,0
	l-0.4,0h-0.2c-0.1,0-0.2,0-0.3,0h-0.2c-0.1,0-0.2,0-0.3,0l-0.4,0h-0.6c-0.5,0-1,0-1.5,0l-0.4,0c-0.1,0-0.2,0-0.3,0l-0.4,0l-0.5,0
	l-0.5,0l-0.1,0l-0.4,0c-0.1,0-0.2,0-0.4,0l-0.3,0c-0.4,0-0.7,0-1.1-0.1l-0.4,0c-0.2,0-0.3,0-0.5,0c-0.2,0-0.4,0-0.6-0.1
	c-0.3,0-0.6-0.1-0.9-0.1h0c4.6-10.2,2.3-19.7-7-28.9c-6.1-6-10.1-15-10.9-16.9c-1.7-5.8-6.2-12.3-13.6-12.3c-0.6,0-1.3,0.1-1.9,0.1
	c-3.3,0.5-6.1,2.4-8.1,5.2c-2.2-2.7-4.3-4.9-6.3-6.1c-2.9-1.8-5.8-2.8-8.6-2.8c-3.5,0-6.7,1.4-8.9,4.1l-0.1,0.1
	c0-0.2-0.1-0.3-0.1-0.5l0,0c-0.4-1.8-0.8-3.6-1.1-5.4c0,0,0,0,0,0c0-0.1,0-0.3-0.1-0.4c-0.1-0.4-0.1-0.8-0.2-1.2
	c0-0.2,0-0.4-0.1-0.6l-0.1-0.6c0-0.2,0-0.4-0.1-0.5l0,0c-0.1-0.7-0.1-1.4-0.2-2.2l0-0.3l0-0.5c0-0.1,0-0.3,0-0.4c0,0,0-0.1,0-0.1
	c0-0.4,0-0.7-0.1-1.1c0-0.2,0-0.4,0-0.6l0-0.5l0-0.2l0-0.5l0-0.4c0-0.2,0-0.3,0-0.5c0-0.2,0-0.3,0-0.5c0-0.2,0-0.3,0-0.5
	c0-0.2,0-0.3,0-0.5c0-41.9,33.9-75.8,75.8-75.8c41.9,0,75.8,33.9,75.8,75.8v1c0,0.2,0,0.3,0,0.5c0,0.1,0,0.3,0,0.4
	c0,0.1,0,0.2,0,0.4c0,0.2,0,0.3,0,0.5v0l0,0.5c0,0.2,0,0.3,0,0.5l0,0.1l0,0.5c-0.1,1.1-0.1,2.1-0.2,3.2v0c0,0.2,0,0.3-0.1,0.5l0,0.4
	l-0.1,0.8l-0.1,0.4l-0.1,0.5c0,0.2,0,0.3-0.1,0.5c0,0.2-0.1,0.4-0.1,0.6l-0.1,0.5l-0.1,0.5c0,0.2-0.1,0.3-0.1,0.5
	c0,0.2-0.1,0.3-0.1,0.5c-0.1,0.3-0.1,0.7-0.2,1c-0.1,0.5-0.2,1-0.3,1.5l-0.1,0.5c0,0.2-0.1,0.3-0.1,0.5c-2.1-2.1-5-3.2-8.1-3.2
	c-2.8,0-5.7,0.9-8.6,2.8c-1.9,1.2-4.1,3.4-6.3,6.1c-2-2.8-4.9-4.7-8.1-5.2c-0.6-0.1-1.2-0.1-1.9-0.1c-7.4,0-11.9,6.5-13.6,12.3
	c-0.8,2-4.9,10.9-10.9,17C109.1,146.6,106.8,156.1,111.3,166.3z M189.5,145.9L189.5,145.9c-0.1,0.3-0.2,0.5-0.3,0.7
	c-0.1,0.1-0.2,0.3-0.2,0.4c-0.2,0.2-0.4,0.5-0.5,0.7c0,0.1-0.1,0.1-0.1,0.2c-0.1,0.1-0.1,0.2-0.2,0.2c-1.3,1.3-3.4,2.5-5.7,3.6
	c-0.3,0.1-0.5,0.2-0.8,0.4l-0.3,0.1c-0.2,0.1-0.4,0.2-0.5,0.2c-0.2,0.1-0.4,0.2-0.6,0.2l-0.6,0.2c-1.3,0.5-2.6,1-3.9,1.6l-0.6,0.2
	l-0.6,0.2c-0.4,0.1-0.7,0.3-1.1,0.4l-0.5,0.2l-0.5,0.2l-0.3,0.1c-0.2,0.1-0.3,0.1-0.5,0.2c-3.8,1.6-6.6,3.3-6,5.4
	c0,0.1,0,0.1,0.1,0.2c0.1,0.2,0.1,0.3,0.2,0.4c0.1,0.1,0.1,0.2,0.2,0.2c0.7,0.7,1.9,0.6,3.5,0c0.2-0.1,0.4-0.2,0.7-0.3l0.1-0.1
	c0.4-0.2,0.7-0.3,1.1-0.5c0.1,0,0.2-0.1,0.3-0.1c1.9-0.9,4.1-2.2,6.2-3.3c0.9-0.5,1.7-0.9,2.6-1.3c2-1,4-1.6,5.5-1.6
	c0.7,0,1.4,0.1,1.9,0.5l0.1,0.1c0.3,0.2,0.6,0.5,0.8,0.9c0,0.1,0.1,0.1,0.1,0.2c0.8,1.4,0.1,2.9-1.4,4.4c-1.4,1.4-3.7,2.8-6.2,4.1
	c-0.2,0.1-0.4,0.2-0.6,0.3c-7.5,3.7-17.4,6.5-17.5,6.5c-2.6,0.7-6.4,1.6-10.6,2.2l-0.6,0.1l-0.1,0c-0.5,0.1-0.9,0.1-1.4,0.2
	c-0.5,0.1-1,0.1-1.5,0.2l-0.1,0c-1.8,0.2-3.6,0.3-5.4,0.4h0c-0.6,0-1.3,0-1.9,0H141c-1,0-2-0.1-3-0.1c0,0,0,0-0.1,0
	c-0.4,0-0.7-0.1-1.1-0.1c-0.4,0-0.7-0.1-1.1-0.1c-0.2,0-0.5-0.1-0.7-0.1c-0.2,0-0.5-0.1-0.7-0.1l-0.3-0.1l0,0
	c-0.3-0.1-0.7-0.1-1-0.2c-0.2,0-0.4-0.1-0.6-0.1l-0.1,0c-0.1,0-0.2-0.1-0.3-0.1l-0.1,0l-0.3-0.1c-0.1,0-0.2-0.1-0.3-0.1l0,0
	l-0.3-0.1c-0.1,0-0.2-0.1-0.3-0.1l-0.3-0.1l-0.2-0.1c-0.2-0.1-0.4-0.1-0.6-0.2l-0.2-0.1l-0.1-0.1c-0.3-0.1-0.6-0.2-0.8-0.4l-0.2-0.1
	l0,0c-0.1,0-0.1-0.1-0.2-0.1c-0.1-0.1-0.3-0.1-0.4-0.2l0,0l-0.2-0.1c-0.3-0.2-0.6-0.4-1-0.5l-0.2-0.1c-0.1-0.1-0.2-0.1-0.3-0.2
	l-0.2-0.1l-0.2-0.2l-0.1-0.1c-0.2-0.1-0.3-0.2-0.4-0.3l-0.2-0.2c-0.1-0.1-0.2-0.2-0.3-0.2c-0.1-0.1-0.2-0.1-0.2-0.2l0,0
	c-0.1-0.1-0.2-0.1-0.2-0.2c-0.1-0.1-0.2-0.1-0.2-0.2l0,0c-0.1-0.1-0.2-0.2-0.2-0.2c-0.1-0.1-0.2-0.2-0.2-0.2
	c-0.1-0.1-0.2-0.2-0.2-0.2c-0.1-0.1-0.1-0.2-0.2-0.2l0,0c-0.1-0.1-0.1-0.2-0.2-0.2c-0.1-0.2-0.3-0.3-0.4-0.5
	c-0.1-0.2-0.3-0.4-0.4-0.6l-0.1-0.2c-0.2-0.2-0.3-0.5-0.5-0.7c-0.1-0.2-0.2-0.4-0.3-0.5c-0.1-0.1-0.1-0.2-0.2-0.3l0,0
	c-0.1-0.1-0.1-0.2-0.2-0.3c0-0.1-0.1-0.1-0.1-0.2c0-0.1-0.1-0.1-0.1-0.2l-0.1-0.1l0-0.1c-0.1-0.1-0.1-0.2-0.2-0.4
	c0-0.1-0.1-0.1-0.1-0.2l-0.1-0.2l-0.1-0.2c-0.2-0.5-0.4-0.9-0.6-1.4l-0.1-0.2c0-0.1-0.1-0.2-0.1-0.3c0-0.1,0-0.1-0.1-0.2
	c-0.1-0.3-0.2-0.6-0.3-0.8c0-0.1-0.1-0.2-0.1-0.3c-0.1-0.2-0.1-0.5-0.2-0.7c-0.1-0.3-0.1-0.5-0.2-0.8c0-0.1,0-0.1,0-0.2
	c-0.1-0.3-0.1-0.5-0.1-0.8c0-0.1,0-0.1,0-0.2l0-0.2c0-0.2,0-0.4,0-0.6c0-0.1,0-0.1,0-0.2c0-0.1,0-0.2,0-0.3c-0.1-4.3,2.1-8.4,6.7-13
	c8.2-8.2,13-20.3,13-20.3s0.1-0.5,0.4-1.2c0-0.1,0.1-0.2,0.1-0.3c0.2-0.4,0.3-0.8,0.5-1.2l0-0.1c0.2-0.3,0.3-0.7,0.5-1
	c0-0.1,0.1-0.1,0.1-0.2c0.1-0.2,0.3-0.4,0.5-0.6c0.1-0.1,0.2-0.2,0.3-0.3c0,0,0.1-0.1,0.1-0.1c0.5-0.5,1-0.9,1.6-1.1l0.1,0
	c0.1,0,0.1,0,0.2,0c0.1,0,0.1,0,0.2,0l0,0c0.1,0,0.3,0,0.4-0.1h0c0.1,0,0.1,0,0.2,0c0.1,0,0.2,0,0.3,0c0.1,0,0.2,0,0.3,0
	c0.7,0.1,1.4,0.6,2.1,1.2c0.2,0.3,0.4,0.5,0.6,0.8c0.1,0.2,0.2,0.4,0.3,0.6c0,0.1,0.1,0.2,0.1,0.3c0.1,0.2,0.2,0.5,0.3,0.7
	c0.2,0.6,0.3,1.1,0.4,1.7c0.1,0.5,0.1,1,0.1,1.5c0,0.3,0,0.6,0,0.8c-0.1,1.3-0.3,2.6-0.8,3.8c0,0.1-0.1,0.2-0.1,0.3
	c-0.1,0.2-0.2,0.4-0.3,0.7c-0.1,0.2-0.2,0.3-0.3,0.5c-0.1,0.1-0.1,0.2-0.2,0.3c-0.2,0.3-0.3,0.5-0.5,0.8l-0.1,0.2
	c-0.4,0.6-0.9,1.2-1.5,1.7c-0.5,0.5-1.1,1-1.7,1.5c-0.6,0.4-1.2,0.9-1.7,1.5c-1.5,1.6-1.9,3-1.5,4c0.1,0.2,0.1,0.3,0.2,0.5
	c0.1,0.2,0.2,0.3,0.4,0.5l0.1,0.1l0.1,0.1c0.1,0.1,0.1,0.1,0.2,0.2l0.1,0c0.1,0.1,0.3,0.2,0.5,0.3c0,0,0.1,0.1,0.1,0.1
	c0.2,0.1,0.4,0.2,0.5,0.2c0.1,0,0.1,0,0.2,0l0.1,0l0.1,0l0.1,0l0.1,0l0.1,0l0.1,0c0.1,0,0.1,0,0.2,0l0.1,0l0.1,0l0.1,0l0.1,0h0.1
	l0.1,0h0.3l0.1,0l0.1,0l0.1,0l0.1,0c0,0,0.1,0,0.1,0c0.4-0.1,0.8-0.2,1.2-0.3l0.2-0.1c0.1,0,0.2-0.1,0.3-0.1
	c0.2-0.1,0.3-0.2,0.5-0.3c0.2-0.1,0.4-0.3,0.6-0.5c0,0,0.1-0.1,0.1-0.1c0,0,0,0,0.1-0.1c0,0,0.1-0.1,0.1-0.1
	c0.3-0.4,0.6-0.7,0.8-1.2c2-3.6,4-7.1,6.2-10.5l0.3-0.5l0.3-0.5c0.1-0.2,0.3-0.5,0.4-0.7l0.1-0.2c0.5-0.8,1-1.6,1.5-2.3l0.3-0.5
	c0.6-0.9,1.2-1.8,1.8-2.6l0.3-0.4c0.7-0.9,1.3-1.8,2.1-2.7l0.3-0.3c0-0.1,0.1-0.1,0.1-0.2c0.1-0.1,0.2-0.2,0.3-0.3
	c0-0.1,0.1-0.1,0.1-0.2l0.3-0.3l0.1-0.1c0.1-0.1,0.3-0.3,0.4-0.4c0.1-0.1,0.2-0.2,0.3-0.3c0.5-0.5,1.1-1,1.7-1.4l0.1-0.1
	c0.1-0.1,0.3-0.2,0.4-0.3c2.4-1.3,4.3-1.4,5.4-0.3c0.7,0.7,1.1,1.8,1,3.4c0,0.1,0,0.1,0,0.2v0.1c0,0.1,0,0.1,0,0.2
	c0,0.1,0,0.2,0,0.3c0,0.1,0,0.2,0,0.2c0,0,0,0,0,0.1c0,0.1,0,0.1,0,0.2c0,0,0,0,0,0.1c0,0.1,0,0.2,0,0.3c0,0.1,0,0.2,0,0.3l0,0.1
	c0,0.1-0.1,0.3-0.1,0.4c-0.1,0.3-0.2,0.5-0.3,0.8c-0.2,0.3-0.3,0.7-0.5,1c-0.1,0.2-0.2,0.4-0.3,0.5c-0.1,0.2-0.2,0.4-0.4,0.5
	c-0.3,0.5-0.6,0.9-1,1.3l-0.2,0.2c-0.6,0.7-1.1,1.4-1.7,2l-0.2,0.2c-0.3,0.3-0.5,0.6-0.8,0.8l-0.2,0.2c-0.1,0.1-0.3,0.3-0.4,0.4
	c-0.1,0.1-0.3,0.3-0.4,0.4l-0.4,0.4l-0.4,0.4l-0.4,0.4c-0.3,0.3-0.6,0.6-0.8,0.9c-4.1,4.2-8.3,8.3-9.8,10.9
	c-0.1,0.2-0.2,0.3-0.3,0.5c-0.2,0.5-0.3,0.9-0.2,1.2c0,0.1,0.1,0.2,0.1,0.3c0.1,0.1,0.2,0.3,0.3,0.4c0.1,0.1,0.1,0.1,0.2,0.1
	c0.3,0.2,0.7,0.3,1,0.3h0.1l0.1,0l0.1,0l0.1,0c0,0,0,0,0,0l0.1,0l0,0l0.1,0l0,0c0,0,0.1,0,0.1,0c0,0,0.1,0,0.1,0
	c0.2-0.1,0.3-0.1,0.5-0.2c0.1,0,0.2-0.1,0.3-0.1c0,0,0.1,0,0.1-0.1l0.1-0.1c0.3-0.2,0.6-0.3,0.9-0.5l0.1-0.1c0,0,0.1-0.1,0.1-0.1
	l0.1-0.1l0.1,0l0.2-0.1c0.2-0.1,0.3-0.3,0.5-0.4l0,0l0.3-0.2c0.4-0.3,0.7-0.6,1-0.9l0.2-0.2l0,0l0.1-0.1c0.3-0.2,0.5-0.4,0.7-0.6
	l0.1-0.1c0.1-0.1,0.1-0.1,0.2-0.2l0.1-0.1l0,0l0,0l0.1-0.1l0.1-0.1l0,0l0,0l0,0l0,0l0,0l0.2-0.2l0.1-0.1c0.1-0.1,0.1-0.1,0.2-0.2
	l0.1-0.1c0,0,0,0,0.1-0.1l0.1-0.1l0.2-0.2l0.1-0.1c0.4-0.4,1-0.8,1.6-1.3l0.2-0.2l0.4-0.3l0.4-0.4c0.6-0.5,1.1-0.9,1.8-1.4l0.4-0.3
	c0.3-0.3,0.7-0.6,1.1-0.8c0.1-0.1,0.3-0.2,0.4-0.3c0.4-0.3,0.7-0.6,1.1-0.9c0.9-0.6,1.7-1.3,2.6-1.9l0.4-0.3
	c0.3-0.2,0.5-0.4,0.8-0.6l0.2-0.2c0.5-0.3,1-0.6,1.5-1l0.2-0.2l0.2-0.1c0.2-0.2,0.5-0.3,0.7-0.4l0.2-0.1l0.5-0.3l0.5-0.3l0.1-0.1
	l0.4-0.2c0.2-0.1,0.3-0.2,0.5-0.2l0.2-0.1l0.2-0.1c0.1,0,0.2-0.1,0.2-0.1c0.5-0.2,1-0.5,1.5-0.7c0.1-0.1,0.3-0.1,0.4-0.2l0.4-0.1
	c0.1,0,0.2-0.1,0.4-0.1l0,0c0.1,0,0.1,0,0.2-0.1l0,0c0.1,0,0.3-0.1,0.4-0.1h0c0.4-0.1,0.7-0.1,1.1-0.2c0.2,0,0.3,0,0.5,0h0.1
	c0.1,0,0.2,0,0.3,0c0,0,0.1,0,0.1,0h0c0,0,0.1,0,0.1,0c0,0,0.1,0,0.1,0h0c0,0,0.1,0,0.1,0c0.3,0.1,0.5,0.2,0.7,0.3
	c0.1,0.1,0.2,0.2,0.3,0.2l0,0c0,0,0,0,0.1,0.1l0,0.1c0.4,0.4,0.7,0.9,1,1.4l0,0.1c0.1,0.2,0.2,0.4,0.2,0.6c0.1,0.6,0.1,1.3-0.2,1.9
	c-0.1,0.2-0.2,0.5-0.3,0.7c-0.3,0.5-0.7,1-1.1,1.5l-0.1,0.1c-0.1,0.1-0.3,0.3-0.4,0.4c-0.1,0.1-0.1,0.1-0.2,0.2l-0.2,0.2l-0.1,0.1
	c-0.3,0.2-0.5,0.5-0.8,0.7c-0.2,0.1-0.3,0.3-0.5,0.4c-0.6,0.4-1.2,0.9-1.8,1.3c-0.4,0.3-0.7,0.5-1.1,0.7c-0.9,0.6-1.8,1.2-2.8,1.8
	c-2,1.2-4.1,2.5-6.5,3.9l-0.6,0.4c-0.7,0.4-1.3,0.8-1.9,1.2l-0.3,0.2l-0.6,0.4c-0.4,0.2-0.7,0.5-1.1,0.7l-0.3,0.2
	c-0.1,0.1-0.3,0.2-0.4,0.3l-0.1,0.1l-0.4,0.3l-0.2,0.2l-0.3,0.2l-0.2,0.2c-0.4,0.3-0.8,0.6-1.2,0.8l-0.1,0.1
	c-0.2,0.2-0.4,0.3-0.6,0.5c-0.3,0.2-0.6,0.5-0.8,0.7l-0.1,0.1c-0.1,0.1-0.1,0.1-0.2,0.2c0,0-0.1,0.1-0.1,0.1l-0.1,0.1
	c-0.1,0.1-0.3,0.3-0.4,0.4l-0.1,0.1c-0.1,0.2-0.3,0.3-0.4,0.5l-0.1,0.1c-0.1,0.1-0.2,0.3-0.2,0.4c0,0,0,0.1-0.1,0.1l0,0.1l0,0.1
	l0,0.1l0,0l0,0.1c-0.1,0.2-0.1,0.3-0.1,0.5l0,0.1l0,0.1v0.3c0,0,0,0.1,0,0.1l0,0c0,0,0,0.1,0,0.1c0,0,0,0.1,0,0.1v0c0,0,0,0.1,0,0.1
	s0,0.1,0,0.1c0,0.1,0,0.1,0.1,0.2c0,0,0,0.1,0,0.1c0,0,0,0,0,0l0,0.1l0.1,0.1c0.1,0.1,0.1,0.2,0.2,0.3l0.1,0.1l0.1,0.1
	c0,0,0,0,0,0.1l0,0l0,0l0,0c0,0,0.1,0,0.1,0.1c0,0,0,0,0.1,0c0.6,0.1,1.8-0.3,3.3-1.2c0.1,0,0.2-0.1,0.3-0.1l0.5-0.3l0.2-0.1
	c0.2-0.1,0.3-0.2,0.5-0.3l0.3-0.2c2.1-1.2,4.6-2.7,7.1-4.2c0.2-0.1,0.5-0.3,0.7-0.4l0.5-0.3c0.6-0.3,1.1-0.6,1.7-1
	c0.7-0.4,1.4-0.8,2.2-1.2l0.5-0.2c0.3-0.2,0.6-0.3,0.9-0.5c0.6-0.3,1.2-0.6,1.8-0.8l0.3-0.1l0,0c1.8-0.7,3.4-1.1,4.7-1.1
	c0.3,0,0.6,0,0.8,0.1h0c0.1,0,0.2,0,0.3,0.1h0c0.2,0.1,0.4,0.1,0.6,0.2c0.3,0.1,0.5,0.3,0.7,0.6c0.1,0.1,0.2,0.2,0.3,0.3
	c0.1,0.2,0.3,0.4,0.3,0.7c0,0.1,0.1,0.2,0.1,0.3C189.8,144.3,189.8,145.1,189.5,145.9z"/>
<path class="st2" d="M177.7,91.5V91c0-41.9-33.9-75.8-75.8-75.8c-41.9,0-75.8,33.9-75.8,75.8v0.2c0,0.1,0,0.2,0,0.3
	c0,0.2,0,0.3,0,0.5l0,0.4l0,0.1c0,0.1,0,0.1,0,0.2c0,0.1,0,0.2,0,0.3l0,0.4l0,0.5l0,0.2l0,0.5v0c0,0.2,0,0.4,0,0.6l0,0
	c0,0.2,0,0.4,0,0.6c0,0.2,0,0.3,0,0.5l0,0c0,0.1,0,0.3,0,0.4l0,0l0,0.4l0,0c0,0.1,0,0.2,0,0.2c0.1,0.7,0.1,1.4,0.2,2.2l0,0l0.1,0.5
	l0.1,0.6l0,0.4l0,0.2c0.1,0.4,0.1,0.8,0.2,1.2l0,0l0.1,0.4c0.3,1.8,0.6,3.6,1.1,5.4l0,0l0,0.1l0.1,0.4l0.1-0.1
	c2.2-2.6,5.4-4.1,8.9-4.1c2.8,0,5.7,0.9,8.6,2.8c1.9,1.2,4.1,3.4,6.3,6.1c2-2.8,4.9-4.7,8.1-5.2c0.6-0.1,1.2-0.1,1.9-0.1
	c7.4,0,11.9,6.5,13.6,12.3c0.8,2,4.9,10.9,10.9,16.9c9.2,9.2,11.5,18.7,7,28.9h0c0.3,0,0.6,0.1,0.9,0.1c0.2,0,0.4,0,0.6,0.1l0.1,0
	l0.4,0l0.4,0c0.4,0,0.7,0.1,1.1,0.1l0.3,0l0.2,0l0.1,0l0.4,0l0.1,0l0.5,0l0.5,0l0.4,0l0.1,0c0.1,0,0.2,0,0.3,0l0.1,0
	c0.6,0,1.2,0,1.8,0h0.6l0.4,0c0.1,0,0.2,0,0.3,0h0.2l0.2,0c0.1,0,0.1,0,0.2,0h0.2l0.4,0l0.5,0l0.6,0c0.2,0,0.3,0,0.5,0l0.2,0l0.3,0
	l0.2,0l0.1,0l0.5,0l0.5,0l0.5,0l0.3,0l0.4,0c0.6-0.1,1.3-0.1,1.9-0.2l0.4-0.1c-4.5-10.2-2.2-19.6,7-28.8c6.1-6.1,10.1-15,10.9-17
	c1.7-5.8,6.2-12.3,13.6-12.3c0.6,0,1.3,0.1,1.9,0.1c3.3,0.5,6.1,2.4,8.1,5.2c2.2-2.7,4.3-4.9,6.3-6.1c2.9-1.8,5.8-2.8,8.6-2.8
	c3.1,0,5.9,1.1,8.1,3.2c0-0.2,0.1-0.3,0.1-0.5l0.1-0.5c0-0.2,0.1-0.4,0.1-0.6c0.1-0.3,0.1-0.7,0.2-1c0.1-0.3,0.1-0.7,0.2-1l0-0.2
	c0-0.1,0-0.2,0.1-0.3c0-0.2,0.1-0.3,0.1-0.5l0-0.1l0.1-0.5l0.1-0.5v0c0.1-0.3,0.1-0.7,0.1-1l0-0.1l0.1-0.5l0.1-0.4l0.1-0.8l0-0.3
	l0-0.1c0-0.2,0-0.3,0.1-0.5v0c0-0.1,0-0.3,0-0.4c0.1-0.8,0.1-1.6,0.2-2.4c0-0.1,0-0.3,0-0.4v0l0-0.5l0-0.1c0-0.3,0-0.7,0-1v0l0-0.1
	c0-0.1,0-0.2,0-0.3l0,0c0-0.1,0-0.2,0-0.3l0-0.1c0-0.1,0-0.2,0-0.3l0-0.1c0-0.1,0-0.3,0-0.4V91.5z M83.2,167.2
	c6-8.8,5.6-15.4-2.7-23.6c-8.2-8.2-13-20.3-13-20.3s-1.8-7-5.9-6.3s-7.1,11.1,1.5,17.5c8.5,6.4-1.7,10.7-5,4.7
	c-3.3-6-12.3-21.4-16.9-24.4c-4.7-3-7.9-1.3-6.8,4.8c0.5,3,5.6,8.2,10.3,13c4.8,4.9,9.3,9.4,8.3,11c-1.9,3.2-8.6-3.7-8.6-3.7
	s-20.9-19-25.4-14c-4.2,4.6,2.3,8.4,12.2,14.4c0.8,0.5,1.7,1,2.6,1.6c11.4,6.9,12.3,8.7,10.7,11.3c-0.6,1-4.4-1.3-9.1-4.1
	c-8-4.8-18.5-11.1-20-5.5c-1.3,4.9,6.5,7.9,13.5,10.6c5.9,2.3,11.2,4.3,10.4,7.2c-0.8,2.9-5.2,0.5-10.1-2.2
	c-5.4-3-11.4-6.3-13.3-2.6c-3.7,7,25.4,15.2,25.7,15.3C51,174.3,74.8,179.5,83.2,167.2z M121.8,167.2c-6-8.8-5.6-15.4,2.7-23.6
	c8.2-8.2,13-20.3,13-20.3s1.8-7,5.9-6.3c4.1,0.6,7.1,11.1-1.5,17.5c-8.5,6.4,1.7,10.7,5,4.7c3.3-6,12.3-21.4,16.9-24.4
	s7.9-1.3,6.8,4.8c-0.5,3-5.6,8.2-10.3,13c-4.8,4.9-9.3,9.4-8.3,11c1.9,3.2,8.6-3.7,8.6-3.7s20.9-19,25.4-14
	c4.2,4.6-2.3,8.4-12.2,14.4c-0.9,0.5-1.7,1-2.6,1.6c-11.4,6.9-12.3,8.7-10.7,11.3c0.6,1,4.4-1.3,9.1-4.1c8-4.8,18.5-11.1,20-5.5
	c1.3,4.9-6.5,7.9-13.5,10.6c-5.9,2.3-11.2,4.3-10.4,7.2c0.8,2.9,5.2,0.5,10.1-2.2c5.4-3,11.4-6.3,13.3-2.6
	c3.7,7-25.4,15.2-25.6,15.3C154,174.3,130.2,179.5,121.8,167.2z"/>
<path class="st3" d="M126.6,70.4c1.2,0.4,2.1,1.7,2.9,2.9c1.1,1.6,2.2,3.2,3.8,2.3c1.9-1,3.5-2.6,4.5-4.5c1-1.9,1.5-4.1,1.3-6.2
	c-0.2-1.6-0.7-3.2-1.5-4.5c-0.8-1.4-1.9-2.6-3.3-3.5c-1.3-0.9-2.9-1.5-4.5-1.7c-1.6-0.2-3.2-0.1-4.8,0.3c-1.5,0.5-3,1.3-4.2,2.3
	c-1.2,1.1-2.1,2.4-2.8,3.9s-0.9,3.1-0.8,4.7c0.1,1.6,0.5,3.2,1.3,4.6c0.7,1.4,2.4,0.7,4.2,0C124.1,70.6,125.5,70,126.6,70.4z
	 M75.2,70.4c-1.2,0.4-2.1,1.7-2.9,2.9c-1.1,1.6-2.2,3.2-3.8,2.3c-2.4-1.3-4.2-3.4-5.2-5.9c-0.9-2.5-0.9-5.3,0.2-7.9
	c1-2.5,3-4.5,5.4-5.7c2.4-1.2,5.2-1.4,7.8-0.6c2.1,0.6,3.9,1.8,5.3,3.5c1.4,1.7,2.2,3.7,2.4,5.8c0.2,2.1-0.2,4.3-1.2,6.2
	c-0.7,1.4-2.4,0.7-4.2,0C77.7,70.6,76.3,70,75.2,70.4z M118.6,117.2c8.1-6.4,11.1-16.9,11.1-23.3c0-5.1-3.4-3.5-8.9-0.8l-0.3,0.2
	c-5,2.5-11.8,5.8-19.1,5.8c-7.4,0-14.1-3.3-19.1-5.8c-5.7-2.8-9.2-4.6-9.2,0.6c0,6.7,3.2,17.6,11.9,23.9c1.2-2.3,2.8-4.4,4.8-6.1
	c2-1.7,4.3-2.9,6.8-3.7c0.9-0.3,1.8,1.2,2.7,2.8c0.9,1.5,1.8,3,2.7,3c1,0,1.9-1.5,2.9-3c1-1.5,1.9-3,2.9-2.7
	C112.4,109.6,116.3,112.8,118.6,117.2z"/>
<path class="st4" d="M118.6,117.2c-4.2,3.3-9.9,5.6-17.2,5.6c-6.9,0-12.3-2-16.4-5c1.2-2.3,2.8-4.4,4.8-6.1c2-1.7,4.3-2.9,6.8-3.7
	c1.7-0.5,3.5,5.8,5.4,5.8c2,0,3.9-6.2,5.8-5.7C112.4,109.6,116.3,112.8,118.6,117.2z"/>
<path class="st5" d="M55.7,79.5c-1,0.6-2.1,1-3.2,1.2c-1.2,0.1-2.3-0.1-3.4-0.5c-0.9-0.4-1.6-0.9-2.3-1.5c-0.7-0.7-1.2-1.4-1.5-2.3
	c-0.4-1.1-0.6-2.2-0.5-3.4c0.1-1.2,0.5-2.3,1.2-3.2c0.8-1.2,1.9-2.1,3.2-2.6c1.3-0.5,2.7-0.7,4.1-0.4c1.4,0.3,2.6,0.9,3.6,1.9
	c1,1,1.7,2.3,1.9,3.6c0.3,1.4,0.1,2.8-0.4,4.1C57.8,77.6,56.9,78.7,55.7,79.5z M157.1,79.5c-1,0.6-2.1,1-3.2,1.2
	c-1.2,0.1-2.3-0.1-3.4-0.5c-0.9-0.4-1.6-0.9-2.3-1.5c-0.7-0.7-1.2-1.4-1.5-2.3c-0.4-1.1-0.6-2.2-0.5-3.4c0.1-1.2,0.5-2.3,1.2-3.2
	c0.6-0.9,1.4-1.6,2.3-2.1c0.9-0.5,1.9-0.9,2.9-1c1-0.1,2.1,0,3.1,0.4c1,0.4,1.9,0.9,2.6,1.7c1,1,1.7,2.3,1.9,3.6
	c0.3,1.4,0.1,2.8-0.4,4.1S158.3,78.7,157.1,79.5z"/>
</svg>
