<?xml version="1.0" encoding="utf-8"?>
<!-- Generator: Adobe Illustrator 24.0.2, SVG Export Plug-In . SVG Version: 6.00 Build 0)  -->
<svg version="1.1" id="Capa_1" xmlns="http://www.w3.org/2000/svg" xmlns:xlink="http://www.w3.org/1999/xlink" x="0px" y="0px"
	 viewBox="0 0 16.3 18.6" style="enable-background:new 0 0 16.3 18.6;" xml:space="preserve">
<style type="text/css">
	.st0{fill:#FFFFFF;}
	.st1{fill:#F37726;}
</style>
<path id="path0_fill_2_" class="st0" d="M0.9,9.7c0,0.6,0,0.8-0.2,0.9c-0.1,0.1-0.3,0.2-0.5,0.2l0,0.3c0.3,0,0.5-0.1,0.8-0.3
	c0.1-0.1,0.2-0.3,0.2-0.5c0.1-0.2,0.1-0.3,0-0.5V7.7H0.9V9.7L0.9,9.7z"/>
<path id="path1_fill_2_" class="st0" d="M4.2,9.5c0,0.2,0,0.5,0,0.7H3.8l0-0.4C3.7,9.9,3.6,10,3.4,10.1c-0.1,0.1-0.3,0.1-0.5,0.1
	c-0.4,0-0.8-0.2-0.8-1.1V7.7h0.4V9c0,0.5,0.1,0.8,0.5,0.8c0.1,0,0.2,0,0.2,0c0.1,0,0.1-0.1,0.2-0.1c0.1-0.1,0.1-0.1,0.1-0.2
	c0-0.1,0-0.2,0-0.2V7.7h0.4L4.2,9.5L4.2,9.5z"/>
<path id="path2_fill_2_" class="st0" d="M5,8.5c0-0.3,0-0.6,0-0.8h0.4l0,0.4C5.5,8,5.6,7.9,5.8,7.8c0.2-0.1,0.3-0.1,0.5-0.1
	c0.6,0,1,0.5,1,1.2c0,0.9-0.5,1.3-1.1,1.3c-0.1,0-0.3,0-0.4-0.1C5.6,10,5.5,9.9,5.4,9.8l0,0v1.3H5V8.5L5,8.5z M5.4,9.1
	c0,0.1,0,0.1,0,0.2c0,0.1,0.1,0.3,0.2,0.4C5.8,9.8,6,9.8,6.1,9.8c0.5,0,0.7-0.4,0.7-0.9C6.9,8.4,6.6,8,6.1,8C6,8,5.8,8.1,5.7,8.2
	C5.5,8.4,5.5,8.5,5.4,8.7V9.1z"/>
<path id="path3_fill_2_" class="st0" d="M8.1,7.7l0.5,1.4c0.1,0.2,0.1,0.4,0.2,0.5c0-0.1,0.1-0.3,0.2-0.5l0.5-1.4h0.5L9.2,9.4
	c-0.3,0.8-0.5,1.3-0.8,1.5c-0.2,0.1-0.3,0.2-0.5,0.3l-0.1-0.4c0.1,0,0.3-0.1,0.4-0.2c0.2-0.1,0.3-0.3,0.4-0.5c0,0,0-0.1,0-0.1
	c0,0,0-0.1,0-0.1L7.6,7.7L8.1,7.7L8.1,7.7z"/>
<path id="path4_fill_2_" class="st0" d="M11.1,7v0.7h0.6V8h-0.6v1.3c0,0.3,0.1,0.5,0.3,0.5c0.1,0,0.2,0,0.3,0l0,0.3
	c-0.1,0-0.3,0.1-0.4,0.1c-0.1,0-0.2,0-0.3,0c-0.1,0-0.2-0.1-0.2-0.1c-0.1-0.2-0.2-0.4-0.2-0.6V8h-0.4V7.7h0.4V7.1L11.1,7z"/>
<path id="path5_fill_2_" class="st0" d="M12.5,9c0,0.1,0,0.2,0,0.3c0,0.1,0.1,0.2,0.2,0.3c0.1,0.1,0.2,0.1,0.3,0.2
	c0.1,0,0.2,0.1,0.3,0c0.2,0,0.5,0,0.7-0.1l0.1,0.3c-0.3,0.1-0.5,0.2-0.8,0.1c-0.2,0-0.3,0-0.5-0.1c-0.2-0.1-0.3-0.1-0.4-0.3
	c-0.1-0.1-0.2-0.3-0.3-0.4c-0.1-0.2-0.1-0.3-0.1-0.5c0-0.7,0.4-1.3,1.1-1.3c0.8,0,1,0.7,1,1.1c0,0.1,0,0.1,0,0.2L12.5,9L12.5,9z
	 M13.8,8.7c0-0.1,0-0.2,0-0.3c0-0.1-0.1-0.2-0.1-0.2C13.6,8.1,13.5,8,13.5,8c-0.1,0-0.2-0.1-0.3-0.1C13,8,12.9,8,12.7,8.2
	c-0.1,0.1-0.2,0.3-0.2,0.5H13.8z"/>
<path id="path6_fill_2_" class="st0" d="M14.9,8.5c0-0.3,0-0.5,0-0.8h0.4v0.5h0c0-0.1,0.1-0.3,0.2-0.4c0.1-0.1,0.3-0.2,0.4-0.2
	c0,0,0.1,0,0.1,0v0.4c-0.1,0-0.1,0-0.2,0c-0.2,0-0.3,0.1-0.4,0.2c-0.1,0.1-0.2,0.2-0.2,0.4c0,0.1,0,0.1,0,0.2v1.3h-0.4L14.9,8.5
	L14.9,8.5z"/>
<path id="path7_fill_2_" class="st0" d="M14.7,1.1c0,0.2,0,0.4-0.2,0.6c-0.1,0.2-0.3,0.3-0.5,0.4c-0.2,0.1-0.4,0.1-0.6,0.1
	c-0.2,0-0.4-0.1-0.6-0.3c-0.2-0.1-0.3-0.3-0.3-0.6c-0.1-0.2,0-0.4,0-0.7s0.2-0.4,0.4-0.5S13.3,0,13.5,0c0.1,0,0.3,0,0.4,0.1
	c0.1,0,0.3,0.1,0.4,0.2c0.1,0.1,0.2,0.2,0.3,0.3S14.7,0.9,14.7,1.1L14.7,1.1z"/>
<path id="path8_fill_2_" class="st1" d="M8.2,14c-3,0-5.6-1.1-7-2.6c0.5,1.4,1.5,2.6,2.7,3.5c1.2,0.9,2.7,1.3,4.2,1.3
	c1.5,0,3-0.5,4.2-1.3c1.2-0.9,2.2-2.1,2.7-3.5C13.8,13,11.2,14,8.2,14z"/>
<path id="path9_fill_4_" class="st1" d="M8.2,3.8c3,0,5.6,1.1,7,2.6c-0.5-1.4-1.5-2.6-2.7-3.5C11.2,2,9.7,1.6,8.2,1.6
	c-1.5,0-3,0.5-4.2,1.3C2.7,3.8,1.7,5,1.2,6.4C2.6,4.8,5.2,3.8,8.2,3.8z"/>
<path id="path10_fill_4_" class="st0" d="M4.1,17.1c0,0.3,0,0.6-0.2,0.8c-0.1,0.2-0.4,0.4-0.6,0.6s-0.5,0.2-0.8,0.1
	c-0.3,0-0.5-0.2-0.7-0.3c-0.2-0.2-0.4-0.4-0.4-0.7c-0.1-0.3-0.1-0.6,0-0.8c0.1-0.3,0.3-0.5,0.5-0.7c0.2-0.2,0.5-0.3,0.8-0.3
	c0.2,0,0.4,0,0.5,0.1c0.2,0.1,0.3,0.2,0.5,0.3c0.1,0.1,0.2,0.3,0.3,0.4C4,16.7,4,16.9,4.1,17.1L4.1,17.1z"/>
<path id="path11_fill_4_" class="st0" d="M1.5,3.4c-0.2,0-0.3,0-0.5-0.1C1,3.2,0.8,3.1,0.8,2.9C0.7,2.8,0.7,2.6,0.7,2.4
	S0.8,2.1,0.9,2C1,1.9,1.2,1.8,1.3,1.8c0.2,0,0.3,0,0.5,0C2,1.9,2.1,2,2.2,2.1c0.1,0.1,0.1,0.3,0.2,0.4c0,0.2-0.1,0.4-0.2,0.6
	C2,3.3,1.8,3.4,1.5,3.4z"/>
</svg>
