<?xml version="1.0" encoding="utf-8"?>
<!-- Generator: Adobe Illustrator 24.0.2, SVG Export Plug-In . SVG Version: 6.00 Build 0)  -->
<svg version="1.1" id="Capa_1" xmlns:cc="http://creativecommons.org/ns#" xmlns:rdf="http://www.w3.org/1999/02/22-rdf-syntax-ns#"
	 xmlns="http://www.w3.org/2000/svg" xmlns:xlink="http://www.w3.org/1999/xlink" x="0px" y="0px" viewBox="0 0 287.6 191"
	 style="enable-background:new 0 0 287.6 191;" xml:space="preserve">
<style type="text/css">
	.st0{fill:#0081FB;}
	.st1{fill:url(#Logo1_1_);}
	.st2{fill:url(#Logo2_1_);}
</style>
<desc>Logo of Meta Platforms -- Graphic created by Detmar Owen</desc>
<path id="Logo0" class="st0" d="M31.1,126c0,11,2.4,19.4,5.6,24.5c4.1,6.7,10.3,9.5,16.6,9.5c8.1,0,15.5-2,29.8-21.8
	c11.4-15.8,24.9-38.1,34-52l15.4-23.6c10.7-16.4,23-34.6,37.2-47C181.1,5.6,193.5,0,206.1,0c21.1,0,41.1,12.2,56.5,35.1
	c16.8,25.1,25,56.7,25,89.3c0,19.4-3.8,33.6-10.3,44.9c-6.3,10.9-18.5,21.8-39.1,21.8v-31c17.6,0,22-16.2,22-34.7
	c0-26.4-6.2-55.7-19.7-76.7c-9.6-14.9-22.1-23.9-35.8-23.9c-14.9,0-26.8,11.2-40.2,31.2c-7.1,10.6-14.5,23.5-22.7,38.1l-9.1,16.1
	c-18.2,32.3-22.8,39.6-31.9,51.8C84.7,182.9,71.1,191,53.2,191c-21.3,0-34.7-9.2-43-23.1C3.3,156.6,0,141.8,0,124.9L31.1,126z"/>
<linearGradient id="Logo1_1_" gradientUnits="userSpaceOnUse" x1="62.3358" y1="101.4492" x2="260.3358" y2="91.4492" gradientTransform="matrix(1 0 0 -1 0 192)">
	<stop  offset="0" style="stop-color:#0064E1"/>
	<stop  offset="0.4" style="stop-color:#0064E1"/>
	<stop  offset="0.83" style="stop-color:#0073EE"/>
	<stop  offset="1" style="stop-color:#0082FB"/>
</linearGradient>
<path id="Logo1" class="st1" d="M24.5,37.3C38.7,15.3,59.3,0,82.8,0c13.7,0,27.2,4,41.4,15.6c15.5,12.6,32,33.5,52.6,67.8l7.4,12.3
	c17.8,29.7,28,45,33.9,52.2c7.6,9.3,13,12,19.9,12c17.6,0,22-16.2,22-34.7l27.4-0.9c0,19.4-3.8,33.6-10.3,44.9
	c-6.3,10.9-18.5,21.8-39.1,21.8c-12.8,0-24.1-2.8-36.7-14.6c-9.6-9.1-20.9-25.2-29.6-39.7l-25.8-43.1c-12.9-21.6-24.8-37.7-31.7-45
	c-7.4-7.8-16.9-17.3-32-17.3c-12.3,0-22.7,8.6-31.4,21.8L24.5,37.3z"/>
<linearGradient id="Logo2_1_" gradientUnits="userSpaceOnUse" x1="41.425" y1="53" x2="41.425" y2="126" gradientTransform="matrix(1 0 0 -1 0 192)">
	<stop  offset="0" style="stop-color:#0082FB"/>
	<stop  offset="1" style="stop-color:#0064E0"/>
</linearGradient>
<path id="Logo2" class="st2" d="M82.3,31.2c-12.3,0-22.7,8.6-31.4,21.8C38.6,71.6,31.1,99.3,31.1,126c0,11,2.4,19.4,5.6,24.5
	l-26.5,17.4C3.3,156.6,0,141.8,0,124.9c0-30.8,8.4-62.8,24.5-87.6C38.7,15.4,59.3,0,82.8,0L82.3,31.2z"/>
</svg>
