<?xml version="1.0" encoding="utf-8"?>
<!-- Generator: Adobe Illustrator 24.0.2, SVG Export Plug-In . SVG Version: 6.00 Build 0)  -->
<svg version="1.1" id="Capa_1" xmlns="http://www.w3.org/2000/svg" xmlns:xlink="http://www.w3.org/1999/xlink" x="0px" y="0px"
	 viewBox="0 0 109 40" style="enable-background:new 0 0 109 40;" xml:space="preserve">
<style type="text/css">
	.st0{fill:#43C9ED;}
	.st1{fill:#0194E2;}
</style>
<path class="st0" d="M0,31V15.5h3.5v2C4.4,15.9,6.4,15,8.1,15c2,0,3.8,0.9,4.7,2.7c1.2-2,3-2.7,5-2.7c2.8,0,5.5,1.8,5.5,5.9V31h-3.6
	v-9.5c0-1.8-0.9-3.2-3-3.2c-1.9,0-3.2,1.5-3.2,3.4V31H9.9v-9.5c0-1.8-0.9-3.2-3-3.2c-2,0-3.2,1.5-3.2,3.4V31L0,31z"/>
<path class="st0" d="M27.9,31V7.9h3.7V31H27.9z"/>
<path class="st1" d="M30.1,39.5c0.8,0.2,1.6,0.4,3.2,0.4c3,0,6.4-1.7,7.4-6.3l3.8-18.7H50l0.7-3.1H45L45.8,8
	c0.6-2.9,2.2-4.4,4.8-4.4c0.7,0,0.5,0.1,1.1,0.2l0.8-3.2c-0.8-0.2-1.5-0.4-3-0.4c-1.6,0-3.2,0.5-4.5,1.5c-1.4,1.1-2.4,2.8-2.8,4.9
	L41,11.7h-5l-0.4,3.1h4.8l-3.5,17.3c-0.4,2-1.5,4.3-4.7,4.3c-0.7,0-0.5-0.1-1.1-0.2L30.1,39.5z"/>
<path class="st1" d="M53.3,30.9h-3.7l5.1-23.3h3.7L53.3,30.9z"/>
<path class="st0" d="M71.8,16.5c-3.2-2.3-7.6-1.8-10.3,1c-2.7,2.9-2.9,7.3-0.5,10.4l2.4-1.8c-1.2-1.5-1.4-3.5-0.6-5.3
	s2.6-2.8,4.5-2.9v1.9L71.8,16.5z"/>
<path class="st1" d="M62.6,29.5c3.2,2.3,7.6,1.8,10.3-1c2.7-2.9,2.9-7.3,0.5-10.4L71,19.8c1.2,1.5,1.4,3.5,0.6,5.3
	c-0.8,1.7-2.6,2.8-4.5,2.9v-1.9L62.6,29.5z"/>
<path class="st1" d="M78.1,15.5h4L83,26.1l5.8-10.6l3.8,0.1l1.5,10.6l5.1-10.6l3.7,0.1L95.2,31h-3.7l-1.8-11.1L83.8,31h-3.8
	L78.1,15.5z"/>
<path class="st1" d="M105.1,15.8h-0.8v-0.3h1.8v0.3h-0.8V18h-0.3V15.8z"/>
<path class="st1" d="M106.6,15.5h0.4l0.5,1.3c0.1,0.2,0.1,0.3,0.2,0.5h0c0.1-0.2,0.1-0.4,0.2-0.5l0.5-1.3h0.4V18h-0.3v-1.4
	c0-0.2,0-0.5,0-0.7h0l-0.2,0.6l-0.5,1.3h-0.2l-0.5-1.3l-0.2-0.6h0c0,0.2,0,0.5,0,0.7V18h-0.3L106.6,15.5z"/>
</svg>
