<?xml version="1.0" encoding="utf-8"?>
<!-- Generator: Adobe Illustrator 24.0.2, SVG Export Plug-In . SVG Version: 6.00 Build 0)  -->
<svg version="1.1" id="Capa_1" xmlns="http://www.w3.org/2000/svg" xmlns:xlink="http://www.w3.org/1999/xlink" x="0px" y="0px"
	 viewBox="0 0 90.1 52.1" style="enable-background:new 0 0 90.1 52.1;" xml:space="preserve">
<style type="text/css">
	.st0{fill:#FFFFFF;}
	.st1{fill:#76B900;}
</style>
<path class="st0" d="M37.4,35.2v16.9h4.8V35.2H37.4z M0,35.2v16.9h4.8V39h3.7c1.2,0,2.1,0.3,2.7,0.9c0.8,0.8,1.1,2.1,1.1,4.5v7.7H17
	v-9.3c0-6.7-4.2-7.6-8.4-7.6L0,35.2z M45.1,35.2v16.9h7.7c4.1,0,5.5-0.7,6.9-2.2c1-1.1,1.7-3.4,1.7-6c0-2.4-0.6-4.5-1.5-5.8
	c-1.7-2.4-4.3-2.8-8.1-2.8L45.1,35.2z M49.8,38.9h2c3,0,4.9,1.3,4.9,4.8s-1.9,4.8-4.9,4.8h-2V38.9z M30.6,35.2l-4,13.4l-3.8-13.4
	h-5.1l5.4,16.9H30l5.5-16.9L30.6,35.2z M63.6,52.1h4.8V35.2h-4.8V52.1z M77,35.2L70.4,52H75l1.1-3H84l1,3h5.1l-6.7-16.8H77z
	 M80.1,38.3l2.9,7.9h-5.9L80.1,38.3z"/>
<path class="st1" d="M38.9,9.4V6.6h0.8c7.8-0.2,12.9,6.7,12.9,6.7S47.1,21,41.1,21c-0.8,0-1.6-0.1-2.3-0.4v-8.7
	c3,0.4,3.7,1.7,5.5,4.8l4.1-3.4c0,0-3-3.9-8-3.9C40,9.3,39.4,9.4,38.9,9.4 M38.9,0v4.3l0.8-0.1c10.9-0.4,17.9,8.9,17.9,8.9
	S49.5,23,41,23c-0.7,0-1.5-0.1-2.2-0.2v2.6c0.6,0.1,1.2,0.1,1.8,0.1c7.9,0,13.6-4,19.1-8.8c0.9,0.7,4.7,2.5,5.4,3.3
	c-5.2,4.4-17.5,7.9-24.4,7.9c-0.6,0-1.3,0-1.9-0.1v3.7h30V0H38.9z M38.9,20.5v2.3c-7.3-1.3-9.3-8.9-9.3-8.9s3.5-3.9,9.3-4.5v2.5l0,0
	c-3-0.4-5.4,2.5-5.4,2.5S34.8,19.1,38.9,20.5 M26,13.6c0,0,4.3-6.4,12.9-7V4.2c-9.6,0.8-17.8,8.9-17.8,8.9s4.7,13.5,17.8,14.8v-2.5
	C29.3,24.2,26,13.6,26,13.6L26,13.6z"/>
</svg>
