<?xml version="1.0" encoding="utf-8"?>
<!-- Generator: Adobe Illustrator 24.0.2, SVG Export Plug-In . SVG Version: 6.00 Build 0)  -->
<svg version="1.1" id="Capa_1" xmlns="http://www.w3.org/2000/svg" xmlns:xlink="http://www.w3.org/1999/xlink" x="0px" y="0px"
	 viewBox="0 0 315.8 320" style="enable-background:new 0 0 315.8 320;" xml:space="preserve">
<style type="text/css">
	.st0{fill:#0FA37F;}
</style>
<path class="st0" d="M294.9,131c7.3-21.8,4.8-45.7-6.9-65.5c-17.5-30.4-52.6-46-86.8-38.7C186,9.6,164.1-0.1,141.1,0
	c-35-0.1-66.1,22.5-76.9,55.8c-22.5,4.6-41.9,18.7-53.3,38.7C-6.7,124.8-2.7,163,20.8,189c-7.3,21.8-4.8,45.7,6.9,65.5
	c17.5,30.4,52.6,46,86.8,38.7c15.2,17.2,37.2,27,60.1,26.8c35.1,0.1,66.2-22.5,76.9-55.9c22.5-4.6,41.9-18.7,53.3-38.7
	C322.5,195.1,318.4,157,294.9,131L294.9,131z M174.7,299.1c-14,0-27.6-4.9-38.4-13.9c0.5-0.3,1.3-0.7,1.9-1.1l63.7-36.8
	c3.3-1.9,5.3-5.3,5.2-9.1v-89.8L234,164c0.3,0.1,0.5,0.4,0.5,0.7v74.4C234.5,272.2,207.7,299,174.7,299.1L174.7,299.1z M45.8,244.1
	c-7-12.1-9.6-26.4-7.2-40.2c0.5,0.3,1.3,0.8,1.9,1.1l63.7,36.8c3.2,1.9,7.2,1.9,10.5,0l77.8-44.9V228c0,0.3-0.1,0.6-0.4,0.8
	L127.7,266C99.1,282.5,62.4,272.7,45.8,244.1L45.8,244.1z M29,105c7-12.2,18-21.5,31.2-26.3c0,0.6,0,1.5,0,2.2v73.6
	c0,3.7,2,7.2,5.2,9.1l77.8,44.9L116.3,224c-0.3,0.2-0.6,0.2-0.9,0.1L51,186.9C22.4,170.3,12.5,133.7,29,105L29,105z M250.3,156.5
	l-77.8-44.9L199.4,96c0.3-0.2,0.6-0.2,0.9-0.1l64.4,37.2c28.7,16.6,38.5,53.3,21.9,81.9c-7,12.1-18,21.4-31.2,26.3v-75.8
	C255.5,161.8,253.6,158.3,250.3,156.5L250.3,156.5z M277.1,116.1c-0.5-0.3-1.3-0.8-1.9-1.1l-63.7-36.8c-3.2-1.9-7.2-1.9-10.5,0
	l-77.8,44.9V92c0-0.3,0.1-0.6,0.4-0.8L188,54c28.7-16.5,65.4-6.7,81.9,22C276.9,88.1,279.5,102.3,277.1,116.1L277.1,116.1z
	 M108.6,171.5L81.7,156c-0.3-0.1-0.5-0.4-0.5-0.7V80.9c0-33.1,26.9-60,60-59.9c14,0,27.6,4.9,38.3,13.9c-0.5,0.3-1.3,0.7-1.9,1.1
	l-63.7,36.8c-3.3,1.8-5.3,5.3-5.2,9.1L108.6,171.5L108.6,171.5z M123.2,140l34.7-20l34.7,20v40l-34.6,20l-34.7-20L123.2,140z"/>
</svg>
