<?xml version="1.0" encoding="utf-8"?>
<!-- Generator: Adobe Illustrator 24.0.2, SVG Export Plug-In . SVG Version: 6.00 Build 0)  -->
<svg version="1.1" id="Capa_1" xmlns="http://www.w3.org/2000/svg" xmlns:xlink="http://www.w3.org/1999/xlink" x="0px" y="0px"
	 viewBox="0 0 54 55" style="enable-background:new 0 0 54 55;" xml:space="preserve">
<style type="text/css">
	.st0{fill-rule:evenodd;clip-rule:evenodd;fill:#FFFFFF;}
</style>
<title>Icon-Architecture/64/Arch_AWS-SageMaker_64</title>
<desc>Created with Sketch.</desc>
<g id="Icon-Architecture_x2F_64_x2F_Arch_x5F_AWS-SageMaker_x5F_64">
	<path id="AWS-SageMaker_Icon_64_Squid" class="st0" d="M41,13c0,0.6-0.5,1-1,1c-0.6,0-1-0.5-1-1s0.5-1,1-1C40.6,12,41,12.5,41,13
		L41,13z M35,23c0-0.6,0.4-1,1-1c0.6,0,1,0.4,1,1c0,0.6-0.4,1-1,1C35.5,24,35,23.6,35,23L35,23z M35,42c0-0.6,0.4-1,1-1
		c0.6,0,1,0.4,1,1c0,0.6-0.4,1-1,1C35.5,43,35,42.6,35,42L35,42z M45,29c0,0.6-0.4,1-1,1c-0.6,0-1-0.4-1-1s0.4-1,1-1
		C44.6,28,45,28.4,45,29L45,29z M52,32.3l-5-2.9c0-0.1,0-0.3,0-0.4c0-1.7-1.3-3-3-3c-1.7,0-3,1.3-3,3s1.3,3,3,3
		c0.8,0,1.5-0.3,2.1-0.8l4.8,2.8l-4.3,2.2C46.2,36.3,46,36.6,46,37v8.4l-12,7.4l-6-3.4V43h5.2c0.4,1.2,1.5,2,2.8,2c1.7,0,3-1.3,3-3
		c0-1.7-1.3-3-3-3c-1.3,0-2.4,0.8-2.8,2H28V27c0-0.4-0.2-0.7-0.5-0.9l-5-3l-1,1.7l4.5,2.7v2.9l-6,4.6V31c0-0.3-0.1-0.6-0.4-0.8
		L15,26.5v-5l5.6-3.7c0.3-0.2,0.4-0.5,0.4-0.8v-6h-2v5.5l-5,3.3l-5-3.3V8.6l5-2.9V14h2V4.5l4-2.3l6,3.5L26,18c0,0.4,0.2,0.7,0.5,0.9
		l6.5,3.7c0,0.1,0,0.3,0,0.4c0,1.7,1.3,3,3,3c1.7,0,3-1.3,3-3c0-1.7-1.3-3-3-3c-0.8,0-1.5,0.3-2,0.8l-6-3.4l0-11.8l6-3.4l11,7.4V12
		h-2.2c-0.4-1.2-1.5-2-2.8-2c-1.7,0-3,1.4-3,3s1.4,3,3,3c1.3,0,2.5-0.9,2.9-2H45v3c0,0.4,0.2,0.7,0.5,0.9l6.5,3.7V32.3z M20,52.8
		l-3.2-1.9l5.7-4.1l-1.2-1.6L15,49.8l-7-4.3v-7.9l4.5-2.7l-1-1.7L7,35.9l-5-2.5l0-5.8l5.4-2.7l-0.9-1.8L2,25.4l0-3.8l6-3.4l5,3.3v5
		l-5.6,3.7l1.1,1.7l5.4-3.6l4,3.2v5.2l-4.6,3.5l1.2,1.6L26,33v16.4L20,52.8z M53.5,20.1L47,16.4V9c0-0.3-0.2-0.6-0.4-0.8l-12-8
		c-0.3-0.2-0.7-0.2-1.1,0L27,3.9l-6.5-3.7c-0.3-0.2-0.7-0.2-1,0l-12,7C7.2,7.3,7,7.6,7,8v8.4l-6.5,3.7C0.2,20.3,0,20.6,0,21v0.4
		c0,0,0,0,0,0.1v10.9c0,0,0,0,0,0.1V34c0,0.4,0.2,0.7,0.6,0.9L6,37.6V46c0,0.3,0.2,0.7,0.5,0.9l13,8c0.2,0.1,0.3,0.1,0.5,0.1
		c0.2,0,0.3,0,0.5-0.1l6.5-3.7l6.5,3.7c0.3,0.2,0.7,0.2,1,0l13-8c0.3-0.2,0.5-0.5,0.5-0.9v-8.4l5.4-2.7c0.3-0.2,0.6-0.5,0.6-0.9V21
		C54,20.6,53.8,20.3,53.5,20.1L53.5,20.1z"/>
</g>
</svg>
