<?xml version="1.0" encoding="utf-8"?>
<!-- Generator: Adobe Illustrator 24.0.2, SVG Export Plug-In . SVG Version: 6.00 Build 0)  -->
<svg version="1.1" id="Capa_1" xmlns="http://www.w3.org/2000/svg" xmlns:xlink="http://www.w3.org/1999/xlink" x="0px" y="0px"
	 viewBox="0 0 43.4 44" style="enable-background:new 0 0 43.4 44;" xml:space="preserve">
<style type="text/css">
	.st0{fill:#29B5E8;}
</style>
<title>Group</title>
<desc>Created with Sketch.</desc>
<g id="Page-1">
	<g id="Group" transform="translate(-0.002027, 0.531250)">
		<path id="Path" class="st0" d="M37.3,33.1l-9.2-5.3c-1.3-0.7-2.9-0.3-3.7,1c-0.3,0.5-0.4,1.1-0.3,1.6v10.4c0,1.5,1.2,2.7,2.7,2.7
			c1.5,0,2.7-1.2,2.7-2.7v-6l5.1,3c1.3,0.7,2.9,0.3,3.7-1C39,35.5,38.6,33.9,37.3,33.1"/>
		<path id="Path2" class="st0" d="M14.4,21.8c0-1-0.5-1.8-1.3-2.3L4,14.1c-0.4-0.2-0.9-0.4-1.3-0.4c-0.9,0-1.8,0.5-2.3,1.3
			c-0.7,1.3-0.3,2.9,1,3.6l5.3,3.1l-5.3,3.1c-0.6,0.4-1,0.9-1.2,1.6c-0.2,0.7-0.1,1.4,0.3,2c0.5,0.8,1.3,1.3,2.3,1.3
			c0.5,0,0.9-0.1,1.3-0.4l9.2-5.3C13.9,23.6,14.5,22.7,14.4,21.8"/>
		<path id="Path3" class="st0" d="M6,10.4l9.2,5.3c1.1,0.6,2.4,0.4,3.2-0.4c0.5-0.5,0.9-1.2,0.9-2V2.7c0-1.5-1.2-2.7-2.7-2.7
			c-1.5,0-2.7,1.2-2.7,2.7v6l-5.2-3C7.4,5,5.8,5.4,5,6.7C4.3,8,4.7,9.6,6,10.4"/>
		<path id="Combined-Shape" class="st0" d="M26.7,22.2c0,0.2-0.1,0.5-0.3,0.6l-3.6,3.6c-0.1,0.1-0.4,0.3-0.6,0.3h-0.9
			c-0.2,0-0.5-0.1-0.6-0.3l-3.6-3.6c-0.1-0.1-0.3-0.4-0.3-0.6v-0.9c0-0.2,0.1-0.5,0.3-0.6l3.6-3.6c0.1-0.1,0.4-0.3,0.6-0.3h0.9
			c0.2,0,0.5,0.1,0.6,0.3l3.6,3.6c0.1,0.1,0.3,0.4,0.3,0.6V22.2z M23.4,21.8L23.4,21.8c0-0.2-0.1-0.4-0.2-0.5l-1.1-1.1
			C22,20.1,21.8,20,21.7,20h0c-0.1,0-0.4,0.1-0.5,0.2l-1.1,1.1c-0.1,0.1-0.2,0.3-0.2,0.5v0c0,0.2,0.1,0.4,0.2,0.5l1.1,1.1
			c0.1,0.1,0.3,0.2,0.5,0.2h0c0.2,0,0.4-0.1,0.5-0.2l1.1-1.1C23.3,22.1,23.4,21.9,23.4,21.8z"/>
		<path id="Path4" class="st0" d="M28.1,15.7l9.2-5.3c1.3-0.7,1.7-2.4,1-3.7c-0.7-1.3-2.4-1.7-3.7-1l-5.1,3v-6
			c0-1.5-1.2-2.7-2.7-2.7c-1.5,0-2.7,1.2-2.7,2.7v10.4c-0.1,0.5,0.1,1.1,0.3,1.6C25.2,16,26.8,16.4,28.1,15.7"/>
		<path id="Path5" class="st0" d="M17,27.5c-0.6-0.1-1.3,0-1.8,0.3L6,33.1c-1.3,0.7-1.7,2.4-1,3.7c0.7,1.3,2.4,1.7,3.7,1l5.2-3v6
			c0,1.5,1.2,2.7,2.7,2.7c1.5,0,2.7-1.2,2.7-2.7V30.2C19.3,28.8,18.3,27.7,17,27.5"/>
		<path id="Path6" class="st0" d="M43,15.1c-0.7-1.3-2.4-1.7-3.7-1l-9.2,5.3c-0.9,0.5-1.4,1.4-1.3,2.4c0,0.9,0.5,1.9,1.3,2.4
			l9.2,5.3c1.3,0.7,2.9,0.3,3.7-1c0.7-1.3,0.3-2.9-1-3.7l-5.2-3l5.2-3C43.3,18,43.7,16.4,43,15.1"/>
	</g>
</g>
</svg>
