<?xml version="1.0" encoding="utf-8"?>
<!-- Generator: Adobe Illustrator 24.0.2, SVG Export Plug-In . SVG Version: 6.00 Build 0)  -->
<svg version="1.1" id="Capa_1" xmlns="http://www.w3.org/2000/svg" xmlns:xlink="http://www.w3.org/1999/xlink" x="0px" y="0px"
	 viewBox="0 0 37 31.8" style="enable-background:new 0 0 37 31.8;" xml:space="preserve">
<style type="text/css">
	.st0{fill:#FFFFFF;filter:url(#Adobe_OpacityMaskFilter);}
	.st1{mask:url(#mask0_668_23655_1_);}
	.st2{fill:#FFFFFF;filter:url(#Adobe_OpacityMaskFilter_1_);}
	.st3{mask:url(#mask1_668_23655_1_);}
	.st4{fill:url(#SVGID_1_);}
	.st5{fill:#0B23A9;}
</style>
<defs>
	<filter id="Adobe_OpacityMaskFilter" filterUnits="userSpaceOnUse">
		<feColorMatrix  type="matrix" values="1 0 0 0 0  0 1 0 0 0  0 0 1 0 0  0 0 0 1 0"/>
	</filter>
</defs>
<mask maskUnits="userSpaceOnUse" id="mask0_668_23655_1_">
	<path class="st0" d="M171.5,0.4H0.7v31.7h170.7V0.4z"/>
</mask>
<g class="st1">
</g>
<g>
	<g>
		<defs>
			<filter id="Adobe_OpacityMaskFilter_1_" filterUnits="userSpaceOnUse" x="0" y="0" width="37" height="31.9">
				<feColorMatrix  type="matrix" values="1 0 0 0 0  0 1 0 0 0  0 0 1 0 0  0 0 0 1 0"/>
			</filter>
		</defs>
		<mask maskUnits="userSpaceOnUse" x="0" y="0" width="37" height="31.9" id="mask1_668_23655_1_">
			<path class="st2" d="M177.1,0H0v32h177.1V0z"/>
		</mask>
		<g class="st3">
			
				<linearGradient id="SVGID_1_" gradientUnits="userSpaceOnUse" x1="10.4121" y1="0.4714" x2="30.4436" y2="22.4904" gradientTransform="matrix(1 0 0 -1 0 31.9921)">
				<stop  offset="0" style="stop-color:#09DBF0"/>
				<stop  offset="1" style="stop-color:#0B23A9"/>
			</linearGradient>
			<path class="st4" d="M19.6,8.8l0,4.5c0,6.1-4.9,11.1-10.9,11.1c-2.4,0-4.6-0.7-6.3-2c3.2,5.7,9.2,9.6,16.2,9.6
				c10,0,18.3-8.2,18.5-18.4l0,0c0-0.2,0-4.5,0-4.7C37,3.9,33.1,0,28.3,0C23.5,0,19.6,3.9,19.6,8.8z"/>
			<path class="st5" d="M8.7,4.5C3.9,4.5,0,8.4,0,13.2C0,18.1,3.9,22,8.7,22c4.8,0,8.7-3.9,8.7-8.7C17.4,8.4,13.5,4.5,8.7,4.5z"/>
		</g>
	</g>
</g>
</svg>
