<?xml version="1.0" encoding="utf-8"?>
<!-- Generator: Adobe Illustrator 24.0.2, SVG Export Plug-In . SVG Version: 6.00 Build 0)  -->
<svg version="1.1" id="Capa_1" xmlns="http://www.w3.org/2000/svg" xmlns:xlink="http://www.w3.org/1999/xlink" x="0px" y="0px"
	 viewBox="0 0 42 42.1" style="enable-background:new 0 0 42 42.1;" xml:space="preserve">
<style type="text/css">
	.st0{fill:#FFCC33;}
</style>
<path class="st0" d="M0,13.6c0,2.4,1.9,4.3,4.3,4.3s4.3-1.9,4.3-4.3S6.7,9.3,4.3,9.3C1.9,9.2,0,11.2,0,13.6z"/>
<path class="st0" d="M0,35.3c0,2.4,1.9,4.3,4.3,4.3s4.3-1.9,4.3-4.3c0-2.4-1.9-4.3-4.3-4.3C1.9,30.9,0,32.9,0,35.3z"/>
<path class="st0" d="M1.6,24.4c0,1.5,1.2,2.7,2.7,2.7S7,25.9,7,24.4s-1.2-2.7-2.7-2.7C2.8,21.7,1.6,22.9,1.6,24.4z"/>
<path class="st0" d="M1.6,2.7c0,1.5,1.2,2.7,2.7,2.7S7,4.2,7,2.7S5.8,0,4.3,0C2.8,0,1.6,1.2,1.6,2.7z"/>
<path class="st0" d="M16.7,28.4c0,2.4,1.9,4.3,4.3,4.3s4.3-1.9,4.3-4.3s-1.9-4.3-4.3-4.3S16.7,26,16.7,28.4z"/>
<path class="st0" d="M18.3,39.3c0,1.5,1.2,2.7,2.7,2.7s2.7-1.2,2.7-2.7s-1.2-2.7-2.7-2.7S18.3,37.8,18.3,39.3z"/>
<path class="st0" d="M18.3,17.6c0,1.5,1.2,2.7,2.7,2.7s2.7-1.2,2.7-2.7s-1.2-2.7-2.7-2.7S18.3,16.1,18.3,17.6z"/>
<path class="st0" d="M18.3,6.7c0,1.5,1.2,2.7,2.7,2.7s2.7-1.2,2.7-2.7S22.5,4,21,4C19.5,4,18.3,5.2,18.3,6.7z"/>
<path class="st0" d="M33.3,13.6c0,2.4,1.9,4.3,4.3,4.3c2.4,0,4.3-1.9,4.3-4.3S40,9.3,37.6,9.3C35.3,9.2,33.3,11.2,33.3,13.6z"/>
<path class="st0" d="M34.9,2.7c0,1.5,1.2,2.7,2.7,2.7s2.7-1.2,2.7-2.7S39.1,0,37.6,0C36.2,0,34.9,1.2,34.9,2.7z"/>
<path class="st0" d="M34.9,24.4c0,1.5,1.2,2.7,2.7,2.7s2.7-1.2,2.7-2.7s-1.2-2.7-2.7-2.7C36.2,21.7,34.9,22.9,34.9,24.4z"/>
<path class="st0" d="M34.9,35.3c0,1.5,1.2,2.7,2.7,2.7s2.7-1.2,2.7-2.7s-1.2-2.7-2.7-2.7C36.2,32.6,34.9,33.8,34.9,35.3z"/>
</svg>
