<?xml version="1.0" encoding="utf-8"?>
<!-- Generator: Adobe Illustrator 24.0.2, SVG Export Plug-In . SVG Version: 6.00 Build 0)  -->
<svg version="1.1" id="Capa_1" xmlns="http://www.w3.org/2000/svg" xmlns:xlink="http://www.w3.org/1999/xlink" x="0px" y="0px"
	 viewBox="0 0 81 78.5" style="enable-background:new 0 0 81 78.5;" xml:space="preserve">
<style type="text/css">
	.st0{fill:url(#SVGID_1_);}
	.st1{fill:url(#SVGID_2_);}
	.st2{fill:#36E3A6;}
	.st3{fill:#BAAEFF;}
</style>
<g>
	
		<linearGradient id="SVGID_1_" gradientUnits="userSpaceOnUse" x1="25.5977" y1="20.45" x2="64.8788" y2="20.45" gradientTransform="matrix(1 0 0 -1 0 79)">
		<stop  offset="0" style="stop-color:#0F5253"/>
		<stop  offset="1" style="stop-color:#1A3859"/>
	</linearGradient>
	<path class="st0" d="M64.4,63.2c-2,3.5-7.7,9.4-23.9,9.4c-3.7,0-6.9-0.3-9.6-0.8c-2.4-1.7-3.8-3.6-4.6-5.1
		c-0.9-1.6-0.9-3.4-0.2-5.1l6.1-13.9c2.6,0.5,5.4,0.8,8.4,0.8c7,0,13.1-1.5,17.3-4l6.7,15.4C65,61,65,62.2,64.4,63.2z"/>
	<linearGradient id="SVGID_2_" gradientUnits="userSpaceOnUse" x1="35.2797" y1="48.995" x2="58.4625" y2="10.4537">
		<stop  offset="0" style="stop-color:#1FC7FF"/>
		<stop  offset="0.5" style="stop-color:#9780FF"/>
		<stop  offset="0.9963" style="stop-color:#0066FF"/>
	</linearGradient>
	<path class="st1" d="M55,37.9c-2,2.8-7.7,4.8-14.5,4.8c-4.4,0-8.4-0.9-11.2-2.3l4.9-11.3c1.9-0.4,4-0.6,6.3-0.6
		c4.5,0,8.6,0.9,11.4,2.4l1.7,4c0,0.1,0.1,0.2,0.1,0.3L55,37.9z"/>
	<path class="st2" d="M30.4,7.7c0,0.1,0,0.1,0,0.2V7.3C30.4,7.5,30.4,7.6,30.4,7.7z M30.4,7.2L30.4,7.2C30.4,7.3,30.4,7.3,30.4,7.2
		L30.4,7.2z"/>
	<path class="st2" d="M50.6,7.2L50.6,7.2C50.6,7.3,50.6,7.3,50.6,7.2C50.6,7.3,50.6,7.3,50.6,7.2z M50.6,7.3v0.6c0-0.1,0-0.1,0-0.2
		C50.6,7.6,50.6,7.5,50.6,7.3z"/>
	<path class="st3" d="M68.1,58.3L50.6,18.2V7.9V7.3l0,0l0,0c0,0,0,0,0-0.1c-0.3-2.1-2.3-3.8-5.5-4.7c-2.8-0.7-6.3-0.7-9,0
		c-3.3,0.8-5.3,2.6-5.6,4.7v0.1v0.6v10.2L12.9,58.3c-1,2.2-0.9,4.7,0.3,6.8c2.4,4.3,9.1,11.4,27.3,11.4S65.4,69.3,67.8,65
		C69,63,69.1,60.5,68.1,58.3z M64.4,63.2c-2,3.5-7.7,9.4-23.9,9.4c-3.7,0-6.9-0.3-9.6-0.8c-9-1.8-12.8-5.9-14.3-8.6
		c-0.6-1-0.6-2.2-0.1-3.4L34.3,19V7.7c0.1-0.3,0.9-1,2.7-1.4c2.1-0.6,4.9-0.6,7,0c1.9,0.5,2.6,1.2,2.7,1.4V19l5.2,11.9l1.7,4
		c0,0.1,0.1,0.2,0.1,0.3l1.2,2.8l2.9,6.6L64.5,60C65,61,65,62.2,64.4,63.2z"/>
</g>
</svg>
