<?xml version="1.0" encoding="utf-8"?>
<!-- Generator: Adobe Illustrator 24.0.2, SVG Export Plug-In . SVG Version: 6.00 Build 0)  -->
<svg version="1.1" id="Capa_1" xmlns="http://www.w3.org/2000/svg" xmlns:xlink="http://www.w3.org/1999/xlink" x="0px" y="0px"
	 viewBox="0 0 81 78.5" style="enable-background:new 0 0 81 78.5;" xml:space="preserve">
<style type="text/css">
	.st0{fill:url(#SVGID_1_);}
	.st1{fill:url(#SVGID_2_);}
	.st2{fill:#BAAEFF;}
</style>
<g>
	
		<linearGradient id="SVGID_1_" gradientUnits="userSpaceOnUse" x1="40.75" y1="9.5048" x2="40.75" y2="53.3137" gradientTransform="matrix(1 0 0 -1 0 79)">
		<stop  offset="0" style="stop-color:#0F5253"/>
		<stop  offset="1" style="stop-color:#1A3859"/>
	</linearGradient>
	<path class="st0" d="M31.4,45.9c2.2-5.1,4.8-12.4,6.5-21.5H20.2c-1.3,0-2.4,1.1-2.4,2.4v43.6h46V24.6h-0.1
		c-3.3,6.1-4.9,14-5.5,16.5c-10.5,1.7-18.9,4.7-24.6,7.2L31.4,45.9z"/>
	<linearGradient id="SVGID_2_" gradientUnits="userSpaceOnUse" x1="15.3938" y1="80.8784" x2="65.9843" y2="-8.1121">
		<stop  offset="0" style="stop-color:#1FC7FF"/>
		<stop  offset="0.5" style="stop-color:#9780FF"/>
		<stop  offset="0.9963" style="stop-color:#0066FF"/>
	</linearGradient>
	<path class="st1" d="M65.7,48.1c-1.1,0-1.9,0.9-1.9,1.9v18c0,1.3-1.1,2.3-2.3,2.3H12c-1.3,0-2.3-1.1-2.3-2.3V18.6
		c0-1.3,1.1-2.3,2.3-2.3h19.4c1.1,0,1.9-0.9,1.9-1.9c0-1.1-0.9-1.9-1.9-1.9H12c-3.4,0-6.2,2.8-6.2,6.2v49.5c0,3.4,2.8,6.2,6.2,6.2
		h49.5c3.4,0,6.2-2.8,6.2-6.2V50C67.7,49,66.8,48.1,65.7,48.1z"/>
	<path class="st2" d="M71.2,16.6l4.1-4.1l-8.3-8.3l-4.1,4.1l-1.7-1.7c-0.2-0.2-0.6-0.4-0.9-0.4c-0.3,0-0.7,0.1-0.9,0.4L55.2,11
		c-0.4,0.4-0.5,1-0.2,1.5c-0.1,0-0.2,0.1-0.3,0.1C47,17.3,37.1,18.4,37,18.4c-0.7,0.1-1.2,0.6-1.3,1.3c-0.2,1.6-0.5,3.2-0.8,4.7
		C31.4,42,24.6,52.8,24.6,52.9c-0.4,0.6-0.3,1.4,0.2,1.9c0.3,0.3,0.7,0.5,1.1,0.5c0.3,0,0.6-0.1,0.8-0.2c0.1-0.1,12.8-8,33.1-11.1
		c0.7-0.1,1.2-0.7,1.3-1.3c0-0.1,0.6-5.3,2.7-11.1c0.8-2.2,1.8-4.5,3.1-6.6c0.1-0.1,0.1-0.2,0.2-0.3c0.2,0.1,0.4,0.2,0.6,0.2
		c0.3,0,0.6-0.1,0.9-0.4l4.3-4.3c0.2-0.2,0.4-0.6,0.4-0.9s-0.1-0.7-0.4-0.9L71.2,16.6z M58.2,41.1c-10.5,1.7-18.9,4.6-24.6,7.1
		l11.5-11.6c0.8,0.2,1.7-0.1,2.4-0.7c1-1,1-2.7,0-3.8c-1-1-2.7-1-3.8,0c-0.6,0.6-0.9,1.5-0.7,2.4L31.4,46c2.2-5.1,4.8-12.5,6.5-21.5
		c0.2-1,0.4-2,0.6-3.1c2.8-0.4,10.2-1.9,16.7-5.5l8.5,8.5c0,0,0,0,0,0.1C60.1,30.9,58.7,38.3,58.2,41.1z M67.7,21.7l-9.9-9.9
		l2.5-2.5l9.9,9.9L67.7,21.7z"/>
</g>
</svg>
