<?xml version="1.0" encoding="utf-8"?>
<!-- Generator: Adobe Illustrator 24.0.2, SVG Export Plug-In . SVG Version: 6.00 Build 0)  -->
<svg version="1.1" id="Capa_1" xmlns="http://www.w3.org/2000/svg" xmlns:xlink="http://www.w3.org/1999/xlink" x="0px" y="0px"
	 viewBox="0 0 92.6 89.6" style="enable-background:new 0 0 92.6 89.6;" xml:space="preserve">
<style type="text/css">
	.st0{fill:url(#SVGID_1_);}
	.st1{fill:#061D1E;}
	.st2{fill:url(#SVGID_2_);}
	.st3{fill:none;}
	.st4{fill:url(#SVGID_3_);}
	.st5{fill:#BAAEFF;}
	.st6{fill:url(#SVGID_4_);}
	.st7{fill:url(#SVGID_5_);}
	.st8{fill:url(#SVGID_6_);}
	.st9{fill:url(#SVGID_7_);}
	.st10{fill:url(#SVGID_8_);}
	.st11{fill:url(#SVGID_9_);}
	.st12{fill:url(#SVGID_10_);}
</style>
<g>
	<polygon points="35.6,12.5 28.4,12.5 28.4,5.2 	"/>
	<polygon points="85.7,12.3 78.5,12.3 78.5,5 	"/>
	<polygon points="35.6,63 28.4,63 28.4,55.7 	"/>
	<polygon points="85.7,62.4 78.5,62.4 78.5,55.1 	"/>
	
		<linearGradient id="SVGID_1_" gradientUnits="userSpaceOnUse" x1="5.0741" y1="80.8225" x2="32.4356" y2="53.4609" gradientTransform="matrix(1 0 0 -1 0 89.5532)">
		<stop  offset="0" style="stop-color:#0F5253"/>
		<stop  offset="1" style="stop-color:#1A3859"/>
	</linearGradient>
	<path class="st0" d="M31.5,35.8H4.9V4.2h22.9v8.6l8.8,0.2v17.8C36.5,33.5,34.3,35.8,31.5,35.8z"/>
	<path class="st1" d="M83.8,35.8H56V4.2h22.9v8.6l8.8,0.2v19.1C87.5,34.1,85.9,35.8,83.8,35.8z"/>
	<path class="st1" d="M33.1,86.1H5.2V54.6h22.9v8.6l8.8,0.2v19.1C36.8,84.5,35.1,86.1,33.1,86.1z"/>
	
		<linearGradient id="SVGID_2_" gradientUnits="userSpaceOnUse" x1="56.1858" y1="30.8141" x2="82.6565" y2="4.3434" gradientTransform="matrix(1 0 0 -1 0 89.5532)">
		<stop  offset="0" style="stop-color:#0F5253"/>
		<stop  offset="1" style="stop-color:#1A3859"/>
	</linearGradient>
	<path class="st2" d="M83.8,85.7H56V54.1h22.9v8.6l8.8,0.2V82C87.5,84.1,85.9,85.7,83.8,85.7z"/>
	<path class="st3" d="M33,85.7H5.1V54.1H28v8.6l8.8,0.2V82C36.7,84.1,35,85.7,33,85.7z"/>
	<linearGradient id="SVGID_3_" gradientUnits="userSpaceOnUse" x1="2.0532" y1="10.003" x2="62.2676" y2="49.4914">
		<stop  offset="0" style="stop-color:#1FC7FF"/>
		<stop  offset="0.5" style="stop-color:#9780FF"/>
		<stop  offset="0.9963" style="stop-color:#0066FF"/>
	</linearGradient>
	<path class="st4" d="M37.4,10.8L29.2,3c-0.6-0.6-1.4-0.9-2.2-0.9H6.6c-1.8,0-3.3,1.5-3.3,3.3v28.5c0,1.8,1.5,3.3,3.3,3.3h18.7v-3
		H6.6c-0.2,0-0.3-0.1-0.3-0.3V5.4c0-0.2,0.1-0.3,0.3-0.3h19.2v6c0,1.8,1.5,3.3,3.3,3.3h6.3v9.8h3V13.3C38.4,12.3,38,11.4,37.4,10.8z
		 M29.1,11.4c-0.2,0-0.3-0.1-0.3-0.3V6.7l4.9,4.7H29.1z"/>
	<g>
		<path class="st5" d="M88.2,10.8L80,3c-0.6-0.6-1.4-0.9-2.2-0.9H57.5c-1.8,0-3.3,1.5-3.3,3.3v28.5c0,1.8,1.5,3.3,3.3,3.3h8.4v-3
			h-8.4c-0.2,0-0.3-0.1-0.3-0.3V5.4c0-0.2,0.1-0.3,0.3-0.3h19.2v6c0,1.8,1.5,3.3,3.3,3.3h6.3v19.5c0,0.2-0.1,0.3-0.3,0.3h-7.3v3H86
			c1.8,0,3.3-1.5,3.3-3.3V13.2C89.2,12.3,88.8,11.4,88.2,10.8z M79.9,11.4c-0.2,0-0.3-0.1-0.3-0.3V6.7l4.9,4.7H79.9z"/>
	</g>
	<g>
		<path class="st5" d="M88.2,61.1L80,53.3c-0.6-0.6-1.4-0.9-2.2-0.9H57.5c-1.8,0-3.3,1.5-3.3,3.3v28.5c0,1.8,1.5,3.3,3.3,3.3H86
			c1.8,0,3.3-1.5,3.3-3.3V63.4C89.2,62.6,88.9,61.7,88.2,61.1z M84.6,61.7h-4.6c-0.2,0-0.3-0.1-0.3-0.3V57L84.6,61.7z M86.3,84.2
			c0,0.2-0.1,0.3-0.3,0.3H57.5c-0.2,0-0.3-0.1-0.3-0.3V55.7c0-0.2,0.1-0.3,0.3-0.3h19.2v6c0,1.8,1.5,3.3,3.3,3.3h6.3L86.3,84.2
			L86.3,84.2z"/>
	</g>
	<g>
		<path class="st5" d="M38.4,67.7v-4.2c0-0.9-0.3-1.7-1-2.3l-8.2-7.7c-0.6-0.6-1.4-0.9-2.2-0.9H6.7c-1.8,0-3.3,1.5-3.3,3.3v28.5
			c0,1.8,1.5,3.3,3.3,3.3h28.5c1.8,0,3.3-1.5,3.3-3.3v-2.8h-3v2.8c0,0.2-0.1,0.3-0.3,0.3H6.7c-0.2,0-0.3-0.1-0.3-0.3V55.8
			c0-0.2,0.1-0.3,0.3-0.3h19.2v6c0,1.8,1.5,3.3,3.3,3.3h6.3v3h2.9V67.7z M29.1,61.7c-0.2,0-0.3-0.1-0.3-0.3V57l4.9,4.7H29.1z"/>
	</g>
	<path class="st5" d="M78,28.4c-0.3,0.3-0.7,0.5-1.1,0.5c-0.3,0-0.7-0.1-1-0.4l-2.6-2.3v14.5c0,0.8-0.6,1.5-1.5,1.5
		c-0.8,0-1.5-0.6-1.5-1.5V26.3l-2.3,2.1c-0.6,0.5-1.5,0.5-2.1-0.1c-0.5-0.6-0.5-1.5,0.1-2.1l4.6-4.2l0.2-0.2
		c0.2-0.2,0.5-0.3,0.7-0.3c0.1,0,0.2,0,0.3,0s0.3,0.1,0.4,0.1c0.1,0.1,0.2,0.1,0.3,0.2c0,0,0.1,0,0.1,0.1c0.1,0.1,0.1,0.1,0.2,0.1
		l5,4.5C78.5,26.9,78.5,27.8,78,28.4z"/>
	
		<linearGradient id="SVGID_4_" gradientUnits="userSpaceOnUse" x1="70.9763" y1="67.7089" x2="71.1635" y2="67.9966" gradientTransform="matrix(1 0 0 -1 0 89.5532)">
		<stop  offset="0" style="stop-color:#42ED9E"/>
		<stop  offset="0.9963" style="stop-color:#16C6BC"/>
	</linearGradient>
	<path class="st6" d="M71.2,21.6c-0.1,0.1-0.2,0.1-0.3,0.2C71,21.7,71.1,21.6,71.2,21.6z"/>
	
		<linearGradient id="SVGID_5_" gradientUnits="userSpaceOnUse" x1="70.7427" y1="67.5462" x2="70.8865" y2="67.7674" gradientTransform="matrix(1 0 0 -1 0 89.5532)">
		<stop  offset="0" style="stop-color:#42ED9E"/>
		<stop  offset="0.9963" style="stop-color:#16C6BC"/>
	</linearGradient>
	<path class="st7" d="M70.9,21.8c-0.1,0.1-0.2,0.1-0.2,0.2L70.9,21.8C70.9,21.8,70.9,21.8,70.9,21.8z"/>
	
		<linearGradient id="SVGID_6_" gradientUnits="userSpaceOnUse" x1="71.2888" y1="67.9151" x2="71.4675" y2="68.1899" gradientTransform="matrix(1 0 0 -1 0 89.5532)">
		<stop  offset="0" style="stop-color:#42ED9E"/>
		<stop  offset="0.9963" style="stop-color:#16C6BC"/>
	</linearGradient>
	<path class="st8" d="M71.6,21.5c-0.1,0-0.3,0.1-0.4,0.1C71.3,21.5,71.5,21.5,71.6,21.5z"/>
	<path class="st5" d="M41.3,74.4c0,0.8-0.6,1.5-1.5,1.5H25.5l2.1,2.3c0.5,0.6,0.5,1.5-0.1,2.1c-0.3,0.3-0.6,0.4-1,0.4
		c-0.4,0-0.8-0.2-1.1-0.5l-4.1-4.5L21,75.4c-0.2-0.2-0.3-0.5-0.3-0.7c0-0.1,0-0.2,0-0.3s0.1-0.2,0.1-0.4c0.1-0.2,0.2-0.4,0.3-0.6
		l4.5-5c0.5-0.6,1.5-0.6,2.1-0.1c0.6,0.5,0.6,1.5,0.1,2.1L25.4,73h14.5C40.7,72.9,41.3,73.6,41.3,74.4z"/>
	
		<linearGradient id="SVGID_7_" gradientUnits="userSpaceOnUse" x1="20.9478" y1="14.1514" x2="21.074" y2="14.3452" gradientTransform="matrix(1 0 0 -1 0 89.5532)">
		<stop  offset="0" style="stop-color:#42ED9E"/>
		<stop  offset="0.9963" style="stop-color:#16C6BC"/>
	</linearGradient>
	<path class="st9" d="M21.2,75.6c-0.2-0.1-0.3-0.3-0.4-0.6c0.1,0.1,0.1,0.2,0.2,0.3L21.2,75.6z"/>
	
		<linearGradient id="SVGID_8_" gradientUnits="userSpaceOnUse" x1="20.6505" y1="14.6208" x2="20.7852" y2="14.8279" gradientTransform="matrix(1 0 0 -1 0 89.5532)">
		<stop  offset="0" style="stop-color:#42ED9E"/>
		<stop  offset="0.9963" style="stop-color:#16C6BC"/>
	</linearGradient>
	<path class="st10" d="M20.6,74.6c0,0.1,0.1,0.3,0.1,0.4C20.7,74.9,20.6,74.8,20.6,74.6z"/>
	
		<linearGradient id="SVGID_9_" gradientUnits="userSpaceOnUse" x1="45.5193" y1="46.2852" x2="45.9227" y2="46.9054" gradientTransform="matrix(1 0 0 -1 0 89.5532)">
		<stop  offset="0" style="stop-color:#2AE3E5"/>
		<stop  offset="0.9963" style="stop-color:#479AF8"/>
	</linearGradient>
	<path class="st11" d="M45.8,42.5c0.1,0.3,0,0.5-0.1,0.8c0.1-0.2,0.1-0.3,0.1-0.5V42.5z"/>
	<linearGradient id="SVGID_10_" gradientUnits="userSpaceOnUse" x1="33.2286" y1="30.8175" x2="64.863" y2="66.2698">
		<stop  offset="0" style="stop-color:#1FC7FF"/>
		<stop  offset="0.5" style="stop-color:#9780FF"/>
		<stop  offset="0.9963" style="stop-color:#0066FF"/>
	</linearGradient>
	<path class="st12" d="M46.1,36.4l-0.3,6.2v0.3c0,0.2-0.1,0.3-0.1,0.5c-0.1,0.1-0.1,0.2-0.1,0.2c-0.1,0.2-0.2,0.3-0.3,0.3
		c-0.2,0.2-0.5,0.2-0.8,0.3l-6.7,0.3h-0.1c-0.8,0-1.5-0.6-1.5-1.4c-0.1-0.8,0.6-1.5,1.4-1.5l3.5-0.2L30.8,31.2
		c-0.6-0.6-0.6-1.5,0-2.1c0.6-0.6,1.5-0.6,2.1,0l10.2,10.2l0.1-3.1c0.1-0.8,0.8-1.4,1.5-1.4C45.5,34.9,46.1,35.6,46.1,36.4z"/>
</g>
</svg>
