<?xml version="1.0" encoding="utf-8"?>
<!-- Generator: Adobe Illustrator 24.0.2, SVG Export Plug-In . SVG Version: 6.00 Build 0)  -->
<svg version="1.1" id="Capa_1" xmlns="http://www.w3.org/2000/svg" xmlns:xlink="http://www.w3.org/1999/xlink" x="0px" y="0px"
	 viewBox="0 0 81 105" style="enable-background:new 0 0 81 105;" xml:space="preserve">
<style type="text/css">
	.st0{fill:url(#SVGID_1_);}
	.st1{fill:none;stroke:url(#SVGID_2_);stroke-width:3;stroke-miterlimit:10;}
	.st2{fill:none;stroke:url(#SVGID_3_);stroke-width:3;stroke-miterlimit:10;}
	.st3{fill:none;stroke:url(#SVGID_4_);stroke-width:3;stroke-miterlimit:10;}
	.st4{fill:none;stroke:url(#SVGID_5_);stroke-width:3;stroke-miterlimit:10;}
	.st5{fill:none;stroke:url(#SVGID_6_);stroke-width:3;stroke-miterlimit:10;}
	.st6{fill:url(#SVGID_7_);}
	.st7{fill:url(#SVGID_8_);}
	.st8{fill:url(#SVGID_9_);}
	.st9{fill:url(#SVGID_10_);}
	.st10{fill:#081A21;}
	.st11{fill:#144556;}
	.st12{fill:#BAAEFF;}
</style>
<g>
	<g>
		<linearGradient id="SVGID_1_" gradientUnits="userSpaceOnUse" x1="-0.6215" y1="64.5576" x2="127.0623" y2="65.8739">
			<stop  offset="0" style="stop-color:#1FC7FF"/>
			<stop  offset="0.5" style="stop-color:#9780FF"/>
			<stop  offset="0.9963" style="stop-color:#0066FF"/>
		</linearGradient>
		<path class="st0" d="M40.4,40.1c1.4,0,2.9,0.4,4.2,1.1L70,55.8c1.4,0.8,2.6,2.1,3.3,3.5c0.6,1.1,0.8,2.4,0.8,3.7v4
			c0,3-1.6,5.7-4.2,7.2L44.5,88.8c-1.3,0.7-2.7,1.1-4.2,1.1l0,0c-1.4,0-2.9-0.4-4.2-1.1L11,74.2C8.5,72.7,6.8,70,6.8,67v-4
			c0-1.3,0.3-2.5,0.8-3.6c0.7-1.5,1.9-2.8,3.3-3.6l25.3-14.6C37.5,40.5,39,40.1,40.4,40.1 M40.4,36.4c-2.1,0-4.2,0.6-6,1.6L9.1,52.6
			c-2.1,1.2-3.8,3-4.8,5.3c-0.8,1.6-1.2,3.3-1.2,5.1v4c0,4.3,2.3,8.3,6,10.4L34.5,92c1.8,1.1,3.9,1.6,6,1.6s4.2-0.6,6-1.6l25.3-14.6
			c3.7-2.1,6-6.1,6-10.4v-4c0-1.8-0.4-3.6-1.2-5.3c-1.1-2.2-2.7-3.9-4.8-5.1L46.6,38C44.7,37,42.5,36.4,40.4,36.4L40.4,36.4z"/>
	</g>
	
		<linearGradient id="SVGID_2_" gradientUnits="userSpaceOnUse" x1="40.4438" y1="-3382.8999" x2="40.4438" y2="-3382.8999" gradientTransform="matrix(1 0 0 1 0 3479)">
		<stop  offset="0" style="stop-color:#2AE3E5"/>
		<stop  offset="0.9963" style="stop-color:#479AF8"/>
	</linearGradient>
	<path class="st1" d="M40.4,96.1"/>
	
		<linearGradient id="SVGID_3_" gradientUnits="userSpaceOnUse" x1="40.4438" y1="-3408.0874" x2="40.4438" y2="-3408.0874" gradientTransform="matrix(1 0 0 1 0 3479)">
		<stop  offset="0" style="stop-color:#2AE3E5"/>
		<stop  offset="0.9963" style="stop-color:#479AF8"/>
	</linearGradient>
	<path class="st2" d="M40.4,70.9"/>
	
		<linearGradient id="SVGID_4_" gradientUnits="userSpaceOnUse" x1="40.4438" y1="-3418.2075" x2="40.4438" y2="-3418.2075" gradientTransform="matrix(1 0 0 1 0 3479)">
		<stop  offset="0" style="stop-color:#2AE3E5"/>
		<stop  offset="0.9963" style="stop-color:#479AF8"/>
	</linearGradient>
	<path class="st3" d="M40.4,60.8"/>
	
		<linearGradient id="SVGID_5_" gradientUnits="userSpaceOnUse" x1="40.4438" y1="-3433.3311" x2="40.4438" y2="-3433.3311" gradientTransform="matrix(1 0 0 1 0 3479)">
		<stop  offset="0" style="stop-color:#2AE3E5"/>
		<stop  offset="0.9963" style="stop-color:#479AF8"/>
	</linearGradient>
	<path class="st4" d="M40.4,45.7"/>
	
		<linearGradient id="SVGID_6_" gradientUnits="userSpaceOnUse" x1="40.4438" y1="-3443.3948" x2="40.4438" y2="-3443.3948" gradientTransform="matrix(1 0 0 1 0 3479)">
		<stop  offset="0" style="stop-color:#2AE3E5"/>
		<stop  offset="0.9963" style="stop-color:#479AF8"/>
	</linearGradient>
	<path class="st5" d="M40.4,35.6"/>
	<g>
		<g>
			
				<linearGradient id="SVGID_7_" gradientUnits="userSpaceOnUse" x1="25.7698" y1="-3393.02" x2="25.7698" y2="-3393.02" gradientTransform="matrix(1 0 0 1 0 3479)">
				<stop  offset="0" style="stop-color:#2FD7E8"/>
				<stop  offset="0.9963" style="stop-color:#479AF8"/>
			</linearGradient>
			<path class="st6" d="M25.8,86L25.8,86L25.8,86z"/>
			
				<linearGradient id="SVGID_8_" gradientUnits="userSpaceOnUse" x1="55.1177" y1="-3393.02" x2="55.1177" y2="-3393.02" gradientTransform="matrix(1 0 0 1 0 3479)">
				<stop  offset="0" style="stop-color:#2FD7E8"/>
				<stop  offset="0.9963" style="stop-color:#479AF8"/>
			</linearGradient>
			<path class="st7" d="M55.1,86L55.1,86L55.1,86z"/>
		</g>
		<g>
			
				<linearGradient id="SVGID_9_" gradientUnits="userSpaceOnUse" x1="25.7698" y1="-3411.9829" x2="25.7698" y2="-3411.9597" gradientTransform="matrix(1 0 0 1 0 3479)">
				<stop  offset="0" style="stop-color:#2FD7E8"/>
				<stop  offset="0.9963" style="stop-color:#479AF8"/>
			</linearGradient>
			<path class="st8" d="M25.8,67v0.1V67z"/>
			
				<linearGradient id="SVGID_10_" gradientUnits="userSpaceOnUse" x1="55.1177" y1="-3411.9829" x2="55.1177" y2="-3411.9597" gradientTransform="matrix(1 0 0 1 0 3479)">
				<stop  offset="0" style="stop-color:#2FD7E8"/>
				<stop  offset="0.9963" style="stop-color:#479AF8"/>
			</linearGradient>
			<path class="st9" d="M55.1,67v0.1V67z"/>
		</g>
	</g>
	<g>
		<path d="M74.1,63v4c0,3-1.6,5.7-4.2,7.2L44.6,88.8c-1.3,0.7-2.7,1.1-4.2,1.1V78.2l32.8-19C73.7,60.4,74.1,61.7,74.1,63z"/>
		<path class="st10" d="M73.2,59.3l-32.8,19L7.6,59.4c0.7-1.5,1.9-2.8,3.3-3.6l25.3-14.6c2.6-1.5,5.8-1.5,8.3,0L70,55.7
			C71.4,56.6,72.5,57.8,73.2,59.3z"/>
		<g>
			<g>
				<g>
					<path class="st11" d="M40.4,78.2v11.7l0,0c-1.4,0-2.9-0.4-4.2-1.1L10.9,74.1c-2.6-1.5-4.2-4.3-4.2-7.2v-4
						c0-1.3,0.3-2.5,0.8-3.6L40.4,78.2z"/>
				</g>
			</g>
		</g>
	</g>
	<g>
		<path d="M74.1,45.6v4c0,3-1.6,5.7-4.2,7.2L44.6,71.4c-1.3,0.7-2.7,1.1-4.2,1.1V61l32.8-19C73.7,43,74.1,44.3,74.1,45.6z"/>
		<path class="st10" d="M73.2,41.9l-32.8,19L7.6,42c0.7-1.5,1.9-2.8,3.3-3.6l25.3-14.6c2.6-1.5,5.8-1.5,8.3,0L70,38.3
			C71.4,39.2,72.5,40.4,73.2,41.9z"/>
		<g>
			<g>
				<g>
					<path class="st11" d="M40.4,60.9v11.7l0,0c-1.4,0-2.9-0.4-4.2-1.1L10.9,56.8c-2.6-1.5-4.2-4.3-4.2-7.2v-4
						c0-1.3,0.3-2.5,0.8-3.6L40.4,60.9z"/>
				</g>
			</g>
		</g>
		<path class="st12" d="M37.5,64.3v2.1c0,0.6-0.6,0.9-1.1,0.6l-1.6-0.9c-0.2-0.1-0.4-0.4-0.4-0.6v-2.1c0-0.6,0.6-0.9,1.1-0.6
			l1.6,0.9C37.2,63.8,37.5,64.1,37.5,64.3z M29.3,60.5v2.1c0,0.3,0.1,0.5,0.4,0.6l1.6,0.9c0.5,0.3,1.1-0.1,1.1-0.6v-2.1
			c0-0.3-0.1-0.5-0.4-0.6l-1.6-0.9C29.8,59.5,29.3,59.9,29.3,60.5z"/>
	</g>
	<g>
		<path d="M74.1,28.2v4c0,3-1.6,5.7-4.2,7.2L44.6,54c-1.3,0.7-2.7,1.1-4.2,1.1V43.5l32.8-19C73.7,25.6,74.1,26.9,74.1,28.2z"/>
		<path class="st10" d="M73.2,24.5l-32.8,19L7.6,24.6c0.7-1.5,1.9-2.8,3.3-3.6L36.3,6.3c2.6-1.5,5.8-1.5,8.3,0L70,21
			C71.4,21.8,72.5,23.1,73.2,24.5z"/>
		<g>
			<g>
				<g>
					<path class="st11" d="M40.4,43.5v11.7l0,0c-1.4,0-2.9-0.4-4.2-1.1L10.9,39.4c-2.6-1.5-4.2-4.3-4.2-7.2v-4
						c0-1.3,0.3-2.5,0.8-3.6L40.4,43.5z"/>
				</g>
			</g>
		</g>
		<path class="st12" d="M37.5,47V49c0,0.6-0.6,0.9-1.1,0.6l-1.6-0.9c-0.2-0.1-0.4-0.4-0.4-0.6v-2.1c0-0.6,0.6-0.9,1.1-0.6l1.6,0.9
			C37.2,46.5,37.5,46.7,37.5,47z M29.3,43.1v2.1c0,0.3,0.1,0.5,0.4,0.6l1.6,0.9c0.5,0.3,1.1-0.1,1.1-0.6V44c0-0.3-0.1-0.5-0.4-0.6
			l-1.6-0.9C29.8,42.2,29.3,42.5,29.3,43.1z"/>
	</g>
</g>
</svg>
