<?xml version="1.0" encoding="utf-8"?>
<!-- Generator: Adobe Illustrator 24.0.2, SVG Export Plug-In . SVG Version: 6.00 Build 0)  -->
<svg version="1.1" id="Capa_1" xmlns="http://www.w3.org/2000/svg" xmlns:xlink="http://www.w3.org/1999/xlink" x="0px" y="0px"
	 viewBox="0 0 96.6 105" style="enable-background:new 0 0 96.6 105;" xml:space="preserve">
<style type="text/css">
	.st0{fill:url(#SVGID_1_);}
	.st1{fill:#071B20;}
	.st2{fill:#BAAEFF;}
	.st3{fill:url(#SVGID_2_);}
</style>
<g>
	
		<linearGradient id="SVGID_1_" gradientUnits="userSpaceOnUse" x1="39.8418" y1="62.2748" x2="56.8105" y2="34.8303" gradientTransform="matrix(1 0 0 -1 0 105)">
		<stop  offset="0" style="stop-color:#0F5253"/>
		<stop  offset="1" style="stop-color:#1A3859"/>
	</linearGradient>
	<path class="st0" d="M48.3,83.7c-1,0-2.1-0.3-3-0.8L26.8,72.3c-1.9-1.1-3-3.1-3-5.2V45.7c0-2.2,1.2-4.2,3-5.2l18.5-10.7
		c1.9-1.1,4.2-1.1,6.1,0l18.5,10.7c1.9,1.1,3,3.1,3,5.2V67c0,2.2-1.2,4.2-3,5.2L51.3,82.9C50.4,83.5,49.3,83.7,48.3,83.7z"/>
	<polygon points="48.3,56.9 72.4,42.9 72.4,70.2 48.3,84.1 	"/>
	<polygon class="st1" points="72.4,42.9 48.3,29 24.8,43.3 48.3,56.9 	"/>
	<path class="st2" d="M70.5,39.1L52.1,28.5c-2.3-1.3-5.2-1.3-7.6,0L26,39.1c-2.3,1.3-3.8,3.9-3.8,6.6V67c0,2.7,1.5,5.2,3.8,6.6
		l18.5,10.7c1.2,0.6,2.4,1,3.8,1s2.7-0.3,3.8-1l18.5-10.7c2.3-1.3,3.8-3.9,3.8-6.6V45.7C74.4,43,72.9,40.5,70.5,39.1z M27.5,41.8
		L46,31.1c0.7-0.4,1.5-0.6,2.3-0.6c0.8,0,1.6,0.2,2.3,0.6L69,41.8c0.4,0.2,0.8,0.5,1,0.8L48.3,55.1L26.5,42.6
		C26.8,42.2,27.2,42,27.5,41.8z M27.5,71c-1.4-0.8-2.3-2.3-2.3-4V45.7c0-0.1,0-0.2,0-0.3l21.5,12.3v24.2c-0.3-0.1-0.5-0.2-0.8-0.3
		L27.5,71z M71.3,67c0,1.6-0.9,3.1-2.3,4L50.6,81.7c-0.2,0.1-0.5,0.2-0.8,0.3V57.8l21.5-12.3c0,0.1,0,0.2,0,0.3V67z"/>
	<linearGradient id="SVGID_2_" gradientUnits="userSpaceOnUse" x1="2.5006" y1="87.1975" x2="131.9179" y2="-10.8459">
		<stop  offset="0" style="stop-color:#1FC7FF"/>
		<stop  offset="0.5" style="stop-color:#9780FF"/>
		<stop  offset="0.9963" style="stop-color:#0066FF"/>
	</linearGradient>
	<path class="st3" d="M93,14.9H35.7v-3.2c0-1.9-1.6-3.5-3.5-3.5H3.6c-1.9,0-3.5,1.6-3.5,3.5v81.5c0,1.9,1.6,3.5,3.5,3.5h89.5
		c1.9,0,3.5-1.6,3.5-3.5V18.4C96.5,16.5,95,14.9,93,14.9z M93.5,93.2c0,0.2-0.2,0.4-0.4,0.4H3.5c-0.2,0-0.4-0.2-0.4-0.4V18H93
		c0.2,0,0.4,0.2,0.4,0.4V93.2z"/>
</g>
</svg>
