<?xml version="1.0" encoding="utf-8"?>
<!-- Generator: Adobe Illustrator 24.0.2, SVG Export Plug-In . SVG Version: 6.00 Build 0)  -->
<svg version="1.1" id="Capa_1" xmlns="http://www.w3.org/2000/svg" xmlns:xlink="http://www.w3.org/1999/xlink" x="0px" y="0px"
	 viewBox="0 0 120 105" style="enable-background:new 0 0 120 105;" xml:space="preserve">
<style type="text/css">
	.st0{fill:url(#SVGID_1_);}
	.st1{fill:#BAAEFF;}
	.st2{fill:url(#SVGID_2_);}
</style>
<g>
	
		<linearGradient id="SVGID_1_" gradientUnits="userSpaceOnUse" x1="61.4645" y1="19.1261" x2="61.4645" y2="61.8977" gradientTransform="matrix(1 0 0 -1 0 105)">
		<stop  offset="0" style="stop-color:#0F5253"/>
		<stop  offset="1" style="stop-color:#1A3859"/>
	</linearGradient>
	<path class="st0" d="M20.4,36.8c2.3,0,4.4,1.1,5.6,3.1l14.3,21.6c1.9,2.8,5,4.6,8.4,4.6c0.1,0,0.1,0,0.1,0c3.4,0,6.5-1.6,8.4-4.4
		l12.4-18c1.3-1.9,3.4-2.9,5.7-2.9c2.3,0.1,4.3,1.2,5.6,3.1l4.1,6.5c2,3.1,5.3,4.9,9,4.7c3.7-0.1,6.9-2.2,8.6-5.3v42.6H20.4V36.8z"
		/>
	<path class="st1" d="M105.9,93.2l-5.7,6.3c-0.3,0.4-0.7,0.5-1.1,0.5c-0.4,0-0.8-0.1-1.1-0.4c-0.7-0.6-0.7-1.6-0.1-2.2l3.2-3.5H21.3
		c-0.9,0-1.6-0.7-1.6-1.6V10.2l-3.4,3.1c-0.7,0.6-1.6,0.5-2.2-0.1c-0.6-0.7-0.5-1.6,0.1-2.2l6-5.5c0.6-0.5,1.5-0.5,2.1,0l6.3,5.7
		c0.7,0.6,0.7,1.6,0.1,2.2c-0.3,0.4-0.7,0.5-1.1,0.5c-0.4,0-0.8-0.1-1.1-0.4l-3.7-3.4v80.6h78.5l-3.2-3.5c-0.6-0.7-0.5-1.6,0.1-2.2
		c0.7-0.6,1.6-0.5,2.2,0.1l5.5,6C106.5,91.7,106.5,92.6,105.9,93.2z"/>
	<linearGradient id="SVGID_2_" gradientUnits="userSpaceOnUse" x1="17.6673" y1="55.5856" x2="143.2069" y2="-9.9415">
		<stop  offset="0" style="stop-color:#1FC7FF"/>
		<stop  offset="0.5" style="stop-color:#9780FF"/>
		<stop  offset="0.9963" style="stop-color:#0066FF"/>
	</linearGradient>
	<path class="st2" d="M43.4,59.1c-0.1,0-0.1,0-0.1,0c-3.4-0.1-6.5-1.7-8.4-4.6L20.6,32.9c-1.3-1.9-3.4-3.1-5.6-3.1v-3.5
		c3.5,0,6.6,1.7,8.5,4.6l14.3,21.6c1.3,1.9,3.3,3,5.6,3.1c2.3,0.1,4.3-1,5.6-2.9l12.4-18c2-2.8,5.1-4.5,8.6-4.4
		c3.4,0.1,6.6,1.8,8.4,4.7l4.1,6.5c1.3,2,3.5,3.2,5.9,3.1c2.4-0.1,4.6-1.4,5.7-3.5l3.3-6c1.8-3.3,5.2-5.3,9-5.3v3.5
		c-2.5,0-4.7,1.4-5.9,3.5l-3.3,6c-1.7,3.2-5,5.2-8.6,5.3c-3.7,0.1-7-1.6-9-4.7l-4.1-6.5c-1.3-1.9-3.3-3.1-5.6-3.1
		c-2.3-0.1-4.4,1-5.7,2.9l-12.4,18C49.9,57.5,46.8,59.1,43.4,59.1z"/>
</g>
</svg>
