<?xml version="1.0" encoding="utf-8"?>
<!-- Generator: Adobe Illustrator 24.0.2, SVG Export Plug-In . SVG Version: 6.00 Build 0)  -->
<svg version="1.1" id="Capa_1" xmlns="http://www.w3.org/2000/svg" xmlns:xlink="http://www.w3.org/1999/xlink" x="0px" y="0px"
	 viewBox="0 0 100.9 99.9" style="enable-background:new 0 0 100.9 99.9;" xml:space="preserve">
<style type="text/css">
	.st0{fill:url(#SVGID_1_);}
	.st1{fill:url(#SVGID_2_);}
	.st2{fill:#BAAEFF;}
	.st3{fill:#090F14;}
</style>
<g>
	
		<linearGradient id="SVGID_1_" gradientUnits="userSpaceOnUse" x1="39.6123" y1="44.9111" x2="39.6123" y2="77.5565" gradientTransform="matrix(1 0 0 -1 0 101)">
		<stop  offset="0" style="stop-color:#0F5253"/>
		<stop  offset="1" style="stop-color:#1A3859"/>
	</linearGradient>
	<path class="st0" d="M56,28.8v21.6c-3.2,0.7-5.7,3.2-6.4,6.4h-20c-0.7-3.2-3.2-5.7-6.4-6.4V28.8c3.2-0.7,5.6-3.2,6.4-6.4h20
		C50.4,25.6,52.8,28.1,56,28.8z"/>
	<g>
		<g>
			<linearGradient id="SVGID_2_" gradientUnits="userSpaceOnUse" x1="12.0807" y1="61.6922" x2="86.3485" y2="-21.3821">
				<stop  offset="0" style="stop-color:#1FC7FF"/>
				<stop  offset="0.5" style="stop-color:#9780FF"/>
				<stop  offset="0.9963" style="stop-color:#0066FF"/>
			</linearGradient>
			<path class="st1" d="M58.7,48.5V21.7c3.7-0.7,6.6-4,6.6-7.9c0-4.4-3.6-8-8-8c-3.9,0-7.2,2.8-7.9,6.6H22.5c-0.7-3.7-4-6.6-7.9-6.6
				c-4.4,0-8,3.6-8,8c0,3.9,2.8,7.2,6.6,7.9v26.8c-3.7,0.7-6.6,4-6.6,7.9c0,4.4,3.6,8,8,8c3.9,0,7.2-2.8,7.9-6.6h26.8
				c0.7,3.7,4,6.6,7.9,6.6c4.4,0,8-3.6,8-8C65.3,52.4,62.4,49.2,58.7,48.5z M52.4,12.3c0.6-2,2.5-3.5,4.8-3.5c2.8,0,5,2.2,5,5
				c0,2.2-1.5,4.1-3.5,4.8c-0.5,0.2-1,0.2-1.5,0.2c-0.5,0-1-0.1-1.5-0.2c-1.6-0.5-2.8-1.7-3.3-3.3c-0.2-0.5-0.2-1-0.2-1.6
				C52.1,13.2,52.3,12.7,52.4,12.3z M9.5,13.7c0-2.8,2.2-5,5-5c2.2,0,4.1,1.5,4.8,3.5c0.2,0.5,0.2,1,0.2,1.6c0,0.5-0.1,1-0.2,1.6
				c-0.5,1.6-1.7,2.8-3.3,3.3c-0.5,0.2-1,0.2-1.5,0.2c-0.5,0-1-0.1-1.6-0.2C11,17.9,9.5,16,9.5,13.7z M19.3,57.9
				c-0.6,2-2.5,3.5-4.8,3.5c-2.8,0-5-2.2-5-5c0-2.2,1.5-4.1,3.5-4.8c0.5-0.2,1-0.2,1.6-0.2c0.5,0,1,0.1,1.5,0.2
				c1.6,0.5,2.8,1.7,3.3,3.3c0.2,0.5,0.2,1,0.2,1.6C19.6,56.9,19.5,57.4,19.3,57.9z M49.3,54.9H22.5c-0.6-3.2-3.2-5.7-6.4-6.4V21.7
				c3.2-0.6,5.7-3.2,6.4-6.4h26.8c0.6,3.2,3.2,5.7,6.4,6.4v26.8C52.4,49.1,49.9,51.6,49.3,54.9z M57.2,61.4c-2.2,0-4.1-1.5-4.8-3.5
				c-0.2-0.5-0.2-1-0.2-1.5s0.1-1,0.2-1.6c0.5-1.6,1.7-2.8,3.3-3.3c0.5-0.2,1-0.2,1.5-0.2c0.5,0,1,0.1,1.5,0.2
				c2,0.6,3.5,2.5,3.5,4.8C62.2,59.2,60,61.4,57.2,61.4z"/>
		</g>
	</g>
	<g>
		<path class="st2" d="M78.6,79.5l-5.4,12.1c-0.7,1.7-3.2,1.6-3.9-0.1L57.1,59.5c-0.6-1.7,1-3.3,2.7-2.7l31.9,12.3
			c1.7,0.7,1.8,3,0.1,3.9l-12.1,5.4C79.2,78.6,78.9,79,78.6,79.5z"/>
		<path class="st3" d="M71.3,94.2c-0.1,0-0.1,0-0.1,0c-1.4-0.1-2.6-0.9-3.2-2.2L55.8,60c-0.5-1.3-0.2-2.7,0.8-3.7
			c1-1,2.4-1.3,3.7-0.8l31.9,12.3c1.3,0.5,2.2,1.7,2.2,3.2c0.1,1.4-0.7,2.7-2.1,3.3l-12.1,5.4c-0.2,0.1-0.3,0.2-0.3,0.3l0,0
			l-5.4,12.1C73.9,93.4,72.7,94.2,71.3,94.2z M59,58.1c-0.2,0-0.4,0.1-0.5,0.2c-0.1,0.1-0.3,0.3-0.2,0.7l12.3,31.9
			c0.2,0.4,0.5,0.4,0.6,0.4c0.1,0,0.5,0,0.6-0.4l5.4-12.1c0.3-0.8,1-1.4,1.7-1.7l12.1-5.4c0.3-0.2,0.4-0.5,0.4-0.6
			c0-0.1-0.1-0.5-0.4-0.6L59.3,58.1C59.2,58.1,59.2,58.1,59,58.1z"/>
	</g>
</g>
</svg>
