<?xml version="1.0" encoding="utf-8"?>
<!-- Generator: Adobe Illustrator 24.0.2, SVG Export Plug-In . SVG Version: 6.00 Build 0)  -->
<svg version="1.1" id="Capa_1" xmlns="http://www.w3.org/2000/svg" xmlns:xlink="http://www.w3.org/1999/xlink" x="0px" y="0px"
	 viewBox="0 0 125.5 108.7" style="enable-background:new 0 0 125.5 108.7;" xml:space="preserve">
<style type="text/css">
	.st0{opacity:0.23;fill:url(#SVGID_1_);enable-background:new    ;}
	.st1{fill:url(#SVGID_2_);}
	.st2{fill:url(#SVGID_3_);}
	.st3{fill:none;}
	.st4{fill:#BAAEFF;}
	.st5{opacity:0.16;fill:url(#SVGID_4_);enable-background:new    ;}
	.st6{opacity:0.16;fill:url(#SVGID_5_);enable-background:new    ;}
	.st7{opacity:0.16;fill:url(#SVGID_6_);enable-background:new    ;}
	.st8{opacity:0.16;fill:url(#SVGID_7_);enable-background:new    ;}
	.st9{fill:url(#SVGID_8_);}
</style>
<g>
	
		<linearGradient id="SVGID_1_" gradientUnits="userSpaceOnUse" x1="51.3123" y1="20.7871" x2="51.3123" y2="61.9916" gradientTransform="matrix(1 0 0 -1 0 109)">
		<stop  offset="0" style="stop-color:#2AE3E5"/>
		<stop  offset="0.9963" style="stop-color:#479AF8"/>
	</linearGradient>
	<path class="st0" d="M73.9,34.1c-1,3-1.9,6.1-2.8,9.2c-4.7,15-9.4,30.5-12.3,36.9c-2.5,5.5-5.2,8.6-8.5,9.5
		c-4.1,1.1-7.9-1.4-11.6-4.1c-3.7-2.7-7.2-3.2-9.9-2.8c0.3-0.5,0.6-1,0.9-1.6c0.5-0.8,0.9-1.5,1.4-2.2c0.6-0.9,1.2-1.7,1.7-2.5
		c7-9,12.5-3.7,16.5-1.2c4.1,2.5,9-6.3,11.6-14c1.7-5.4,3.6-11.4,5.9-16.8l0,0c1.1-2.5,2.3-4.8,3.6-7c0.5-0.9,1.2-1.7,1.9-2.3
		C72.8,34.8,73.3,34.4,73.9,34.1z"/>
	
		<linearGradient id="SVGID_2_" gradientUnits="userSpaceOnUse" x1="36.1914" y1="16.026" x2="36.1914" y2="17.9625" gradientTransform="matrix(1 0 0 -1 0 109)">
		<stop  offset="0" style="stop-color:#0F5253"/>
		<stop  offset="1" style="stop-color:#1A3859"/>
	</linearGradient>
	<path class="st1" d="M45.7,93.2h-19c0.8-0.5,1.6-1,2.5-1.5C33.5,89.4,39.9,88.9,45.7,93.2z"/>
	
		<linearGradient id="SVGID_3_" gradientUnits="userSpaceOnUse" x1="86.8208" y1="21.1491" x2="86.8208" y2="67.7968" gradientTransform="matrix(1 0 0 -1 0 109)">
		<stop  offset="0" style="stop-color:#0F5253"/>
		<stop  offset="1" style="stop-color:#1A3859"/>
	</linearGradient>
	<path class="st2" d="M109.9,93.2H63.8c0.5-0.8,0.9-1.7,1.3-2.6c3.8-8.7,11.4-34.6,17.2-52.8c2.6-8.1,4.8-14.5,6.1-17.3
		c1.2-2.3,2.3-3.9,3.5-4.8c0.4-0.3,0.7-0.5,1.1-0.6c0.9-0.3,1.8-0.2,2.6,0.3C99.6,28.6,107.1,66.6,109.9,93.2z"/>
	<path class="st3" d="M11.2,96c0,0,6.5-21.2,13.6-30.2s12.5-3.7,16.5-1.2c4.1,2.5,9-6.3,11.6-14c2.5-7.8,5.3-17,9.5-23.8
		c4.2-6.8,14.2-5.9,15.8,6.7C79.7,46,81.4,96,81.4,96"/>
	<path class="st3" d="M11.2,96c0,0,3.4-8.6,12-13.2c4.3-2.3,10.7-2.8,16.5,1.6c5.9,4.3,11.8,7.8,17.3-4.7s18.9-61.2,23.3-70
		c4.3-8.9,9-7.2,13,4.8c4,12,12.3,54.1,14.9,81.7"/>
	<path class="st4" d="M109.9,93.2h-3.7c-2.8-27-10.5-65.4-14.3-77.6c-0.1-0.3-0.1-0.5-0.3-0.8c-0.2-0.6-0.5-1.3-0.6-1.9
		c-2.5-6.8-4.5-7.3-4.9-7.3h-0.1c-0.8,0-2.3,1.2-3.9,4.6c-1.5,3-4.2,11.4-7.2,21.1c-0.3,1-0.6,1.9-0.9,2.8c-1,3-1.9,6.1-2.8,9.2
		c-4.7,15-9.4,30.5-12.3,36.9c-2.5,5.5-5.2,8.6-8.5,9.5c-4.1,1.1-7.9-1.4-11.6-4.1c-3.7-2.7-7.2-3.2-9.9-2.8c-1.4,0.2-2.6,0.6-3.6,1
		c-0.5,0.2-0.8,0.4-1.1,0.5c-4.6,2.5-7.6,6.1-9.4,8.9h-4.3c1.6-3,5.4-8.6,11.9-12.1c1.5-0.8,3.3-1.4,5.3-1.7
		c1.1-0.1,2.2-0.3,3.4-0.2c3.2,0.1,6.5,1.2,9.8,3.6c2.9,2.1,5.9,4.1,8.4,3.5c2.1-0.6,4.2-3,6.1-7.4c2.6-5.9,7-20.1,11.4-34.2l0,0
		c0.3-0.8,0.5-1.5,0.7-2.3c1-3,1.9-6.1,2.8-9c3.6-11.3,6.7-21,8.4-24.6C80.8,4,83.2,1.8,86.1,2c3.4,0.3,6.3,4.1,8.8,11.7
		c0.1,0.5,0.3,1,0.5,1.5c0,0.1,0,0.1,0.1,0.1C99.6,28.6,107.1,66.6,109.9,93.2z"/>
	
		<linearGradient id="SVGID_4_" gradientUnits="userSpaceOnUse" x1="2.6539" y1="38.3334" x2="122.8461" y2="38.3334" gradientTransform="matrix(1 0 0 -1 0 109)">
		<stop  offset="0" style="stop-color:#2AE3E5"/>
		<stop  offset="0.9963" style="stop-color:#479AF8"/>
	</linearGradient>
	<rect x="2.7" y="69.9" class="st5" width="120.2" height="1.5"/>
	
		<linearGradient id="SVGID_5_" gradientUnits="userSpaceOnUse" x1="2.6539" y1="61.5964" x2="122.8461" y2="61.5964" gradientTransform="matrix(1 0 0 -1 0 109)">
		<stop  offset="0" style="stop-color:#2AE3E5"/>
		<stop  offset="0.9963" style="stop-color:#479AF8"/>
	</linearGradient>
	<rect x="2.7" y="46.7" class="st6" width="120.2" height="1.5"/>
	
		<linearGradient id="SVGID_6_" gradientUnits="userSpaceOnUse" x1="2.6539" y1="84.8594" x2="122.8461" y2="84.8594" gradientTransform="matrix(1 0 0 -1 0 109)">
		<stop  offset="0" style="stop-color:#2AE3E5"/>
		<stop  offset="0.9963" style="stop-color:#479AF8"/>
	</linearGradient>
	<rect x="2.7" y="23.4" class="st7" width="120.2" height="1.5"/>
	
		<linearGradient id="SVGID_7_" gradientUnits="userSpaceOnUse" x1="2.6539" y1="15.0704" x2="122.8461" y2="15.0704" gradientTransform="matrix(1 0 0 -1 0 109)">
		<stop  offset="0" style="stop-color:#2AE3E5"/>
		<stop  offset="0.9963" style="stop-color:#479AF8"/>
	</linearGradient>
	<rect x="2.7" y="93.2" class="st8" width="120.2" height="1.5"/>
	<linearGradient id="SVGID_8_" gradientUnits="userSpaceOnUse" x1="46.627" y1="93.2252" x2="53.3445" y2="-16.4924">
		<stop  offset="0" style="stop-color:#1FC7FF"/>
		<stop  offset="0.5" style="stop-color:#9780FF"/>
		<stop  offset="0.9963" style="stop-color:#0066FF"/>
	</linearGradient>
	<path class="st9" d="M83.1,93.2h-3.7c-0.4-10.7-1.9-49-3.2-59.7c-0.1-0.8-0.3-1.5-0.4-2.2c-0.9-3.9-2.9-6.5-5.6-7
		c-2.4-0.5-4.9,0.8-6.4,3.2c-3.8,6.3-6.5,14.7-8.9,22L54.6,51c-0.7,2.2-4.5,13.4-10.1,15.4c-1.4,0.5-2.9,0.4-4.2-0.4
		c-0.5-0.3-0.9-0.6-1.4-0.9c-3.8-2.6-7.5-5-12.7,1.7C21.1,73.5,16.2,87,14,93.3h-3.9c1.9-5.8,7.3-21.1,13.2-28.6
		c7.3-9.4,13.8-5.1,17.6-2.5c0.5,0.3,0.9,0.6,1.3,0.8c0.3,0.1,0.5,0.3,1,0.1c2.4-0.9,5.8-6.5,7.8-13.1l0.5-1.4
		c2.5-7.6,5.2-16.2,9.2-22.9c2.3-3.8,6.4-5.8,10.3-4.9c4.7,1,8,5.6,8.9,12.3v0.1C81.3,44.2,82.8,82.5,83.1,93.2z"/>
</g>
</svg>
