<?xml version="1.0" encoding="utf-8"?>
<!-- Generator: Adobe Illustrator 24.0.2, SVG Export Plug-In . SVG Version: 6.00 Build 0)  -->
<svg version="1.1" id="Capa_1" xmlns="http://www.w3.org/2000/svg" xmlns:xlink="http://www.w3.org/1999/xlink" x="0px" y="0px"
	 viewBox="0 0 120 105" style="enable-background:new 0 0 120 105;" xml:space="preserve">
<style type="text/css">
	.st0{fill:url(#SVGID_1_);}
	.st1{fill:#071B20;}
	.st2{fill:url(#SVGID_2_);}
	.st3{fill:#BAAEFF;}
</style>
<g>
	
		<linearGradient id="SVGID_1_" gradientUnits="userSpaceOnUse" x1="51.6944" y1="66.0007" x2="68.4006" y2="38.981" gradientTransform="matrix(1 0 0 -1 0 105)">
		<stop  offset="0" style="stop-color:#0F5253"/>
		<stop  offset="1" style="stop-color:#1A3859"/>
	</linearGradient>
	<path class="st0" d="M60,79.4c-1,0-2.1-0.3-3-0.8L38.9,68.1c-1.8-1.1-3-3-3-5.2V42c0-2.1,1.1-4.1,3-5.2L57,26.3
		c1.8-1.1,4.1-1.1,6,0l18.2,10.5c1.8,1.1,3,3,3,5.2v21c0,2.1-1.1,4.1-3,5.2L63,78.6C62.1,79.1,61.1,79.4,60,79.4z"/>
	<polygon points="60,52.9 83.8,39.1 83.8,66.1 60,79.8 	"/>
	<polygon class="st1" points="83.8,39.1 60,25.4 36.8,39.6 60,52.9 	"/>
	<linearGradient id="SVGID_2_" gradientUnits="userSpaceOnUse" x1="34.6187" y1="72.374" x2="118.2203" y2="6.5792">
		<stop  offset="0" style="stop-color:#1FC7FF"/>
		<stop  offset="0.5" style="stop-color:#9780FF"/>
		<stop  offset="0.9963" style="stop-color:#0066FF"/>
	</linearGradient>
	<path class="st2" d="M81.9,35.5L63.8,25c-2.3-1.3-5.2-1.3-7.5,0L38.1,35.5c-2.3,1.3-3.7,3.8-3.7,6.5v21c0,2.7,1.4,5.2,3.7,6.5
		l18.2,10.5c1.1,0.6,2.4,1,3.7,1s2.6-0.3,3.7-1l18.2-10.5c2.3-1.3,3.7-3.8,3.7-6.5v-21C85.7,39.2,84.3,36.8,81.9,35.5z M39.6,38
		l18.2-10.5c0.7-0.4,1.5-0.6,2.2-0.6c0.7,0,1.5,0.2,2.2,0.6L80.4,38c0.4,0.2,0.7,0.5,1,0.8L59.9,51.2L38.5,38.8
		C38.9,38.6,39.2,38.3,39.6,38z M39.6,66.8c-1.4-0.8-2.2-2.3-2.2-3.9v-21c0-0.1,0-0.2,0-0.3l21.1,12.1v23.8
		c-0.3-0.1-0.5-0.2-0.7-0.3L39.6,66.8z M82.7,62.9c0,1.6-0.9,3.1-2.2,3.9L62.3,77.3c-0.2,0.1-0.5,0.2-0.7,0.3V53.8l21.1-12.1
		c0,0.1,0,0.2,0,0.3V62.9z"/>
	<g>
		<g>
			<path class="st3" d="M60,101.3c-2.1,0-4.2-0.6-6-1.6l-2.2-1.3l1.5-2.6l2.2,1.3c1.4,0.8,2.9,1.2,4.5,1.2V101.3z M67.1,99.1
				l-1.5-2.6l6.9-4l1.5,2.6L67.1,99.1z M44.8,94.4l-6.9-4l1.5-2.6l6.9,4L44.8,94.4z M81,91l-1.5-2.6l6.9-4l1.5,2.6L81,91z M31,86.4
				l-6.9-4l1.5-2.6l6.9,4L31,86.4z M94.9,83l-1.5-2.6l3-1.8c1.1-0.6,2.1-1.5,2.8-2.6l2.5,1.7c-1,1.4-2.3,2.6-3.8,3.4L94.9,83z
				 M17.6,76.7c-1-1.8-1.5-3.8-1.5-5.8v-2.7h3v2.7c0,1.5,0.4,3,1.1,4.4L17.6,76.7z M103.9,69.3h-3v-8h3V69.3z M19.1,60.2h-3v-8h3
				V60.2z M103.9,53.3h-3v-8h3V53.3z M19.1,44.1h-3v-8h3V44.1z M103.9,37.3h-3V34c0-1.3-0.3-2.7-0.9-3.9l2.7-1.3
				c0.8,1.6,1.2,3.4,1.2,5.2V37.3z M20.4,29.2l-2.5-1.6c1-1.7,2.5-3,4.2-4l2.5-1.4l1.5,2.6l-2.5,1.4C22.3,26.9,21.2,28,20.4,29.2z
				 M94.9,25.3l-6.9-4l1.5-2.6l6.9,4L94.9,25.3z M33,20.7l-1.5-2.6l6.9-4l1.5,2.6L33,20.7z M81.1,17.3l-6.9-4l1.5-2.6l6.9,4
				L81.1,17.3z M46.9,12.7l-1.5-2.6l6.9-4l1.5,2.6L46.9,12.7z M67.2,9.3l-2.7-1.5c-1.2-0.7-2.6-1.1-4-1.2l0.2-3
				c1.9,0.1,3.7,0.6,5.3,1.6l2.7,1.5L67.2,9.3z"/>
		</g>
	</g>
</g>
</svg>
