<?xml version="1.0" encoding="utf-8"?>
<!-- Generator: Adobe Illustrator 24.0.2, SVG Export Plug-In . SVG Version: 6.00 Build 0)  -->
<svg version="1.1" id="Calque_1" xmlns="http://www.w3.org/2000/svg" xmlns:xlink="http://www.w3.org/1999/xlink" x="0px" y="0px"
	 viewBox="0 0 411.2 102.4" style="enable-background:new 0 0 411.2 102.4;" xml:space="preserve">
<style type="text/css">
	.st0{fill:#FFFFFF;}
</style>
<g id="Calque_1-2">
	<path class="st0" d="M152.7,33c-7.3,0-13.1,9.3-13.1,9.3v-9.2c0-0.9-0.7-1.6-1.6-1.6c0,0,0,0,0,0h-12.9c-0.9,0-1.6,0.7-1.6,1.6
		c0,0,0,0,0,0l-0.1,65.4c0,0.9,0.7,1.6,1.6,1.6c0,0,0,0,0,0h13.1c0.9,0,1.6-0.7,1.6-1.6c0,0,0,0,0,0l0.1-45.1c0-2.2,1.8-4,4-4h23.3
		c0.9,0,1.6-0.7,1.6-1.6c0,0,0,0,0,0V34.8c0-0.9-0.7-1.6-1.6-1.6c0,0,0,0,0,0L152.7,33z"/>
	<path class="st0" d="M215.9,33h-23.3l0.1-23.2c0-0.9-0.7-1.6-1.6-1.6c0,0,0,0,0,0H178c-0.9,0-1.6,0.7-1.6,1.6c0,0,0,0,0,0V33h16.3
		v2.4c-0.1,7.7-6.3,13.9-14,13.9h-2.3v18c0,18,14.6,32.7,32.6,32.7c0,0,0.1,0,0.1,0h6c0.9,0,1.6-0.7,1.6-1.6c0,0,0,0,0,0V85.3
		c0-0.9-0.7-1.6-1.6-1.6c0,0,0,0,0,0H208c-8.4,0-15.2-6.8-15.2-15.2c0,0,0,0,0-0.1V49.3h23.3c0.9,0,1.6-0.7,1.6-1.6c0,0,0,0,0,0
		V34.7C217.6,33.8,216.8,33.1,215.9,33z"/>
	<path class="st0" d="M273.9,8.3h-13.1c-0.9,0-1.6,0.7-1.6,1.6c0,0,0,0,0,0v88.6c0,0.9,0.7,1.6,1.6,1.6c0,0,0,0,0,0h13.1
		c0.9,0,1.6-0.7,1.6-1.6c0,0,0,0,0,0V56.8l0.1-47C275.5,8.9,274.8,8.3,273.9,8.3z"/>
	<path class="st0" d="M244.2,41.3h-13.1c-0.9,0-1.6,0.7-1.6,1.6c0,0,0,0,0,0l-0.1,55.6c0,0.9,0.7,1.6,1.6,1.6c0,0,0,0,0,0h13.1
		c0.9,0,1.6-0.7,1.6-1.6c0,0,0,0,0,0l0.1-55.6c0-0.8-0.6-1.6-1.4-1.6C244.3,41.3,244.3,41.3,244.2,41.3z"/>
	<path class="st0" d="M237.7,33.2c4.6,0,8.4-3.8,8.4-8.4s-3.8-8.4-8.4-8.4c-4.6,0-8.4,3.8-8.4,8.4c0,0,0,0,0,0
		c0,4.6,3.6,8.4,8.2,8.4C237.6,33.2,237.7,33.2,237.7,33.2z"/>
	<path class="st0" d="M81.2,33c18.5,0,33.5,15.1,33.5,33.6s-15.1,33.5-33.6,33.5c-18.5,0-33.5-15.1-33.5-33.6c0-0.9,0-1.7,0.1-2.6
		c0.1-0.8,0.8-1.5,1.6-1.5h13.2c0.9,0,1.6,0.7,1.6,1.6c0,0,0,0,0,0c0,2.9-0.2,5.7,1.2,8.9c2.7,6.5,9.1,10.8,16.1,10.7
		c11.7-0.2,20.5-12.2,15.2-24.6c-1.6-3.3-4.2-6-7.5-7.8c-4.6-2.2-8-1.9-12.8-1.9c-0.9,0-1.6-0.7-1.6-1.6c0,0,0,0,0,0V34.7
		c0-0.9,0.7-1.6,1.6-1.6c0,0,0,0,0,0L81.2,33z"/>
	<path class="st0" d="M17.3,98.6V49.5H2.5c-0.9,0-1.6-0.7-1.6-1.6c0,0,0,0,0,0V34.8c0-0.9,0.7-1.6,1.6-1.6c0,0,0,0,0,0h15.1v-2.6
		C17.7,14.8,30.5,2,46.3,2h13.9c0.9,0,1.6,0.7,1.6,1.6c0,0,0,0,0,0v13.1c0,0.9-0.7,1.6-1.6,1.6c0,0,0,0,0,0H46.4
		c-6.8,0-12.4,5.4-12.4,12.2V33h24.2c0.9,0,1.6,0.8,1.6,1.7v13c0,0.9-0.7,1.6-1.6,1.6c0,0,0,0,0,0H33.7v49.1c0,0.9-0.7,1.6-1.6,1.6
		c0,0,0,0,0,0H18.9c-0.8,0.1-1.5-0.4-1.6-1.2C17.3,98.8,17.3,98.7,17.3,98.6z"/>
	<path class="st0" d="M300.1,56.3c-2,0.1-3.9-0.7-5.4-2c-1.4-1.4-2.2-3.3-2.1-5.3c-0.1-2,0.7-3.9,2.1-5.3c1.4-1.4,3.4-2.1,5.4-2
		c1.8,0,3.5,0.5,4.9,1.6l-0.9,1.3c-1.1-0.9-2.5-1.4-4-1.4c-1.5-0.1-3,0.5-4.1,1.6c-1,1.1-1.6,2.6-1.6,4.1c-0.1,1.5,0.5,3,1.6,4.1
		c1.1,1,2.6,1.6,4.1,1.6c1.5,0,2.9-0.5,4-1.4l0.9,1.3C303.7,55.7,301.9,56.4,300.1,56.3z M310.7,46.4c1.3,0,2.6,0.5,3.6,1.4
		c1.9,2,1.9,5,0,7c-1,0.9-2.3,1.4-3.6,1.4c-1.3,0-2.6-0.5-3.6-1.4c-1.9-2-1.9-5,0-7C308.1,46.9,309.4,46.4,310.7,46.4z M313.2,48.8
		c-0.7-0.6-1.6-1-2.5-1c-0.9,0-1.8,0.3-2.5,1c-0.7,0.6-1.1,1.6-1,2.5c-0.1,0.9,0.3,1.9,1,2.5c0.7,0.6,1.6,1,2.5,1
		c1.9,0,3.5-1.4,3.5-3.3c0-0.1,0-0.1,0-0.2C314.2,50.4,313.9,49.5,313.2,48.8z M317.6,56v-9.2h1.4v1.6l0,0c0.4-1.2,1.6-2.1,2.9-2
		c1.3-0.1,2.5,0.8,2.9,2.1l0,0c0.2-0.6,0.7-1.1,1.2-1.5c0.6-0.3,1.2-0.5,1.9-0.5c0.9,0,1.7,0.3,2.3,0.9c0.7,0.8,1,1.9,0.9,2.9v5.8
		h-1.4v-5.7c0-1.6-0.7-2.4-2.1-2.4c-0.7,0-1.4,0.3-1.8,0.8c-0.5,0.7-0.7,1.6-0.7,2.5v4.8h-1.4v-5.5c0-1.8-0.7-2.6-2.2-2.6
		c-0.7,0-1.4,0.3-1.8,0.9c-0.5,0.8-0.7,1.7-0.7,2.6v4.6L317.6,56L317.6,56z M333.7,56v-9.2h1.4v1.6l0,0c0.4-1.2,1.6-2.1,2.9-2
		c1.3-0.1,2.5,0.8,2.9,2.1l0,0c0.2-0.6,0.7-1.1,1.2-1.5c0.6-0.3,1.2-0.5,1.9-0.5c0.9,0,1.7,0.3,2.3,0.9c0.7,0.8,1,1.9,0.9,2.9v5.8
		h-1.4v-5.7c0-1.6-0.7-2.4-2.1-2.4c-0.7,0-1.4,0.3-1.8,0.8c-0.5,0.7-0.7,1.6-0.7,2.5v4.8h-1.4v-5.5c0-1.8-0.7-2.6-2.2-2.6
		c-0.7,0-1.4,0.3-1.8,0.9c-0.5,0.8-0.7,1.7-0.7,2.6v4.6L333.7,56L333.7,56z M351.3,42.3v2.4h-1.8v-2.4H351.3z M349.7,56v-9.2h1.4V56
		H349.7z M358.1,48h-2v5.4c-0.1,0.6,0.3,1.1,0.9,1.2c0.1,0,0.2,0,0.3,0h0.5V56H357c-1.1,0.1-2.2-0.7-2.3-1.9c0-0.1,0-0.3,0-0.4V48
		h-1.8v-1.2h1.8v-3.7h1.4v3.7h2L358.1,48z M364.2,48h-2v5.4c-0.1,0.6,0.3,1.1,0.9,1.2c0.1,0,0.2,0,0.3,0h0.5V56h-0.8
		c-1.1,0.1-2.2-0.7-2.3-1.9c0-0.1,0-0.3,0-0.4V48H359v-1.2h1.8v-3.7h1.4v3.7h2L364.2,48z M369.5,46.5c1.3-0.1,2.5,0.4,3.3,1.4
		c0.8,1,1.2,2.2,1.1,3.5v0.3h-7.6c-0.1,1.7,1.2,3.2,2.9,3.3c0.1,0,0.3,0,0.4,0c0.5,0,1-0.1,1.5-0.3c0.4-0.2,0.7-0.4,1-0.6
		c0.3-0.2,0.5-0.5,0.7-0.8l1,0.9c-0.9,1.4-2.5,2.2-4.2,2.2c-1.3,0.1-2.6-0.4-3.5-1.3c-0.9-1-1.4-2.3-1.3-3.6
		c-0.1-1.3,0.4-2.6,1.3-3.6C367,46.9,368.3,46.4,369.5,46.5z M369.4,47.9c-0.8,0-1.5,0.2-2.1,0.7c-0.6,0.5-1,1.2-1,2h6.1
		c0-0.8-0.4-1.5-0.9-2C371,48,370.2,47.8,369.4,47.9z M379.8,56.4c-1.2,0-2.4-0.4-3.3-1.3c-0.9-1-1.4-2.3-1.3-3.6
		c-0.1-1.3,0.4-2.6,1.3-3.6c0.9-0.9,2.1-1.3,3.3-1.3c1.4-0.1,2.8,0.6,3.5,1.9l0,0v-6.4h1.4v14h-1.4v-1.6l0,0
		C382.6,55.7,381.3,56.4,379.8,56.4z M377.7,54c1.3,1.3,3.5,1.3,4.8,0c0,0,0,0,0,0c0.6-0.7,0.9-1.6,0.9-2.5c0-0.9-0.3-1.8-0.9-2.5
		c-1.3-1.3-3.5-1.3-4.8,0c0,0,0,0,0,0C376.5,50.4,376.5,52.5,377.7,54z M397.7,48h-2v5.4c-0.1,0.6,0.3,1.1,0.9,1.2
		c0.1,0,0.2,0,0.3,0h0.5V56h-0.8c-1.1,0.1-2.2-0.7-2.3-1.9c0-0.1,0-0.3,0-0.4V48h-1.8v-1.2h1.8v-3.7h1.4v3.7h2L397.7,48z
		 M403.3,46.5c1.3,0,2.6,0.5,3.6,1.4c1.9,2,1.9,5,0,7c-1,0.9-2.3,1.4-3.6,1.4c-1.3,0-2.6-0.5-3.6-1.4c-1.9-2-1.9-5,0-7
		C400.7,46.9,402,46.4,403.3,46.5z M405.8,48.9c-0.7-0.6-1.6-1-2.5-1c-0.9,0-1.8,0.3-2.5,1c-0.7,0.6-1.1,1.6-1,2.5
		c-0.1,0.9,0.3,1.9,1,2.5c0.7,0.6,1.6,1,2.5,1c1.9,0,3.5-1.4,3.5-3.3c0-0.1,0-0.1,0-0.2C406.9,50.4,406.5,49.5,405.8,48.9z
		 M297,63.8c1.3,0,2.5,0.3,3.6,0.9l-0.7,1.5c-0.9-0.5-1.9-0.8-2.9-0.8c-0.6,0-1.1,0.1-1.6,0.4c-0.4,0.3-0.5,0.7-0.5,1.2
		c0,0.4,0.1,0.8,0.4,1.1c0.3,0.4,0.7,0.7,1.1,1l2.3,1.7c0.7,0.5,1.3,1.1,1.8,1.8c0.4,0.6,0.6,1.4,0.6,2.1c0,1.1-0.4,2.1-1.2,2.8
		c-0.9,0.7-2.1,1-3.2,1c-1.6,0-3.1-0.4-4.4-1.3l0.7-1.4c1.1,0.7,2.4,1.2,3.7,1.2c0.7,0,1.4-0.2,2-0.6c0.5-0.4,0.7-0.9,0.7-1.5
		c0-0.5-0.1-0.9-0.4-1.3c-0.4-0.5-0.9-0.9-1.4-1.3l-2.3-1.7c-0.6-0.4-1.1-0.9-1.5-1.5c-0.4-0.6-0.6-1.2-0.5-1.9c0-0.9,0.3-1.8,1-2.4
		C295,64,296,63.6,297,63.8z M306.3,78.3c-0.9,0.1-1.9-0.3-2.5-1c-0.7-0.8-1.1-1.9-1-3v-5.6h1.5v5.5c-0.1,0.7,0.2,1.4,0.6,2
		c0.5,0.4,1.1,0.6,1.7,0.6c0.8,0,1.5-0.3,2-0.9c0.6-0.9,0.9-1.9,0.8-3v-4.2h1.4V78h-1.4v-1.7l0,0C309,77.6,307.7,78.5,306.3,78.3
		L306.3,78.3z M316.4,78.3c-1.3,0-2.7-0.4-3.8-1.1l0.7-1.3c0.9,0.7,2.1,1,3.2,1c0.5,0,1-0.1,1.4-0.3c0.3-0.2,0.5-0.5,0.5-0.9
		c0-0.5-0.4-1-1.3-1.4l-1.7-0.8c-1.1-0.4-1.9-1.4-2-2.6c0-0.7,0.3-1.4,0.9-1.8c0.7-0.4,1.5-0.6,2.3-0.6c1.1,0,2.1,0.2,3.1,0.7
		l-0.6,1.3c-0.8-0.4-1.6-0.6-2.5-0.6c-1.1,0-1.6,0.4-1.6,1.1c0,0.3,0.1,0.6,0.3,0.8c0.2,0.3,0.5,0.4,1,0.6l1.7,0.8
		c0.6,0.3,1.1,0.7,1.5,1.1c0.4,0.4,0.5,1,0.5,1.5c0,0.8-0.3,1.5-0.9,2C318.2,78.1,317.3,78.3,316.4,78.3L316.4,78.3z M325.9,70h-2
		v5.5c-0.1,0.6,0.3,1.1,0.9,1.2c0.1,0,0.2,0,0.3,0h0.5V78h-0.8c-1.1,0.1-2.2-0.7-2.3-1.9c0-0.1,0-0.3,0-0.4V70h-1.8v-1.2h1.8v-3.7
		h1.4v3.7h2L325.9,70z M331.1,78.3c-1.2,0-2.4-0.4-3.3-1.3c-1.7-2.1-1.7-5.1,0-7.2c0.9-0.9,2.1-1.3,3.3-1.3c1.4-0.1,2.8,0.6,3.5,1.9
		l0,0v-1.6h1.4V78h-1.4v-1.6l0,0C333.9,77.7,332.5,78.4,331.1,78.3L331.1,78.3z M329,76c1.3,1.3,3.5,1.3,4.8,0c0,0,0,0,0,0
		c0.6-0.7,0.9-1.6,0.9-2.5c0-0.9-0.3-1.8-0.9-2.5c-1.3-1.3-3.5-1.3-4.8,0c0,0,0,0,0,0C327.8,72.5,327.8,74.5,329,76z M340.3,64.3
		v2.4h-1.8v-2.4H340.3z M338.6,78.1v-9.2h1.4v9.2H338.6z M347.4,68.5c1-0.1,1.9,0.3,2.6,1c0.7,0.8,1,1.9,0.9,3v5.6h-1.4v-5.4
		c0.1-0.7-0.2-1.5-0.7-2c-0.5-0.4-1.1-0.7-1.8-0.7c-0.8,0-1.6,0.3-2.1,0.9c-0.6,0.8-0.9,1.9-0.8,2.9v4.3h-1.4v-9.2h1.4v1.8l0,0
		C344.6,69.3,345.9,68.4,347.4,68.5L347.4,68.5z M357.4,78.4c-1.2,0-2.4-0.4-3.3-1.3c-1.7-2.1-1.7-5.1,0-7.2
		c0.9-0.9,2.1-1.3,3.3-1.3c1.4-0.1,2.8,0.6,3.5,1.9l0,0v-1.6h1.4v9.2h-1.4v-1.6l0,0C360.2,77.7,358.8,78.4,357.4,78.4L357.4,78.4z
		 M355.2,76c1.3,1.3,3.5,1.3,4.8,0c0,0,0,0,0,0c0.6-0.7,0.9-1.6,0.9-2.5c0-0.9-0.3-1.8-0.9-2.5c-1.3-1.3-3.5-1.3-4.8,0c0,0,0,0,0,0
		C354,72.5,354,74.5,355.2,76L355.2,76z M369.9,78.4c-1.4,0.1-2.8-0.6-3.5-1.9l0,0v1.6H365v-14h1.4v6.4l0,0c0.7-1.3,2.1-2,3.5-1.9
		c1.2,0,2.4,0.4,3.3,1.3c2,1.8,2.1,4.9,0.3,6.9C372.6,77.8,371.3,78.4,369.9,78.4L369.9,78.4z M367.2,76c1.3,1.3,3.5,1.3,4.8,0
		c0,0,0,0,0,0c0.6-0.7,0.9-1.6,0.9-2.5c0-0.9-0.3-1.8-0.9-2.5c-1.3-1.3-3.5-1.3-4.8,0c0,0,0,0,0,0C366,72.5,366,74.5,367.2,76
		L367.2,76z M377.9,64.1v14h-1.4v-14H377.9z M384.6,68.5c1.3-0.1,2.5,0.4,3.3,1.4c0.8,1,1.2,2.2,1.1,3.5v0.3h-7.7
		c-0.1,1.7,1.2,3.2,2.9,3.3c0.1,0,0.3,0,0.4,0c0.5,0,1-0.1,1.5-0.3c0.4-0.2,0.7-0.4,1-0.6c0.3-0.2,0.5-0.5,0.7-0.8l1,0.9
		c-0.9,1.4-2.5,2.2-4.2,2.2c-1.3,0.1-2.6-0.4-3.5-1.3c-2-1.9-2-5.1-0.1-7.1C381.9,69,383.2,68.5,384.6,68.5L384.6,68.5z M384.5,69.9
		c-0.8,0-1.5,0.2-2.1,0.7c-0.6,0.5-1,1.2-1,2h6.1c0-0.8-0.4-1.5-0.9-2C386,70.1,385.3,69.8,384.5,69.9L384.5,69.9z M298.1,86.1
		c1.2-0.1,2.3,0.4,3.1,1.2c0.8,0.8,1.2,1.9,1.1,3c0,1.1-0.4,2.2-1.1,3c-0.8,0.8-1.9,1.3-3.1,1.2h-3.2v5.7h-1.5v-14L298.1,86.1
		L298.1,86.1z M298,92.9c0.7,0,1.5-0.2,2-0.7c0.9-1.2,0.9-2.8,0-4c-0.5-0.5-1.3-0.7-2-0.7h-3v5.3L298,92.9L298,92.9z M307.2,90.5
		c1.3-0.1,2.5,0.4,3.3,1.4c0.8,1,1.2,2.2,1.1,3.5v0.3h-7.7c-0.1,1.7,1.2,3.2,2.9,3.3c0.1,0,0.3,0,0.4,0c0.5,0,1-0.1,1.5-0.3
		c0.4-0.2,0.7-0.4,1-0.6c0.3-0.2,0.5-0.5,0.7-0.8l1,0.9c-0.9,1.4-2.5,2.2-4.2,2.2c-1.3,0.1-2.6-0.4-3.5-1.3c-1.7-2.1-1.7-5.1,0-7.2
		C304.6,91,305.9,90.4,307.2,90.5L307.2,90.5z M307.1,91.9c-0.8,0-1.5,0.2-2.1,0.7c-0.6,0.5-1,1.2-1,2h6.1c0-0.8-0.4-1.5-0.9-2
		C308.6,92.1,307.9,91.8,307.1,91.9L307.1,91.9z M318.4,90.5v1.7h-0.3c-0.9,0-1.7,0.3-2.3,0.9c-0.6,0.7-0.8,1.7-0.8,2.6v4.3h-1.4
		v-9.2h1.4v2.1l0,0c0.2-0.7,0.6-1.3,1.1-1.7c0.6-0.4,1.3-0.6,2-0.6L318.4,90.5L318.4,90.5z M324.2,87.2c-1.3,0-1.9,0.7-1.9,2v1.6
		h2.1V92h-2.1v8h-1.4v-8h-1.7v-1.2h1.7v-1.5c-0.1-1,0.3-1.9,0.9-2.6c0.6-0.6,1.5-0.9,2.4-0.9h0.3v1.4H324.2z M329.7,90.5
		c1.3,0,2.6,0.5,3.6,1.4c1.9,2,1.9,5,0,7c-1,0.9-2.3,1.4-3.6,1.4c-1.3,0-2.6-0.5-3.6-1.4c-1.9-2-1.9-5,0-7
		C327.1,90.9,328.4,90.4,329.7,90.5L329.7,90.5z M332.2,92.9c-0.7-0.6-1.6-1-2.5-1c-0.9,0-1.8,0.3-2.5,1c-0.7,0.6-1.1,1.6-1,2.5
		c-0.1,0.9,0.3,1.9,1,2.5c0.7,0.6,1.6,1,2.5,1c1.9,0,3.5-1.4,3.5-3.3c0-0.1,0-0.1,0-0.2C333.2,94.5,332.9,93.5,332.2,92.9
		L332.2,92.9z M341.4,90.5v1.7h-0.3c-0.9,0-1.7,0.3-2.3,0.9c-0.6,0.7-0.8,1.7-0.8,2.6v4.3h-1.4v-9.2h1.4v2.1l0,0
		c0.2-0.7,0.6-1.3,1.1-1.7c0.6-0.4,1.3-0.6,2-0.6L341.4,90.5L341.4,90.5z M342.9,100.1v-9.2h1.4v1.7l0,0c0.4-1.2,1.6-2.1,2.9-2
		c1.3-0.1,2.5,0.8,2.9,2.1l0,0c0.2-0.6,0.7-1.1,1.2-1.5c0.6-0.3,1.2-0.5,1.9-0.5c0.9,0,1.7,0.3,2.3,0.9c0.7,0.8,1,1.9,0.9,2.9v5.8
		H355v-5.7c0-1.6-0.7-2.4-2.1-2.4c-0.7,0-1.4,0.3-1.8,0.8c-0.5,0.7-0.7,1.6-0.7,2.5v4.8H349v-5.5c0-1.8-0.7-2.6-2.2-2.6
		c-0.7,0-1.4,0.3-1.8,0.9c-0.5,0.8-0.7,1.7-0.7,2.6v4.6h-1.4L342.9,100.1z M362.9,100.4c-1.2,0-2.4-0.4-3.3-1.3
		c-1.7-2.1-1.7-5.1,0-7.2c0.9-0.9,2.1-1.3,3.3-1.3c1.4-0.1,2.8,0.6,3.5,1.9l0,0v-1.6h1.4v9.2h-1.4v-1.6l0,0
		C365.7,99.7,364.3,100.4,362.9,100.4L362.9,100.4z M360.8,98c1.3,1.3,3.5,1.3,4.8,0c0,0,0,0,0,0c0.6-0.7,0.9-1.6,0.9-2.5
		c0-0.9-0.3-1.8-0.9-2.5c-1.3-1.3-3.5-1.3-4.8,0c0,0,0,0,0,0C359.6,94.5,359.6,96.5,360.8,98z M375.2,90.5c1-0.1,1.9,0.3,2.6,1
		c0.7,0.8,1,1.9,0.9,3v5.6h-1.4v-5.4c0.1-0.7-0.2-1.5-0.7-2c-0.5-0.4-1.1-0.7-1.8-0.7c-0.8,0-1.6,0.3-2.1,0.9
		c-0.6,0.8-0.9,1.9-0.8,2.9v4.3h-1.4v-9.2h1.4v1.8l0,0C372.4,91.3,373.7,90.3,375.2,90.5L375.2,90.5z M385.6,100.4c-2.8,0-5-2.2-5-5
		s2.2-5,5-5c1.1,0,2.2,0.3,3.2,0.9l-0.7,1.2c-0.8-0.5-1.6-0.8-2.5-0.8c-0.9-0.1-1.9,0.3-2.5,1c-0.6,0.7-1,1.6-1,2.5
		c0,1.9,1.4,3.5,3.3,3.5c0.1,0,0.1,0,0.2,0c0.9,0,1.7-0.3,2.5-0.8l0.7,1.2C388,99.9,386.8,100.4,385.6,100.4L385.6,100.4z M394,90.5
		c1.3-0.1,2.5,0.4,3.3,1.4c0.8,1,1.2,2.2,1.1,3.5v0.3h-7.7c-0.1,1.7,1.2,3.2,2.9,3.3c0.1,0,0.3,0,0.4,0c0.5,0,1-0.1,1.5-0.3
		c0.4-0.2,0.7-0.4,1-0.6c0.3-0.2,0.5-0.5,0.7-0.8l1,0.9c-0.9,1.4-2.5,2.2-4.2,2.2c-1.3,0.1-2.6-0.4-3.5-1.3c-2-1.9-2-5.1-0.1-7.1
		C391.3,91,392.6,90.5,394,90.5L394,90.5z M393.9,91.9c-0.8,0-1.5,0.2-2.1,0.7c-0.6,0.5-1,1.2-1,2h6.1c0-0.8-0.4-1.5-0.9-2
		C395.4,92.1,394.7,91.8,393.9,91.9L393.9,91.9z"/>
</g>
</svg>
