<?xml version="1.0" encoding="utf-8"?>
<!-- Generator: Adobe Illustrator 24.0.2, SVG Export Plug-In . SVG Version: 6.00 Build 0)  -->
<svg version="1.1" id="Capa_1" xmlns="http://www.w3.org/2000/svg" xmlns:xlink="http://www.w3.org/1999/xlink" x="0px" y="0px"
	 viewBox="0 0 186.2 40" style="enable-background:new 0 0 186.2 40;" xml:space="preserve">
<style type="text/css">
	.st0{fill:#FFFFFF;}
</style>
<g>
	<path class="st0" d="M37,0H4.4c-2,0-3.7,1.6-3.7,3.7v32.6c0,2,1.6,3.7,3.7,3.7H37c2,0,3.7-1.6,3.7-3.7V3.7C40.7,1.6,39.1,0,37,0z
		 M39.6,36.3c0,1.4-1.1,2.5-2.5,2.5H4.4c-1.4,0-2.5-1.1-2.5-2.5V3.7c0-1.4,1.1-2.5,2.5-2.5H37c1.4,0,2.5,1.1,2.5,2.5V36.3z"/>
	<polygon class="st0" points="22.9,16.4 16.7,22.6 19.1,23.3 25.2,17.1 	"/>
	<path class="st0" d="M18.6,15.1c-2.3-0.7-5,0-6.8,1.9l-6.9,6.9l3.4,1c2.1,0.6,3.9-0.3,5.7-2l7-7L18.6,15.1z"/>
	<path class="st0" d="M27.9,17L21,23.8l3.4,1c2.1,0.6,3.9-0.3,5.7-2l7-7l-2.4-0.7C32.3,14.4,29.7,15.1,27.9,17z"/>
	<path class="st0" d="M53.4,9.6c-0.2,0-0.4,0.1-0.6,0.2c-0.2,0.2-0.2,0.3-0.2,0.6v19.1c0,0.2,0.1,0.4,0.2,0.6
		c0.1,0.2,0.3,0.2,0.6,0.2c0.2,0,0.4-0.1,0.6-0.2c0.1-0.1,0.2-0.3,0.2-0.6V10.4c0-0.2-0.1-0.4-0.2-0.6C53.9,9.7,53.7,9.6,53.4,9.6z"
		/>
	<path class="st0" d="M66.3,18.6c-1.1-0.2-2.1-0.5-2.8-0.8c-0.7-0.4-1.3-0.8-1.6-1.4c-0.3-0.5-0.5-1.1-0.5-1.7
		c0-1.2,0.4-2.1,1.2-2.8c0.8-0.7,2-1,3.4-1c0.8,0,1.5,0.1,2.1,0.3c0.6,0.2,1.1,0.5,1.5,0.9c0.4,0.3,0.7,0.7,1,1.1
		c0.1,0.2,0.3,0.3,0.5,0.4c0.2,0.1,0.4,0.1,0.6,0c0.2-0.1,0.4-0.2,0.5-0.5c0.1-0.2,0-0.4-0.1-0.6c-0.3-0.5-0.8-1-1.4-1.5
		c-0.6-0.5-1.3-0.9-2-1.2c-0.8-0.3-1.6-0.5-2.5-0.5c-1.2,0-2.3,0.2-3.3,0.6c-1,0.5-1.7,1.1-2.2,1.8c-0.5,0.8-0.8,1.7-0.8,2.7
		c0,1.4,0.6,2.7,1.7,3.6c1.1,1,2.7,1.6,4.6,1.9c1.7,0.2,3,0.7,3.8,1.5c0.8,0.8,1.3,1.8,1.3,3c0,0.9-0.2,1.7-0.6,2.4
		c-0.4,0.7-1,1.1-1.7,1.5c-0.7,0.3-1.6,0.5-2.6,0.5c-0.9,0-1.7-0.1-2.4-0.3c-0.7-0.2-1.4-0.5-1.9-1c-0.5-0.4-0.9-0.9-1.2-1.5
		c-0.1-0.2-0.3-0.3-0.5-0.4s-0.4-0.1-0.6,0c-0.2,0.1-0.4,0.2-0.5,0.4c-0.1,0.2-0.1,0.4,0,0.6c0.4,0.8,0.9,1.5,1.6,2
		c0.7,0.6,1.5,1,2.4,1.3c0.9,0.3,1.9,0.5,3.1,0.5c1,0,1.9-0.1,2.7-0.4c0.8-0.3,1.5-0.7,2-1.2c0.6-0.5,1-1.1,1.4-1.9
		c0.3-0.7,0.5-1.6,0.5-2.5c0-1.6-0.5-2.9-1.5-3.9C70.2,19.7,68.6,19,66.3,18.6z"/>
	<path class="st0" d="M85.1,10.2c-0.2-0.4-0.4-0.6-0.8-0.6c-0.4,0-0.6,0.2-0.8,0.6l-8,19c-0.1,0.2-0.1,0.5,0,0.7
		c0.1,0.3,0.3,0.4,0.7,0.4c0.2,0,0.3-0.1,0.5-0.1c0.1-0.1,0.2-0.2,0.3-0.4l2-4.7h10.8l2,4.7c0.1,0.2,0.2,0.3,0.3,0.4
		c0.1,0.1,0.2,0.1,0.4,0.1c0.3,0,0.5-0.1,0.7-0.4c0.2-0.2,0.2-0.5,0-0.7L85.1,10.2z M79.5,23.7l4.8-11.5l4.8,11.5H79.5z"/>
	<path class="st0" d="M104.3,21.8c0.4-0.1,0.9-0.3,1.3-0.5c1-0.5,1.8-1.3,2.3-2.2c0.6-0.9,0.8-2,0.8-3.2c0-1.2-0.3-2.3-0.8-3.3
		c-0.6-0.9-1.4-1.7-2.3-2.2c-1-0.6-2.1-0.8-3.4-0.8H97c-0.2,0-0.4,0.1-0.6,0.2c-0.2,0.1-0.2,0.3-0.2,0.6v19.1c0,0.2,0.1,0.4,0.2,0.6
		c0.1,0.2,0.3,0.2,0.6,0.2c0.2,0,0.5-0.1,0.6-0.2c0.1-0.1,0.2-0.3,0.2-0.6v-7.4h4.3c0.2,0,0.3,0,0.5,0l4.9,7.8
		c0.1,0.1,0.2,0.2,0.3,0.3c0.1,0.1,0.2,0.1,0.4,0.1c0.4,0,0.7-0.1,0.8-0.3c0.1-0.2,0.1-0.5-0.2-0.9L104.3,21.8z M97.8,20.5v-9.3h4.3
		c1,0,1.9,0.2,2.6,0.6c0.7,0.4,1.3,1,1.8,1.7c0.4,0.7,0.6,1.5,0.6,2.4c0,0.9-0.2,1.7-0.6,2.4c-0.5,0.7-1,1.2-1.8,1.6
		c-0.8,0.4-1.6,0.6-2.6,0.6H97.8z"/>
	<path class="st0" d="M118.9,18.6c-1.1-0.2-2.1-0.5-2.8-0.8c-0.7-0.4-1.3-0.8-1.6-1.4c-0.3-0.5-0.5-1.1-0.5-1.7
		c0-1.2,0.4-2.1,1.2-2.8c0.8-0.7,2-1,3.4-1c0.8,0,1.5,0.1,2.1,0.3c0.6,0.2,1.1,0.5,1.5,0.9c0.4,0.3,0.7,0.7,1,1.1
		c0.1,0.2,0.3,0.3,0.5,0.4c0.2,0.1,0.4,0.1,0.6,0c0.2-0.1,0.4-0.2,0.5-0.5c0.1-0.2,0-0.4-0.1-0.6c-0.3-0.5-0.8-1-1.4-1.5
		c-0.6-0.5-1.3-0.9-2-1.2c-0.8-0.3-1.6-0.5-2.5-0.5c-1.2,0-2.3,0.2-3.3,0.6c-1,0.5-1.7,1.1-2.2,1.8c-0.5,0.8-0.8,1.7-0.8,2.7
		c0,1.4,0.6,2.7,1.7,3.6c1.1,1,2.7,1.6,4.6,1.9c1.7,0.2,3,0.7,3.8,1.5c0.8,0.8,1.3,1.8,1.3,3c0,0.9-0.2,1.7-0.6,2.4
		c-0.4,0.7-1,1.1-1.7,1.5c-0.7,0.3-1.6,0.5-2.6,0.5c-0.9,0-1.7-0.1-2.4-0.3c-0.7-0.2-1.4-0.5-1.9-1c-0.5-0.4-0.9-0.9-1.2-1.5
		c-0.1-0.2-0.3-0.3-0.5-0.4s-0.4-0.1-0.6,0c-0.2,0.1-0.4,0.2-0.5,0.4c-0.1,0.2-0.1,0.4,0,0.6c0.4,0.8,0.9,1.5,1.6,2
		c0.7,0.6,1.5,1,2.4,1.3c0.9,0.3,1.9,0.5,3.1,0.5c1,0,1.9-0.1,2.7-0.4c0.8-0.3,1.5-0.7,2-1.2c0.6-0.5,1-1.1,1.4-1.9
		c0.3-0.7,0.5-1.6,0.5-2.5c0-1.6-0.5-2.9-1.5-3.9C122.8,19.7,121.2,19,118.9,18.6z"/>
	<path class="st0" d="M147.4,12.4c-1-1-2.1-1.7-3.4-2.2c-1.3-0.5-2.7-0.8-4.2-0.8c-1.5,0-2.9,0.3-4.2,0.8c-1.3,0.5-2.4,1.3-3.4,2.2
		c-1,1-1.7,2.1-2.2,3.4c-0.5,1.3-0.8,2.7-0.8,4.2c0,1.5,0.3,2.9,0.8,4.2c0.5,1.3,1.3,2.4,2.2,3.4c1,1,2.1,1.7,3.4,2.3
		s2.7,0.8,4.2,0.8c1.5,0,2.9-0.3,4.2-0.8c1.3-0.5,2.4-1.3,3.4-2.3c1-1,1.7-2.1,2.2-3.4c0.5-1.3,0.8-2.7,0.8-4.2
		c0-1.5-0.3-2.9-0.8-4.2C149.1,14.5,148.3,13.4,147.4,12.4z M148.1,23.6c-0.5,1.1-1.1,2-1.9,2.9c-0.8,0.8-1.8,1.5-2.9,1.9
		c-1.1,0.5-2.3,0.7-3.6,0.7c-1.3,0-2.5-0.2-3.6-0.7c-1.1-0.5-2-1.1-2.9-1.9c-0.8-0.8-1.5-1.8-1.9-2.9s-0.7-2.3-0.7-3.6
		c0-1.3,0.2-2.5,0.7-3.6c0.5-1.1,1.1-2.1,1.9-2.9c0.8-0.8,1.8-1.5,2.9-1.9c1.1-0.5,2.3-0.7,3.6-0.7c1.3,0,2.5,0.2,3.6,0.7
		c1.1,0.5,2,1.1,2.9,1.9c0.8,0.8,1.5,1.8,1.9,2.9c0.5,1.1,0.7,2.3,0.7,3.6C148.8,21.3,148.6,22.5,148.1,23.6z"/>
	<path class="st0" d="M166.6,9.6h-12.8c-0.2,0-0.4,0.1-0.6,0.2c-0.2,0.2-0.2,0.3-0.2,0.6v19.1c0,0.2,0.1,0.4,0.2,0.6
		c0.1,0.2,0.3,0.2,0.6,0.2c0.2,0,0.4-0.1,0.6-0.2c0.1-0.1,0.2-0.3,0.2-0.6v-8.8h8.8c0.2,0,0.5-0.1,0.6-0.2c0.1-0.1,0.2-0.3,0.2-0.6
		c0-0.2-0.1-0.4-0.2-0.6c-0.1-0.2-0.3-0.2-0.6-0.2h-8.8v-8h12c0.2,0,0.4-0.1,0.6-0.2s0.2-0.3,0.2-0.5c0-0.2-0.1-0.5-0.2-0.6
		C167,9.7,166.8,9.6,166.6,9.6z"/>
	<path class="st0" d="M185.2,9.8c-0.1-0.1-0.3-0.2-0.5-0.2H178h-1.6h-6.7c-0.2,0-0.4,0.1-0.5,0.2c-0.1,0.1-0.2,0.3-0.2,0.6
		c0,0.2,0.1,0.3,0.2,0.5c0.1,0.1,0.3,0.2,0.5,0.2h6.7v18.5c0,0.2,0.1,0.4,0.2,0.6c0.1,0.2,0.3,0.2,0.6,0.2s0.4-0.1,0.6-0.2
		c0.2-0.1,0.2-0.3,0.2-0.6V11.1h6.7c0.2,0,0.4-0.1,0.5-0.2c0.1-0.1,0.2-0.3,0.2-0.5C185.4,10.1,185.3,9.9,185.2,9.8z"/>
</g>
</svg>
