<?xml version="1.0" encoding="utf-8"?>
<!-- Generator: Adobe Illustrator 24.0.2, SVG Export Plug-In . SVG Version: 6.00 Build 0)  -->
<svg version="1.1" id="Layer_1" xmlns="http://www.w3.org/2000/svg" xmlns:xlink="http://www.w3.org/1999/xlink" x="0px" y="0px"
	 viewBox="0 0 330.7 86.5" style="enable-background:new 0 0 330.7 86.5;" xml:space="preserve">
<style type="text/css">
	.st0{fill:#D1D1D1;}
	.st1{fill:#FFFFFF;}
</style>
<title>Pellenc-logo</title>
<g>
	<g>
		<path class="st0" d="M24.1,28.9c2.1,0,3.9,1.7,3.9,3.8c0,0,0,0,0,0v46c0,2.1-1.7,3.9-3.9,3.9c-2.1,0-3.9-1.7-3.9-3.9v-46
			C20.3,30.6,22,28.9,24.1,28.9"/>
		<path class="st0" d="M48.5,56.1c-2.1,0-3.9-1.7-3.9-3.8c0,0,0,0,0,0v-44c-0.1-2.1,1.5-4,3.7-4.1c2.1-0.1,4,1.5,4.1,3.7
			c0,0.1,0,0.3,0,0.4v44C52.4,54.4,50.6,56.1,48.5,56.1L48.5,56.1"/>
		<path class="st1" d="M15,21.7c0.3,0,0.6,0.3,0.6,0.6v42.5c0,0.3-0.3,0.6-0.6,0.6H8.6c-0.3,0-0.6-0.3-0.6-0.6c0,0,0,0,0,0V22.3
			c0-0.3,0.3-0.6,0.6-0.6l0,0H15"/>
		<path class="st1" d="M33.1,65.3c-0.3,0-0.6-0.3-0.6-0.6c0,0,0,0,0,0V22.3c0-0.3,0.3-0.6,0.6-0.6c0,0,0,0,0,0h6.4
			c0.3,0,0.6,0.3,0.6,0.6c0,0,0,0,0,0v42.5c0,0.3-0.3,0.6-0.6,0.6c0,0,0,0,0,0H33.1"/>
		<path class="st1" d="M57.6,65.3c-0.3,0-0.6-0.3-0.6-0.6c0,0,0,0,0,0V22.3c0-0.3,0.3-0.6,0.6-0.6c0,0,0,0,0,0H64
			c0.3,0,0.6,0.3,0.6,0.6c0,0,0,0,0,0v42.5c0,0.3-0.3,0.6-0.6,0.6c0,0,0,0,0,0H57.6"/>
		<path class="st1" d="M76.4,65.3h6v-8.6h5c7,0,11.5-3.9,11.5-10v-0.1c0-6-4.3-9.8-10.9-9.8H76.4V65.3z M87.6,51.3h-5.1v-9.1h5
			c3.3,0,5.3,1.6,5.3,4.5v0.1C92.7,49.5,90.6,51.3,87.6,51.3"/>
		<polygon class="st1" points="103.7,65.3 125.4,65.3 125.4,60 109.7,60 109.7,53.7 123.3,53.7 123.3,48.3 109.7,48.3 109.7,42.2 
			125.2,42.2 125.2,36.8 103.7,36.8 		"/>
		<polygon class="st1" points="131.2,65.3 151.6,65.3 151.6,59.8 137.2,59.8 137.2,36.8 131.2,36.8 		"/>
		<polygon class="st1" points="156.6,65.3 176.9,65.3 176.9,59.8 162.6,59.8 162.6,36.8 156.6,36.8 		"/>
		<polygon class="st1" points="181.9,65.3 203.5,65.3 203.5,60 187.9,60 187.9,53.7 201.5,53.7 201.5,48.3 187.9,48.3 187.9,42.2 
			203.3,42.2 203.3,36.8 181.9,36.8 		"/>
		<polygon class="st1" points="229.5,65.3 234.6,65.3 234.6,36.8 228.7,36.8 228.7,54.8 228.4,54.5 215,36.8 209.4,36.8 209.4,65.3 
			215.3,65.3 215.3,46.8 215.6,47.1 		"/>
		<path class="st1" d="M255.3,36.3c-8-0.2-14.6,6.1-14.9,14.1c0,0.2,0,0.4,0,0.7v0.1c-0.2,7.9,6.1,14.5,14,14.7c0.2,0,0.4,0,0.6,0
			c4.4,0.2,8.7-1.6,11.6-5l-3.8-3.9c-2.2,2.1-4.3,3.3-7.6,3.3c-4.8,0-8.5-4-8.5-9.2V51c0-5.2,3.6-9.1,8.5-9.1c2.6,0,4.8,1,7.4,3.2
			l3.8-4.4C263.5,37.7,260,36.4,255.3,36.3"/>
		<path class="st1" d="M277,61.2l1.4-1.6c3.2,3,6.1,4.3,10.3,4.3s7.3-2.4,7.3-5.7v-0.1c0-3-1.6-4.8-8.1-6.1c-7-1.4-9.7-3.7-9.7-8.1
			v-0.1c0-4.3,3.9-7.5,9.3-7.5c3.6-0.1,7.1,1.1,9.9,3.5l-1.4,1.7c-2.4-2.1-5.4-3.3-8.6-3.2c-4.3,0-7,2.5-7,5.4v0.1
			c0,3.1,1.6,4.8,8.4,6.3s9.5,3.7,9.5,7.9V58c0,4.6-4,7.8-9.5,7.8C284.3,65.9,280.1,64.2,277,61.2"/>
		<polygon class="st1" points="312.1,38.8 302,38.8 302,36.8 324.2,36.8 324.2,38.8 314.2,38.8 314.2,65.3 312.1,65.3 		"/>
	</g>
</g>
</svg>
