<?xml version="1.0" encoding="utf-8"?>
<!-- Generator: Adobe Illustrator 24.0.2, SVG Export Plug-In . SVG Version: 6.00 Build 0)  -->
<svg version="1.1" id="layer" xmlns="http://www.w3.org/2000/svg" xmlns:xlink="http://www.w3.org/1999/xlink" x="0px" y="0px"
	 viewBox="0 0 185.9 185.9" style="enable-background:new 0 0 185.9 185.9;" xml:space="preserve">
<style type="text/css">
	.st0{fill:#FFFFFF;}
</style>
<g>
	<path class="st0" d="M68.2,78.9c0.1,5.6-4.5,10.2-10.1,10.2H46.3V68.7H58C63.7,68.7,68.2,73.3,68.2,78.9z"/>
	<path class="st0" d="M144.4,89.1h-23.7c0.9-5.2,5.9-9.6,11.7-9.6C138.2,79.5,143.6,83.6,144.4,89.1z"/>
	<path class="st0" d="M93,0C41.6,0,0,41.7,0,93c0,51.3,41.5,93,92.9,93c51.4,0,93-41.7,93-93C185.9,41.6,144.4,0,93,0z M132.9,109.7
		h14.8c2.2,0,3.9,1.8,3.9,4s-1.9,4-4.1,4h-14.7c-11.2,0-20.4-9-20.4-20.7H97.3v9.1c0,2,1.5,3.6,3.4,3.6h2.3c2.3,0,4,1.8,4,4
		s-1.8,4-4,4h-2.3c-6.6,0-11.5-4.7-11.5-11.5c0,0,0-8.2,0-9.2H70.8l10.4,14.5c1.3,1.8,0.8,4.2-0.9,5.5c-0.7,0.4-1.5,0.7-2.3,0.7
		c-1.2,0-2.4-0.5-3.2-1.6L61,97H46.2v16.7c0,2.2-1.7,3.9-3.9,3.9s-3.9-1.7-3.9-3.9v-49c0-2.2,1.7-3.9,3.9-3.9h15.8
		c10,0,18.1,8.1,18.1,18.1c0,3.8-1.4,7.6-3.6,10.2h16.6V75.5c0-2.2,1.8-3.9,4-3.9c2.1,0,4,1.7,4,3.9v13.6h15.2
		c1.3-9.8,9.9-17.5,20.1-17.5c11.1,0,20.1,8.7,20.1,20.9c0,2.3-1.9,4.5-4.2,4.5h-27.8C120.6,104.4,126.1,109.7,132.9,109.7z"/>
</g>
</svg>
