<?xml version="1.0" encoding="utf-8"?>
<!-- Generator: Adobe Illustrator 24.0.2, SVG Export Plug-In . SVG Version: 6.00 Build 0)  -->
<svg version="1.1" id="Capa_1" xmlns="http://www.w3.org/2000/svg" xmlns:xlink="http://www.w3.org/1999/xlink" x="0px" y="0px"
	 viewBox="0 0 862.1 101.7" style="enable-background:new 0 0 862.1 101.7;" xml:space="preserve">
<style type="text/css">
	.st0{fill:#FFFFFF;}
</style>
<g>
	<path class="st0" d="M734,57.3c-0.1,0.3-0.1,0.4-0.1,0.6c0,5.7-0.1,11.4,0,17.1c0.1,4.2,2.6,6.4,6.7,6.4c6,0,12.1,0,18.1,0
		c4.5,0,7-2.4,7.1-6.9c0-1.9,0-3.9,0-5.9c7.8,0,15.4,0,23.2,0c0,2.5,0.1,5.1,0,7.6c-0.2,3.6-0.8,7.1-2.2,10.5
		c-3,7.1-8.5,11.2-15.9,12.8c-2.9,0.6-6,0.9-9,1c-8.2,0.1-16.4,0.1-24.6,0c-4.1,0-8.2-0.5-12.1-2c-8.2-3.1-12.6-9.2-14.2-17.5
		c-0.5-2.6-0.7-5.4-0.7-8.1c-0.1-15.3-0.1-30.6,0-45.8c0-4.9,0.9-9.7,3.2-14.1c3.5-6.7,9.3-10.2,16.5-11.4c2.8-0.5,5.6-0.7,8.5-0.7
		c8-0.1,16-0.1,24,0c3.6,0,7.1,0.4,10.5,1.5c8.8,2.8,13.7,9,15.4,17.8c0.5,2.7,0.7,5.5,0.7,8.3c0.1,8.9,0,17.9,0,26.8
		c0,2.1,0.4,2-2,2c-17.1,0-34.1,0-51.2,0C735.2,57.2,734.6,57.2,734,57.3z M749.9,39.2c5,0,9.9,0,14.9,0c0.9,0,1.3-0.3,1.3-1.2
		c0-3.8,0.1-7.7,0-11.5c-0.1-4.7-2.4-6.9-7.1-6.9c-5.9,0-11.8,0-17.7,0c-4.8,0-7.2,2.3-7.2,7.2c0,3.7,0,7.3,0,11
		c0,1.2,0.4,1.4,1.4,1.4C740.2,39.2,745,39.2,749.9,39.2z"/>
	<path class="st0" d="M454.9,50.6c0-7.8,0-15.6,0-23.3c0-4.2,0.6-8.3,2.2-12.3c3.2-7.8,9.3-12.1,17.4-13.5c2.9-0.5,5.9-0.7,8.8-0.7
		c8.7-0.1,17.4-0.1,26.1,0c3.6,0,7.3,0.4,10.7,1.5c8.9,2.8,14,8.9,15.8,17.9c0.5,2.7,0.7,5.5,0.7,8.3c0.1,15.4,0.1,30.9,0,46.3
		c0,4.7-1,9.2-3.2,13.4c-3.6,6.7-9.4,10.3-16.7,11.5c-3,0.5-6,0.7-9.1,0.7c-8.6,0.1-17.2,0.2-25.8,0c-3.4-0.1-6.9-0.5-10.2-1.3
		c-9.3-2.4-14.5-8.8-16.3-18c-0.5-2.7-0.7-5.5-0.7-8.3C454.9,65.3,454.9,57.9,454.9,50.6z M478.8,50.4c0,7.8,0,15.6,0,23.5
		c0,3.7,2.3,6.2,6,6.3c7,0.1,14.1,0.2,21.1,0.1c5.1-0.1,7.1-2.4,7.1-7.5c0-4.3,0-8.6,0-12.9c0-10.8,0-21.5,0-32.3
		c0-4-2.1-6.4-6.2-6.5c-7-0.2-14-0.2-21-0.1c-5.1,0.1-7.1,2.3-7.1,7.4C478.8,35.7,478.8,43.1,478.8,50.4z"/>
	<path class="st0" d="M639.2,9.9c2.5-1.7,4.9-3.1,7.2-4.7c4.5-3.3,9.5-4.5,15-4.5c5.5,0.1,11-0.1,16.5,0.3
		c11.6,0.7,19.3,7.4,20.5,19.7c0.2,1.7,0.2,3.5,0.2,5.3c0,24,0,48,0,72.1c0,1.6,0,1.6-1.6,1.6c-6.8,0-13.7,0-20.5,0
		c-1.7,0-1.7,0-1.7-1.7c0-23.1,0-46.3,0-69.4c0-0.7,0-1.4-0.1-2c-0.6-3.3-2.5-5-6.1-5.2c-3.4-0.1-6.9-0.1-10.3,0.2
		c-1.6,0.1-3.4,0.8-4.8,1.7c-4.3,2.6-8.4,5.4-12.5,8.2c-0.4,0.3-0.7,1-0.7,1.5c-0.1,4.2,0,8.5,0,12.7c0,17.5,0,35,0,52.4
		c0,1.6,0,1.6-1.6,1.6c-6.9,0-13.8,0-20.8,0c-1.1,0-1.5-0.2-1.5-1.4c0-31.7,0-63.4,0-95.2c0-1.1,0.2-1.5,1.4-1.4
		c6.3,0,12.6,0,18.8,0c1,0,1.5,0.3,1.6,1.4C638.4,5.2,638.8,7.4,639.2,9.9z"/>
	<path class="st0" d="M78.9,31.4c-8,0-15.7,0-23.5,0c0-0.4-0.1-0.8-0.1-1.2c0-1.6,0-3.2,0-4.8c0-4-2.2-6.2-6.2-6.4
		c-0.2,0-0.5,0-0.7,0c-5.3,0-10.6,0-15.8,0c-1.3,0-2.6,0.2-3.7,0.6c-2.1,0.8-3.2,2.4-3.2,4.7c0,2.8,0,5.7,0,8.5c0,2.4,1,3.6,3.3,4.2
		c10.9,2.6,21.7,5.2,32.6,7.9c3.2,0.8,6.4,1.6,9.3,3c6.2,3,9.4,8,9.4,15c0,4.8,0,9.7,0,14.5c0,12.2-6.7,20.2-18.8,22.2
		c-2.8,0.5-5.6,0.7-8.5,0.7c-9,0.1-17.9,0.1-26.9,0c-4.3,0-8.5-0.9-12.4-2.7c-7-3.2-11-8.9-12.1-16.4C0.9,77,1,72.6,0.7,68.2
		c8.1,0,15.8,0,23.7,0c0,2.2,0,4.3,0,6.4c0,5.3,2,7.4,7.4,7.4c6,0,11.9,0,17.9,0c1.3,0,2.7-0.2,4-0.6c2-0.6,3.1-2.2,3.2-4.2
		c0.1-3.2,0.1-6.5,0-9.7c0-2-1.2-3.3-3.5-4c-2.2-0.6-4.5-1.2-6.7-1.7C36.3,59.1,26,56.6,15.7,54C7.1,51.8,2.1,45.4,2.1,36.6
		c0-4.5-0.1-8.9,0-13.4c0.1-6.1,1.8-11.6,6.5-16c3.6-3.3,7.9-5.1,12.7-5.8c2.7-0.4,5.6-0.7,8.3-0.7c8.1-0.1,16.2-0.1,24.3,0
		c4.1,0.1,8,0.8,11.8,2.4c7.5,3.3,11.6,9.2,12.6,17.2C78.9,23.9,78.8,27.6,78.9,31.4z"/>
	<path class="st0" d="M115,99.7c-8.1,0-16,0-24,0c0-32.7,0-65.4,0-98.2c7.9,0,15.8,0,23.9,0c0,12.4,0,24.8,0,37.3
		c2.8,0,5.3-0.1,7.9,0c1.4,0.1,2.6-0.3,3.7-1.2c6.7-4.7,13.3-9.4,20.1-13.9c2.8-1.9,4.1-4.3,4-7.7c-0.2-4.8,0-9.6,0-14.5
		c7.3,0,14.5,0,21.9,0c0,0.4,0,0.8,0,1.3c0,5.6-0.2,11.3,0,16.9c0.2,6-2.1,10.7-6.6,14.3c-4,3.2-8.3,6-12.5,8.9
		c-2.6,1.8-5.2,3.6-8,5.5c2.4,2.3,4.7,4.5,7,6.7c5.3,5,10.6,10,15.7,15.1c4.1,4.1,6.2,9.1,5.9,15c-0.2,4.3,0,8.7,0,13
		c0,0.5,0,0.9,0,1.5c-7.8,0-15.4,0-23.2,0c0-0.5-0.1-0.9-0.1-1.3c0-3.3-0.1-6.5,0-9.8c0.1-3.3-1.2-6-3.5-8.2
		c-6.8-6.7-13.6-13.4-20.4-20.1c-0.4-0.4-1.2-0.7-1.7-0.7c-3.4-0.1-6.7,0-10.2,0C115,72.9,115,86.2,115,99.7z"/>
	<path class="st0" d="M421.7,64.4c0.3,0,0.6-0.1,0.9-0.1c7,0,14.1,0,21.1,0c0.7,0,1.2,0,1.2,0.9c-0.1,5.4,0.2,10.8-0.8,16.1
		c-1.9,9.8-8.7,16.6-18.6,18.3c-2.6,0.4-5.3,0.7-8,0.7c-8,0.1-15.9,0.1-23.9,0c-4,0-7.9-0.5-11.7-1.8c-8.5-3-13.2-9.1-14.8-17.7
		c-0.5-2.7-0.7-5.5-0.7-8.3c-0.1-15.4-0.1-30.7,0-46.1c0-4.3,0.8-8.6,2.7-12.5c3.4-7.3,9.3-11.2,17-12.5c2.8-0.5,5.6-0.7,8.5-0.7
		c7.9-0.1,15.8-0.1,23.6,0c3.6,0,7.1,0.4,10.5,1.5C437.3,5,442.1,11,444,19.6c1.1,4.9,0.8,9.8,0.8,14.8c0,0.7-0.3,1-1,1
		c-7.1,0-14.2,0-21.4,0c-0.8,0-0.9-0.3-0.9-1c0-2.1,0-4.2,0-6.3c0-4.2-2.4-6.8-6.7-6.8c-6-0.1-12-0.1-18,0c-4.2,0.1-6.7,2.6-6.7,6.8
		c0,15,0,30,0,45c0,4.3,2.6,6.9,6.9,6.9c5.8,0,11.7,0,17.5,0c4.4,0,6.9-2.6,6.9-7c0-2.7,0-5.4,0-8.1
		C421.6,64.7,421.7,64.6,421.7,64.4z"/>
	<path class="st0" d="M244.9,79c13,0,25.9,0,38.8,0c0,6.6,0,13.2,0,19.9c-20.9,0-41.7,0-62.7,0c0-32.7,0-65.3,0-98.1
		c7.9,0,15.8,0,23.9,0C244.9,26.7,244.9,52.8,244.9,79z"/>
	<path class="st0" d="M318.1,79c13,0,25.9,0,38.8,0c0,6.6,0,13.2,0,19.9c-20.9,0-41.7,0-62.7,0c0-32.7,0-65.3,0-98.1
		c7.9,0,15.8,0,23.9,0C318.1,26.7,318.1,52.8,318.1,79z"/>
	<path class="st0" d="M823.4,12.1c1.9-1.6,3.5-3.1,5.2-4.5c0.3-0.2,0.6-0.4,0.8-0.7c4.2-4.6,9.5-6.2,15.5-6.2c5,0,9.9,0,14.9,0
		c0.2,0,0.4,0,0.7,0.1c0,6.8,0,13.5,0,20.4c-0.4,0-0.9,0.1-1.4,0.1c-4.2,0-8.5,0-12.7,0c-3.5,0-6.5,1-9.1,3.5
		c-3.9,3.6-7.9,7.2-11.9,10.7c-0.7,0.6-1,1.3-1,2.3c0,20.1,0,40.1,0,60.2c0,1.7,0,1.7-1.7,1.7c-6.8,0-13.6,0-20.4,0
		c-1.7,0-1.7,0-1.7-1.6c0-31.6,0-63.2,0-94.8c0-1.6,0-1.6,1.6-1.6c6.2,0,12.3,0,18.5,0c1,0,1.5,0.2,1.6,1.3
		C822.5,5.8,823,8.8,823.4,12.1z"/>
	<path class="st0" d="M571.7,12.1c1.5-1.3,2.8-2.4,4.1-3.6c1.6-1.4,3.2-2.9,4.9-4.2c2.5-2.1,5.4-3.2,8.6-3.3
		c6.4-0.2,12.8-0.2,19.2-0.3c0.1,0,0.1,0,0.3,0.1c0,6.7,0,13.4,0,20.3c-0.4,0-0.9,0.1-1.4,0.1c-4.3,0-8.6,0-13,0
		c-3.3,0-6.2,1-8.6,3.2c-4,3.6-8,7.2-12,10.8c-0.8,0.7-1.2,1.5-1.2,2.7c0,20,0,40.1,0,60.1c0,1.6,0,1.6-1.6,1.6
		c-6.9,0-13.8,0-20.6,0c-1.2,0-1.5-0.4-1.5-1.5c0-31.7,0-63.4,0-95c0-1.1,0.3-1.5,1.5-1.5c6.2,0,12.4,0,18.6,0c1,0,1.5,0.2,1.6,1.3
		C570.8,5.8,571.3,8.8,571.7,12.1z"/>
	<path class="st0" d="M184.5,1.5c8,0,15.9,0,23.9,0c0,32.7,0,65.4,0,98.2c-7.9,0-15.9,0-23.9,0C184.5,66.9,184.5,34.2,184.5,1.5z"/>
</g>
</svg>
