<?xml version="1.0" encoding="UTF-8"?> <svg xmlns="http://www.w3.org/2000/svg" width="138" height="24" viewBox="0 0 138 24" fill="none"><path d="M26.6832 19.9465H23.4468L24.5441 21.2244H12.1262L4.81993 12.7791H6.65344L4.54212 10.3206H0.472269C0.208354 10.3206 0 10.5289 0 10.7789C0 10.8901 0.0416708 11.0012 0.111122 11.0845L10.6122 23.2246C10.8622 23.5163 11.2233 23.683 11.5984 23.683H28.8918C29.1418 23.683 29.3502 23.4747 29.364 23.2246C29.364 23.1135 29.3224 23.0024 29.2529 22.919L26.6832 19.9465Z" fill="white"></path><path d="M29.1979 14.7932H25.9475L27.0588 16.0711H14.627L7.33457 7.62582H9.16809L8.11243 6.38958L7.04288 5.16724H2.97303C2.70911 5.16724 2.51465 5.37559 2.51465 5.63951C2.51465 5.75063 2.55632 5.84786 2.62577 5.9312L13.1129 18.0713C13.363 18.363 13.7241 18.5297 14.0991 18.5297H31.3925C31.6426 18.5297 31.8509 18.3213 31.8648 18.0713C31.8648 17.9602 31.8231 17.8491 31.7537 17.7657L29.1979 14.7932Z" fill="white"></path><path d="M34.2674 12.6124L23.7802 0.472321C23.5302 0.180625 23.169 0.027832 22.794 0.027832H5.4867C5.23667 0.027832 5.02832 0.236186 5.02832 0.500102C5.02832 0.611224 5.06999 0.722346 5.13944 0.805688L15.6266 12.9597C15.8766 13.2514 16.2378 13.4181 16.6128 13.4181H33.9062C34.1562 13.4181 34.3785 13.2236 34.3785 12.9597C34.3785 12.8208 34.3368 12.7097 34.2674 12.6124ZM14.2931 7.62582H19.752L22.5995 10.9317H17.1406L14.2931 7.62582ZM25.8499 10.9317L21.2661 5.62562C21.016 5.33392 20.6549 5.16724 20.2799 5.16724H12.1679L9.83436 2.47252H22.2523L29.5586 10.9317H25.8499Z" fill="white"></path><path d="M58.173 19.1548H55.4782V16.8351H55.4227C54.6726 18.4742 53.2697 19.4048 51.1723 19.4048C48.1858 19.4048 46.3662 17.4602 46.3662 14.321V5.45898H49.1721V13.7793C49.1721 15.8628 50.1583 16.9879 52.1029 16.9879C54.1309 16.9879 55.3532 15.585 55.3532 13.4459V5.45898H58.1591V19.1548H58.173Z" fill="white"></path><path d="M73.8552 12.3067C73.8552 16.6405 71.5772 19.3908 68.1463 19.3908C66.1878 19.3908 64.6182 18.4323 63.8404 16.9044H63.7709V23.6829H60.9512V5.45882H63.6737V7.82016H63.7292C64.5349 6.25056 66.1045 5.23657 68.0908 5.23657C71.5634 5.23657 73.8552 7.97296 73.8552 12.3067ZM70.9661 12.3067C70.9661 9.44533 69.577 7.61181 67.3546 7.61181C65.2016 7.61181 63.757 9.487 63.757 12.3067C63.757 15.1542 65.1877 17.0016 67.3546 17.0016C69.5631 17.0016 70.9661 15.182 70.9661 12.3067Z" fill="white"></path><path d="M81.0496 5.20898C84.2444 5.20898 86.314 6.97305 86.3974 9.50108H83.7582C83.6054 8.16761 82.6192 7.3342 81.0496 7.3342C79.5217 7.3342 78.5077 8.07038 78.5077 9.16771C78.5077 10.0289 79.1328 10.6123 80.619 10.9457L82.8415 11.4596C85.6473 12.1125 86.703 13.2098 86.703 15.1822C86.703 17.6825 84.3694 19.4049 81.1468 19.4049C77.7159 19.4049 75.6602 17.7241 75.4102 15.1266H78.2021C78.466 16.5573 79.4383 17.2657 81.1607 17.2657C82.8553 17.2657 83.8971 16.5573 83.8971 15.4461C83.8971 14.5571 83.3832 14.0432 81.8969 13.6959L79.6745 13.1681C77.0631 12.5708 75.7852 11.3207 75.7852 9.32051C75.7713 6.88971 77.8965 5.20898 81.0496 5.20898Z" fill="white"></path><path d="M91.5092 2.20847V5.44491H94.3567V7.66735H91.5092V15.2237C91.5092 16.4043 92.037 16.9461 93.176 16.9461C93.4816 16.9461 93.7872 16.9322 94.1067 16.8766V19.099C93.5927 19.1963 93.0649 19.238 92.5509 19.2241C89.7729 19.2241 88.6895 18.1684 88.6895 15.5292V2.19458L91.5092 2.20847Z" fill="white"></path><path d="M96.4121 5.45882H99.0929V7.79238H99.1624C99.6208 6.195 100.843 5.23657 102.454 5.23657C102.774 5.23657 103.093 5.27824 103.413 5.34769V7.95907C103.191 7.86183 102.691 7.80627 102.149 7.80627C100.343 7.80627 99.2179 9.01473 99.2179 10.9594V19.1546H96.4121V5.45882Z" fill="white"></path><path d="M105.024 1.62516C105.024 0.736185 105.747 0 106.636 0C107.525 0 108.261 0.722295 108.261 1.61127C108.261 2.50025 107.539 3.23644 106.65 3.23644C105.761 3.25033 105.038 2.52803 105.024 1.62516C105.024 1.63905 105.024 1.62516 105.024 1.62516ZM105.247 5.45888H108.066V19.1547H105.261V5.45888H105.247Z" fill="white"></path><path d="M110.33 12.3068C110.33 7.98687 112.622 5.2366 116.053 5.2366C118.025 5.2366 119.581 6.22281 120.345 7.73685H120.387V0.375H123.206V19.1547H120.484V16.835H120.428C119.623 18.4046 118.067 19.4047 116.067 19.4047C112.622 19.3908 110.33 16.6266 110.33 12.3068ZM113.205 12.3068C113.205 15.1959 114.594 17.0017 116.831 17.0017C118.998 17.0017 120.442 15.1681 120.442 12.3068C120.442 9.47313 118.998 7.61184 116.831 7.61184C114.594 7.59795 113.205 9.43146 113.205 12.3068Z" fill="white"></path><path d="M137.847 15.1266C137.458 17.6269 135.083 19.4049 131.943 19.4049C127.915 19.4049 125.484 16.6824 125.484 12.3625C125.484 8.07038 127.957 5.20898 131.832 5.20898C135.638 5.20898 138 7.88981 138 12.043V13.0014H128.332V13.1681C128.332 15.5572 129.763 17.1268 132.013 17.1268C133.61 17.1268 134.805 16.3212 135.18 15.1266H137.847ZM128.346 11.0429H135.194C135.124 8.94547 133.805 7.4731 131.832 7.4731C129.86 7.4731 128.485 8.97325 128.346 11.0429Z" fill="white"></path></svg> 